<?xml version="1.0" encoding="UTF-8"?>
<!DOCTYPE svg PUBLIC "-//W3C//DTD SVG 1.1//EN" "http://www.w3.org/Graphics/SVG/1.1/DTD/svg11.dtd">
<svg xmlns="http://www.w3.org/2000/svg" version="1.1" width="127px" height="127px" style="shape-rendering:geometricPrecision; text-rendering:geometricPrecision; image-rendering:optimizeQuality; fill-rule:evenodd; clip-rule:evenodd" xmlns:xlink="http://www.w3.org/1999/xlink">
<g><path style="opacity:1" fill="#07a0db" d="M -0.5,-0.5 C 41.8333,-0.5 84.1667,-0.5 126.5,-0.5C 126.5,41.8333 126.5,84.1667 126.5,126.5C 84.1667,126.5 41.8333,126.5 -0.5,126.5C -0.5,84.1667 -0.5,41.8333 -0.5,-0.5 Z"/></g>
<g><path style="opacity:1" fill="#fdfefe" d="M 56.5,13.5 C 62.9936,13.1658 69.3269,13.9992 75.5,16C 75.9847,18.6801 76.3181,21.3468 76.5,24C 84.1667,27 91.8333,30 99.5,33C 101.624,34.1217 103.457,35.6217 105,37.5C 111.599,48.7856 113.099,60.619 109.5,73C 105.625,74.5204 101.625,74.8538 97.5,74C 89.9057,71.5362 82.9057,68.0362 76.5,63.5C 70.6908,65.914 70.0242,69.414 74.5,74C 82.8606,76.0095 90.8606,79.0095 98.5,83C 103.051,86.74 103.551,90.9067 100,95.5C 90.2004,106.318 78.0337,111.485 63.5,111C 57.2007,108.401 50.8674,105.901 44.5,103.5C 43.09,103.868 42.09,104.701 41.5,106C 27.4315,100.238 18.5981,89.7381 15,74.5C 14.5007,69.5111 14.3341,64.5111 14.5,59.5C 22.9927,62.1655 31.326,65.3322 39.5,69C 47.9331,70.8544 55.0998,68.6878 61,62.5C 67.2864,52.32 70.2864,41.32 70,29.5C 67.5716,22.7376 62.9049,18.4043 56,16.5C 55.5304,15.4232 55.6971,14.4232 56.5,13.5 Z"/></g>
<g><path style="opacity:1" fill="#fcfdfe" d="M 39.5,18.5 C 46.4483,20.1362 53.115,22.6362 59.5,26C 63.0473,29.49 64.214,33.6566 63,38.5C 60.8403,45.487 58.007,52.1537 54.5,58.5C 50.886,62.1655 46.5527,63.3322 41.5,62C 32.1739,58.4826 23.1739,54.8159 14.5,51C 18.8905,37.0146 27.2238,26.1812 39.5,18.5 Z"/></g>
</svg>
