<?xml version="1.0" encoding="UTF-8"?>
<!DOCTYPE svg PUBLIC "-//W3C//DTD SVG 1.1//EN" "http://www.w3.org/Graphics/SVG/1.1/DTD/svg11.dtd">
<svg xmlns="http://www.w3.org/2000/svg" version="1.1" width="1200px" height="1200px" style="shape-rendering:geometricPrecision; text-rendering:geometricPrecision; image-rendering:optimizeQuality; fill-rule:evenodd; clip-rule:evenodd" xmlns:xlink="http://www.w3.org/1999/xlink">
<g><path style="opacity:0.999" fill="#0e4480" d="M 421.5,80.5 C 423.905,81.7682 426.572,82.4349 429.5,82.5C 430.791,82.2627 431.791,82.596 432.5,83.5C 431.624,83.3691 430.957,83.7025 430.5,84.5C 436.568,102.537 442.735,120.537 449,138.5C 449.615,140.116 450.615,141.449 452,142.5C 457.218,158.697 462.885,174.697 469,190.5C 469.81,192.306 470.976,193.806 472.5,195C 478.353,211.51 484.186,228.01 490,244.5C 494.252,252.562 497.752,261.062 500.5,270C 501.009,271.169 501.842,272.002 503,272.5C 508.741,289.637 514.741,306.637 521,323.5C 522.333,324.167 523.333,325.167 524,326.5C 534.307,356.933 545.474,386.933 557.5,416.5C 556.963,417.741 556.296,418.908 555.5,420C 563.242,438.018 570.075,456.518 576,475.5C 577.097,477.053 578.43,478.386 580,479.5C 584.809,493.426 589.309,507.426 593.5,521.5C 592.739,525.784 591.405,529.784 589.5,533.5C 589.357,531.738 589.691,530.071 590.5,528.5C 580.336,503.518 570.836,478.184 562,452.5C 561,451.167 560,449.833 559,448.5C 553.333,432.5 547.667,416.5 542,400.5C 541.333,399.167 540.333,398.167 539,397.5C 533.186,381.01 527.353,364.51 521.5,348C 520.991,346.831 520.158,345.998 519,345.5C 516.304,335.738 512.637,326.404 508,317.5C 505.191,309.573 502.691,301.573 500.5,293.5C 498.007,293.671 496.174,292.671 495,290.5C 492.136,282.908 489.469,275.242 487,267.5C 485.667,266.833 484.667,265.833 484,264.5C 481.5,257 479,249.5 476.5,242C 474.667,240.5 472.833,239 471,237.5C 468.068,229.538 465.235,221.538 462.5,213.5C 460.483,212.781 458.817,211.614 457.5,210C 455,202.5 452.5,195 450,187.5C 445.004,179.545 441.337,170.878 439,161.5C 437.826,159.329 435.993,158.329 433.5,158.5C 431.197,149.425 428.197,140.592 424.5,132C 421.458,131.445 419.625,129.612 419,126.5C 414.06,111.847 409.227,97.1801 404.5,82.5C 409.929,80.9879 415.596,80.3213 421.5,80.5 Z"/></g>
<g><path style="opacity:0.396" fill="#2383b1" d="M 421.5,80.5 C 528.167,80.5 634.833,80.5 741.5,80.5C 637.5,81.1667 533.5,81.8333 429.5,82.5C 426.572,82.4349 423.905,81.7682 421.5,80.5 Z"/></g>
<g><path style="opacity:0.998" fill="#3bcaf3" d="M 741.5,80.5 C 758.524,80.2397 775.524,80.573 792.5,81.5C 790.879,83.1172 788.879,84.2838 786.5,85C 689.581,121.472 592.581,157.639 495.5,193.5C 485.761,164.283 475.428,135.283 464.5,106.5C 459.305,96.9705 451.638,90.3039 441.5,86.5C 438.855,84.6896 435.855,83.6896 432.5,83.5C 431.791,82.596 430.791,82.2627 429.5,82.5C 533.5,81.8333 637.5,81.1667 741.5,80.5 Z"/></g>
<g><path style="opacity:0.999" fill="#3bc8f2" d="M 792.5,81.5 C 810.18,85.1832 822.847,95.1832 830.5,111.5C 723.101,151.3 615.768,191.3 508.5,231.5C 503.796,219.057 499.463,206.39 495.5,193.5C 592.581,157.639 689.581,121.472 786.5,85C 788.879,84.2838 790.879,83.1172 792.5,81.5 Z"/></g>
<g><path style="opacity:0.999" fill="#0e4886" d="M 404.5,82.5 C 409.227,97.1801 414.06,111.847 419,126.5C 419.625,129.612 421.458,131.445 424.5,132C 428.197,140.592 431.197,149.425 433.5,158.5C 435.993,158.329 437.826,159.329 439,161.5C 441.337,170.878 445.004,179.545 450,187.5C 452.5,195 455,202.5 457.5,210C 458.817,211.614 460.483,212.781 462.5,213.5C 465.235,221.538 468.068,229.538 471,237.5C 472.833,239 474.667,240.5 476.5,242C 479,249.5 481.5,257 484,264.5C 484.667,265.833 485.667,266.833 487,267.5C 489.469,275.242 492.136,282.908 495,290.5C 496.174,292.671 498.007,293.671 500.5,293.5C 502.691,301.573 505.191,309.573 508,317.5C 512.637,326.404 516.304,335.738 519,345.5C 520.158,345.998 520.991,346.831 521.5,348C 527.353,364.51 533.186,381.01 539,397.5C 540.333,398.167 541.333,399.167 542,400.5C 547.667,416.5 553.333,432.5 559,448.5C 560,449.833 561,451.167 562,452.5C 570.836,478.184 580.336,503.518 590.5,528.5C 589.691,530.071 589.357,531.738 589.5,533.5C 588.739,537.784 587.405,541.784 585.5,545.5C 585.318,543.409 585.652,541.409 586.5,539.5C 580.842,526.527 576.175,513.194 572.5,499.5C 570.876,499.64 569.71,498.973 569,497.5C 566.136,489.908 563.469,482.242 561,474.5C 560,473.5 559,472.5 558,471.5C 555.333,463.5 552.667,455.5 550,447.5C 548.108,446.87 546.441,445.87 545,444.5C 542.531,436.758 539.864,429.092 537,421.5C 536.333,420.167 535.333,419.167 534,418.5C 531.333,410.5 528.667,402.5 526,394.5C 524.559,393.13 522.892,392.13 521,391.5C 515.023,374.585 508.69,357.918 502,341.5C 500.167,340 498.333,338.5 496.5,337C 494.031,329.258 491.364,321.592 488.5,314C 486.667,312.5 484.833,311 483,309.5C 476.31,293.082 469.977,276.415 464,259.5C 462.013,258.782 460.179,257.782 458.5,256.5C 455.735,248.704 453.068,240.871 450.5,233C 448.167,231.333 445.833,229.667 443.5,228C 441,220.5 438.5,213 436,205.5C 434.667,204.167 433.333,202.833 432,201.5C 429.5,194 427,186.5 424.5,179C 422.486,177.322 420.319,175.822 418,174.5C 415.333,166.5 412.667,158.5 410,150.5C 408.088,149.308 406.088,148.308 404,147.5C 401,139.167 398,130.833 395,122.5C 393.013,121.782 391.179,120.782 389.5,119.5C 386.419,111.26 383.753,102.926 381.5,94.5C 387.862,88.151 395.529,84.151 404.5,82.5 Z"/></g>
<g><path style="opacity:1" fill="#0d4179" d="M 432.5,83.5 C 435.855,83.6896 438.855,84.6896 441.5,86.5C 447.161,105.315 453.327,123.982 460,142.5C 461,143.833 462,145.167 463,146.5C 468.667,162.5 474.333,178.5 480,194.5C 480.667,195.833 481.667,196.833 483,197.5C 488.741,214.637 494.741,231.637 501,248.5C 502.158,248.998 502.991,249.831 503.5,251C 509.353,267.51 515.186,284.01 521,300.5C 522.333,301.167 523.333,302.167 524,303.5C 548.663,370.656 572.83,437.989 596.5,505.5C 596.5,508.167 596.5,510.833 596.5,513.5C 595.871,516.397 594.871,519.064 593.5,521.5C 589.309,507.426 584.809,493.426 580,479.5C 578.43,478.386 577.097,477.053 576,475.5C 570.075,456.518 563.242,438.018 555.5,420C 556.296,418.908 556.963,417.741 557.5,416.5C 545.474,386.933 534.307,356.933 524,326.5C 523.333,325.167 522.333,324.167 521,323.5C 514.741,306.637 508.741,289.637 503,272.5C 501.842,272.002 501.009,271.169 500.5,270C 497.752,261.062 494.252,252.562 490,244.5C 484.186,228.01 478.353,211.51 472.5,195C 470.976,193.806 469.81,192.306 469,190.5C 462.885,174.697 457.218,158.697 452,142.5C 450.615,141.449 449.615,140.116 449,138.5C 442.735,120.537 436.568,102.537 430.5,84.5C 430.957,83.7025 431.624,83.3691 432.5,83.5 Z"/></g>
<g><path style="opacity:1" fill="#0d3d72" d="M 441.5,86.5 C 451.638,90.3039 459.305,96.9705 464.5,106.5C 463.957,106.56 463.624,106.893 463.5,107.5C 473.639,135.584 482.973,163.918 491.5,192.5C 490.456,194.768 490.289,197.101 491,199.5C 526.714,301.471 562.547,403.471 598.5,505.5C 598.03,506.463 597.363,506.463 596.5,505.5C 572.83,437.989 548.663,370.656 524,303.5C 523.333,302.167 522.333,301.167 521,300.5C 515.186,284.01 509.353,267.51 503.5,251C 502.991,249.831 502.158,248.998 501,248.5C 494.741,231.637 488.741,214.637 483,197.5C 481.667,196.833 480.667,195.833 480,194.5C 474.333,178.5 468.667,162.5 463,146.5C 462,145.167 461,143.833 460,142.5C 453.327,123.982 447.161,105.315 441.5,86.5 Z"/></g>
<g><path style="opacity:0.999" fill="#39c4f1" d="M 830.5,111.5 C 842.564,146.025 854.231,180.692 865.5,215.5C 758.54,256.601 651.207,296.934 543.5,336.5C 531.632,301.562 519.965,266.562 508.5,231.5C 615.768,191.3 723.101,151.3 830.5,111.5 Z"/></g>
<g><path style="opacity:0.998" fill="#0f4b8c" d="M 381.5,94.5 C 383.753,102.926 386.419,111.26 389.5,119.5C 391.179,120.782 393.013,121.782 395,122.5C 398,130.833 401,139.167 404,147.5C 406.088,148.308 408.088,149.308 410,150.5C 412.667,158.5 415.333,166.5 418,174.5C 420.319,175.822 422.486,177.322 424.5,179C 427,186.5 429.5,194 432,201.5C 433.333,202.833 434.667,204.167 436,205.5C 438.5,213 441,220.5 443.5,228C 445.833,229.667 448.167,231.333 450.5,233C 453.068,240.871 455.735,248.704 458.5,256.5C 460.179,257.782 462.013,258.782 464,259.5C 469.977,276.415 476.31,293.082 483,309.5C 484.833,311 486.667,312.5 488.5,314C 491.364,321.592 494.031,329.258 496.5,337C 498.333,338.5 500.167,340 502,341.5C 508.69,357.918 515.023,374.585 521,391.5C 522.892,392.13 524.559,393.13 526,394.5C 528.667,402.5 531.333,410.5 534,418.5C 535.333,419.167 536.333,420.167 537,421.5C 539.864,429.092 542.531,436.758 545,444.5C 546.441,445.87 548.108,446.87 550,447.5C 552.667,455.5 555.333,463.5 558,471.5C 559,472.5 560,473.5 561,474.5C 563.469,482.242 566.136,489.908 569,497.5C 569.71,498.973 570.876,499.64 572.5,499.5C 576.175,513.194 580.842,526.527 586.5,539.5C 585.652,541.409 585.318,543.409 585.5,545.5C 583.936,552.531 581.602,559.198 578.5,565.5C 579.681,558.692 578.348,552.359 574.5,546.5C 573.264,545.754 571.93,545.421 570.5,545.5C 568.303,535.055 564.47,525.389 559,516.5C 556.191,508.573 553.691,500.573 551.5,492.5C 549.007,492.671 547.174,491.671 546,489.5C 543.667,482.5 541.333,475.5 539,468.5C 537.915,466.627 536.582,464.96 535,463.5C 532.5,456 530,448.5 527.5,441C 526.046,439.287 524.212,438.12 522,437.5C 519.333,429.5 516.667,421.5 514,413.5C 512.667,412.167 511.333,410.833 510,409.5C 507.5,402 505,394.5 502.5,387C 500.486,385.322 498.319,383.822 496,382.5C 493.068,374.538 490.235,366.538 487.5,358.5C 486.088,357.194 484.421,356.36 482.5,356C 479.278,348.336 476.445,340.503 474,332.5C 473.333,330.5 472,329.167 470,328.5C 467.333,320.5 464.667,312.5 462,304.5C 460.352,303.283 458.519,302.45 456.5,302C 452.803,293.408 449.803,284.575 447.5,275.5C 445.304,275.435 443.304,274.768 441.5,273.5C 438.735,265.704 436.068,257.871 433.5,250C 431.167,248.333 428.833,246.667 426.5,245C 423.932,237.129 421.265,229.296 418.5,221.5C 392.631,212.099 366.631,203.099 340.5,194.5C 349.359,167.091 358.525,139.757 368,112.5C 370.818,105.179 375.318,99.1789 381.5,94.5 Z"/></g>
<g><path style="opacity:1" fill="#0d3e6f" d="M 464.5,106.5 C 475.428,135.283 485.761,164.283 495.5,193.5C 499.463,206.39 503.796,219.057 508.5,231.5C 519.965,266.562 531.632,301.562 543.5,336.5C 555.303,371.908 567.303,407.241 579.5,442.5C 583.504,454.844 587.504,467.178 591.5,479.5C 595.173,487.853 597.84,496.52 599.5,505.5C 598.871,508.397 597.871,511.064 596.5,513.5C 596.5,510.833 596.5,508.167 596.5,505.5C 597.363,506.463 598.03,506.463 598.5,505.5C 562.547,403.471 526.714,301.471 491,199.5C 490.289,197.101 490.456,194.768 491.5,192.5C 482.973,163.918 473.639,135.584 463.5,107.5C 463.624,106.893 463.957,106.56 464.5,106.5 Z"/></g>
<g><path style="opacity:0.998" fill="#0e4e92" d="M 340.5,194.5 C 366.631,203.099 392.631,212.099 418.5,221.5C 421.265,229.296 423.932,237.129 426.5,245C 428.833,246.667 431.167,248.333 433.5,250C 436.068,257.871 438.735,265.704 441.5,273.5C 443.304,274.768 445.304,275.435 447.5,275.5C 449.803,284.575 452.803,293.408 456.5,302C 458.519,302.45 460.352,303.283 462,304.5C 464.667,312.5 467.333,320.5 470,328.5C 472,329.167 473.333,330.5 474,332.5C 476.445,340.503 479.278,348.336 482.5,356C 484.421,356.36 486.088,357.194 487.5,358.5C 490.235,366.538 493.068,374.538 496,382.5C 498.319,383.822 500.486,385.322 502.5,387C 505,394.5 507.5,402 510,409.5C 511.333,410.833 512.667,412.167 514,413.5C 516.667,421.5 519.333,429.5 522,437.5C 524.212,438.12 526.046,439.287 527.5,441C 530,448.5 532.5,456 535,463.5C 536.582,464.96 537.915,466.627 539,468.5C 541.333,475.5 543.667,482.5 546,489.5C 547.174,491.671 549.007,492.671 551.5,492.5C 553.691,500.573 556.191,508.573 559,516.5C 564.47,525.389 568.303,535.055 570.5,545.5C 571.93,545.421 573.264,545.754 574.5,546.5C 578.348,552.359 579.681,558.692 578.5,565.5C 575.405,576.784 571.739,587.784 567.5,598.5C 567.662,596.473 567.495,594.473 567,592.5C 560.661,574.982 554.827,557.315 549.5,539.5C 546.802,539.55 544.636,538.55 543,536.5C 537.136,519.908 531.469,503.241 526,486.5C 523.86,484.328 521.526,482.328 519,480.5C 516.531,472.758 513.864,465.092 511,457.5C 509.702,456.44 508.535,455.274 507.5,454C 504.723,445.835 502.056,437.668 499.5,429.5C 497.304,429.435 495.304,428.768 493.5,427.5C 490.735,419.704 488.068,411.871 485.5,404C 483.486,402.322 481.319,400.822 479,399.5C 476.118,391.016 472.952,382.683 469.5,374.5C 412.661,355.332 355.994,335.999 299.5,316.5C 312.792,275.623 326.459,234.956 340.5,194.5 Z"/></g>
<g><path style="opacity:0.999" fill="#37beef" d="M 865.5,215.5 C 878.068,250.536 890.068,285.869 901.5,321.5C 794.167,361.833 686.833,402.167 579.5,442.5C 567.303,407.241 555.303,371.908 543.5,336.5C 651.207,296.934 758.54,256.601 865.5,215.5 Z"/></g>
<g><path style="opacity:0.999" fill="#36baed" d="M 901.5,321.5 C 905.832,334.162 910.165,346.828 914.5,359.5C 806.917,399.795 699.25,439.795 591.5,479.5C 587.504,467.178 583.504,454.844 579.5,442.5C 686.833,402.167 794.167,361.833 901.5,321.5 Z"/></g>
<g><path style="opacity:0.999" fill="#0d5399" d="M 299.5,316.5 C 355.994,335.999 412.661,355.332 469.5,374.5C 472.952,382.683 476.118,391.016 479,399.5C 481.319,400.822 483.486,402.322 485.5,404C 488.068,411.871 490.735,419.704 493.5,427.5C 495.304,428.768 497.304,429.435 499.5,429.5C 502.056,437.668 504.723,445.835 507.5,454C 508.535,455.274 509.702,456.44 511,457.5C 513.864,465.092 516.531,472.758 519,480.5C 521.526,482.328 523.86,484.328 526,486.5C 531.469,503.241 537.136,519.908 543,536.5C 544.636,538.55 546.802,539.55 549.5,539.5C 554.827,557.315 560.661,574.982 567,592.5C 567.495,594.473 567.662,596.473 567.5,598.5C 565.875,604.381 563.875,610.047 561.5,615.5C 561.435,613.304 560.768,611.304 559.5,609.5C 557.386,608.966 555.552,607.966 554,606.5C 551.462,598.386 548.629,590.386 545.5,582.5C 543.696,581.232 541.696,580.565 539.5,580.5C 537.197,571.425 534.197,562.592 530.5,554C 437.108,522.815 344.108,490.982 251.5,458.5C 266.928,410.882 282.928,363.548 299.5,316.5 Z"/></g>
<g><path style="opacity:0.999" fill="#35b7ec" d="M 914.5,359.5 C 921.969,381.908 929.636,404.241 937.5,426.5C 829.937,467.115 722.27,507.449 614.5,547.5C 609.5,533.5 604.5,519.5 599.5,505.5C 597.84,496.52 595.173,487.853 591.5,479.5C 699.25,439.795 806.917,399.795 914.5,359.5 Z"/></g>
<g><path style="opacity:0.998" fill="#33b2ea" d="M 937.5,426.5 C 951.171,467.845 964.837,509.178 978.5,550.5C 870.793,590.066 763.46,630.399 656.5,671.5C 641.928,630.452 627.928,589.119 614.5,547.5C 722.27,507.449 829.937,467.115 937.5,426.5 Z"/></g>
<g><path style="opacity:0.999" fill="#0d559d" d="M 251.5,458.5 C 344.108,490.982 437.108,522.815 530.5,554C 534.197,562.592 537.197,571.425 539.5,580.5C 541.696,580.565 543.696,581.232 545.5,582.5C 548.629,590.386 551.462,598.386 554,606.5C 555.552,607.966 557.386,608.966 559.5,609.5C 560.768,611.304 561.435,613.304 561.5,615.5C 561.233,617.965 560.566,620.299 559.5,622.5C 450.759,585.364 342.092,548.031 233.5,510.5C 239.327,493.017 245.327,475.684 251.5,458.5 Z"/></g>
<g><path style="opacity:0.999" fill="#0c57a0" d="M 233.5,510.5 C 342.092,548.031 450.759,585.364 559.5,622.5C 552.031,645.574 544.364,668.574 536.5,691.5C 427.228,655.631 318.228,618.965 209.5,581.5C 217.5,557.833 225.5,534.167 233.5,510.5 Z"/></g>
<g><path style="opacity:0.999" fill="#32ade8" d="M 978.5,550.5 C 981.739,558.216 984.405,566.216 986.5,574.5C 879.453,615.347 772.12,655.68 664.5,695.5C 661.261,687.784 658.595,679.784 656.5,671.5C 763.46,630.399 870.793,590.066 978.5,550.5 Z"/></g>
<g><path style="opacity:0.999" fill="#30aae8" d="M 986.5,574.5 C 996.206,601.281 1005.54,628.281 1014.5,655.5C 906.943,695.778 799.276,735.778 691.5,775.5C 689.204,767.609 686.537,759.942 683.5,752.5C 676.571,733.714 670.238,714.714 664.5,695.5C 772.12,655.68 879.453,615.347 986.5,574.5 Z"/></g>
<g><path style="opacity:0.998" fill="#0b5aa5" d="M 209.5,581.5 C 318.228,618.965 427.228,655.631 536.5,691.5C 529.697,711.908 522.697,732.241 515.5,752.5C 466.166,752.333 416.832,752.5 367.5,753C 360.746,755.521 355.412,759.688 351.5,765.5C 290.426,745.364 229.426,725.031 168.5,704.5C 181.965,663.438 195.632,622.438 209.5,581.5 Z"/></g>
<g><path style="opacity:0.999" fill="#2ea5e6" d="M 1014.5,655.5 C 1026.37,690.438 1038.03,725.438 1049.5,760.5C 942.167,800.833 834.833,841.167 727.5,881.5C 715.696,846.087 703.696,810.754 691.5,775.5C 799.276,735.778 906.943,695.778 1014.5,655.5 Z"/></g>
<g><path style="opacity:0.999" fill="#095eab" d="M 168.5,704.5 C 229.426,725.031 290.426,745.364 351.5,765.5C 348.285,774.526 349.118,783.193 354,791.5C 392,826.334 429.5,861.667 466.5,897.5C 462.367,910.567 458.033,923.567 453.5,936.5C 344.766,900.033 236.099,863.366 127.5,826.5C 140.397,785.475 154.064,744.808 168.5,704.5 Z"/></g>
<g><path style="opacity:0.998" fill="#0077d3" d="M 515.5,752.5 C 548.167,752.5 580.833,752.5 613.5,752.5C 654.492,873.81 695.492,995.143 736.5,1116.5C 733.023,1117.17 729.689,1117.83 726.5,1118.5C 712.142,1118.66 699.475,1114.16 688.5,1105C 614.63,1035.63 540.63,966.462 466.5,897.5C 429.5,861.667 392,826.334 354,791.5C 349.118,783.193 348.285,774.526 351.5,765.5C 355.412,759.688 360.746,755.521 367.5,753C 416.832,752.5 466.166,752.333 515.5,752.5 Z"/></g>
<g><path style="opacity:0.999" fill="#0072cb" d="M 613.5,752.5 C 620.833,752.5 628.167,752.5 635.5,752.5C 675.434,872.636 715.768,992.636 756.5,1112.5C 752.784,1114.41 748.784,1115.74 744.5,1116.5C 741.933,1116.72 739.599,1117.39 737.5,1118.5C 733.833,1118.5 730.167,1118.5 726.5,1118.5C 729.689,1117.83 733.023,1117.17 736.5,1116.5C 695.492,995.143 654.492,873.81 613.5,752.5 Z"/></g>
<g><path style="opacity:1" fill="#006ec2" d="M 635.5,752.5 C 644.5,752.5 653.5,752.5 662.5,752.5C 661.737,753.268 660.737,753.768 659.5,754C 698.192,867.743 736.692,981.576 775,1095.5C 775.383,1096.06 775.883,1096.39 776.5,1096.5C 771.306,1103.7 764.639,1109.03 756.5,1112.5C 715.768,992.636 675.434,872.636 635.5,752.5 Z"/></g>
<g><path style="opacity:0.999" fill="#0066b4" d="M 662.5,752.5 C 667.5,752.5 672.5,752.5 677.5,752.5C 675.708,753.309 673.708,753.809 671.5,754C 708.743,863.625 746.076,973.125 783.5,1082.5C 782.201,1087.76 779.868,1092.43 776.5,1096.5C 775.883,1096.39 775.383,1096.06 775,1095.5C 736.692,981.576 698.192,867.743 659.5,754C 660.737,753.768 661.737,753.268 662.5,752.5 Z"/></g>
<g><path style="opacity:1" fill="#0060ab" d="M 677.5,752.5 C 678.5,752.5 679.5,752.5 680.5,752.5C 715.261,857.452 750.595,962.118 786.5,1066.5C 786.764,1072.1 785.764,1077.44 783.5,1082.5C 746.076,973.125 708.743,863.625 671.5,754C 673.708,753.809 675.708,753.309 677.5,752.5 Z"/></g>
<g><path style="opacity:1" fill="#015a9e" d="M 680.5,752.5 C 681.5,752.5 682.5,752.5 683.5,752.5C 686.537,759.942 689.204,767.609 691.5,775.5C 703.696,810.754 715.696,846.087 727.5,881.5C 739.129,916.724 751.129,951.724 763.5,986.5C 770.161,1008.32 777.327,1029.98 785,1051.5C 786.25,1056.42 786.75,1061.42 786.5,1066.5C 750.595,962.118 715.261,857.452 680.5,752.5 Z"/></g>
<g><path style="opacity:0.999" fill="#2c9fe3" d="M 1049.5,760.5 C 1061.67,795.685 1073.67,831.018 1085.5,866.5C 978.101,906.3 870.768,946.3 763.5,986.5C 751.129,951.724 739.129,916.724 727.5,881.5C 834.833,841.167 942.167,800.833 1049.5,760.5 Z"/></g>
<g><path style="opacity:0.998" fill="#0861b0" d="M 127.5,826.5 C 236.099,863.366 344.766,900.033 453.5,936.5C 442.34,969.982 431.007,1003.32 419.5,1036.5C 419.631,1035.62 419.298,1034.96 418.5,1034.5C 310.945,997.704 203.278,961.204 95.5,925C 94.944,924.617 94.6107,924.117 94.5,923.5C 104.928,890.881 115.928,858.548 127.5,826.5 Z"/></g>
<g><path style="opacity:0.999" fill="#2a99e1" d="M 1085.5,866.5 C 1098.36,903.759 1111.03,941.092 1123.5,978.5C 1000.61,1024.46 877.941,1070.79 755.5,1117.5C 751.629,1117.81 747.962,1117.48 744.5,1116.5C 748.784,1115.74 752.784,1114.41 756.5,1112.5C 764.639,1109.03 771.306,1103.7 776.5,1096.5C 779.868,1092.43 782.201,1087.76 783.5,1082.5C 785.764,1077.44 786.764,1072.1 786.5,1066.5C 786.75,1061.42 786.25,1056.42 785,1051.5C 777.327,1029.98 770.161,1008.32 763.5,986.5C 870.768,946.3 978.101,906.3 1085.5,866.5 Z"/></g>
<g><path style="opacity:0.998" fill="#0764b4" d="M 94.5,923.5 C 94.6107,924.117 94.944,924.617 95.5,925C 203.278,961.204 310.945,997.704 418.5,1034.5C 419.298,1034.96 419.631,1035.62 419.5,1036.5C 415.233,1050.97 410.566,1065.3 405.5,1079.5C 297.19,1042.84 188.857,1006.17 80.5,969.5C 79.8165,969.863 79.1499,970.196 78.5,970.5C 83.4627,954.61 88.796,938.944 94.5,923.5 Z"/></g>
<g><path style="opacity:0.999" fill="#0666b7" d="M 405.5,1079.5 C 398.107,1102.39 382.441,1115.22 358.5,1118C 271.5,1118.67 184.5,1118.67 97.5,1118C 72.3369,1114.84 56.5036,1101 50,1076.5C 49.1301,1068.1 49.4635,1059.77 51,1051.5C 59.8797,1024.36 69.0463,997.36 78.5,970.5C 79.1499,970.196 79.8165,969.863 80.5,969.5C 188.857,1006.17 297.19,1042.84 405.5,1079.5 Z"/></g>
<g><path style="opacity:0.999" fill="#2996e0" d="M 1123.5,978.5 C 1124.83,982.172 1126.17,985.838 1127.5,989.5C 1013.07,1031.2 899.067,1073.86 785.5,1117.5C 775.5,1117.5 765.5,1117.5 755.5,1117.5C 877.941,1070.79 1000.61,1024.46 1123.5,978.5 Z"/></g>
<g><path style="opacity:0.998" fill="#2893df" d="M 1127.5,989.5 C 1134.76,1011.45 1141.93,1033.45 1149,1055.5C 1152.38,1087.26 1138.88,1107.76 1108.5,1117C 1077.53,1118.45 1046.53,1118.95 1015.5,1118.5C 939.002,1117.5 862.335,1117.17 785.5,1117.5C 899.067,1073.86 1013.07,1031.2 1127.5,989.5 Z"/></g>
<g><path style="opacity:0.396" fill="#147ac5" d="M 744.5,1116.5 C 747.962,1117.48 751.629,1117.81 755.5,1117.5C 765.5,1117.5 775.5,1117.5 785.5,1117.5C 862.335,1117.17 939.002,1117.5 1015.5,1118.5C 922.833,1118.5 830.167,1118.5 737.5,1118.5C 739.599,1117.39 741.933,1116.72 744.5,1116.5 Z"/></g>
</svg>
