<?xml version="1.0" encoding="UTF-8"?>
<!DOCTYPE svg PUBLIC "-//W3C//DTD SVG 1.1//EN" "http://www.w3.org/Graphics/SVG/1.1/DTD/svg11.dtd">
<svg xmlns="http://www.w3.org/2000/svg" version="1.1" width="512px" height="512px" style="shape-rendering:geometricPrecision; text-rendering:geometricPrecision; image-rendering:optimizeQuality; fill-rule:evenodd; clip-rule:evenodd" xmlns:xlink="http://www.w3.org/1999/xlink">
<g><path style="opacity:0.982" fill="#0060bf" d="M 234.5,25.5 C 313.892,20.3076 380.058,46.9743 433,105.5C 477.328,162.475 493.661,226.808 482,298.5C 463.36,383.468 413.526,441.635 332.5,473C 305.95,482.412 278.617,486.412 250.5,485C 248.667,483.833 247.167,482.333 246,480.5C 245.5,453.835 245.333,427.169 245.5,400.5C 224.167,400.5 202.833,400.5 181.5,400.5C 181.976,420.925 181.476,441.259 180,461.5C 178.363,463.81 176.196,465.31 173.5,466C 149.833,466.667 126.167,466.667 102.5,466C 100.413,465.208 98.5793,464.041 97,462.5C 95.5232,441.925 95.0232,421.259 95.5,400.5C 79.1633,400.667 62.8299,400.5 46.5,400C 44.714,399.215 43.214,398.049 42,396.5C 40.3563,375.256 40.023,353.922 41,332.5C 41.8333,329 44,326.833 47.5,326C 57.8333,325.833 68.1667,325.667 78.5,325.5C 89.5934,325.354 100.593,325.854 111.5,327C 114.268,328.762 115.768,331.262 116,334.5C 116.5,349.83 116.667,365.163 116.5,380.5C 131.167,380.5 145.833,380.5 160.5,380.5C 160.333,354.498 160.5,328.498 161,302.5C 161.786,299.417 163.619,297.251 166.5,296C 197.833,295.333 229.167,295.333 260.5,296C 263.663,297.48 265.496,299.98 266,303.5C 266.167,328.84 266.667,354.173 267.5,379.5C 325.195,370.418 361.695,337.752 377,281.5C 385.047,236.161 373.214,196.995 341.5,164C 306.33,134.543 266.33,125.209 221.5,136C 175.548,150.952 146.381,181.785 134,228.5C 132.314,239.126 130.981,249.793 130,260.5C 128.5,262 127,263.5 125.5,265C 94.1667,265.667 62.8333,265.667 31.5,265C 29.3762,263.878 27.5429,262.378 26,260.5C 26.179,173.625 62.3456,106.458 134.5,59C 165.395,40.3128 198.729,29.1461 234.5,25.5 Z"/></g>
<g><path style="opacity:1" fill="#007ffe" d="M 244.5,45.5 C 337.455,44.032 404.955,84.3653 447,166.5C 474.348,233.087 471.015,298.087 437,361.5C 397.493,424.759 340.326,459.426 265.5,465.5C 265.5,443.5 265.5,421.5 265.5,399.5C 328.343,392.516 370.843,359.516 393,300.5C 408.427,247.634 398.76,199.968 364,157.5C 330.746,123.52 290.246,108.02 242.5,111C 180.81,119.688 138.977,153.188 117,211.5C 113.295,222.525 111.462,233.859 111.5,245.5C 89.5,245.5 67.5,245.5 45.5,245.5C 52.6766,162.87 93.01,102.703 166.5,65C 191.44,53.6876 217.44,47.1876 244.5,45.5 Z"/></g>
<g><path style="opacity:1" fill="#007ffe" d="M 180.5,315.5 C 202.167,315.5 223.833,315.5 245.5,315.5C 245.5,337.167 245.5,358.833 245.5,380.5C 223.833,380.5 202.167,380.5 180.5,380.5C 180.5,358.833 180.5,337.167 180.5,315.5 Z"/></g>
<g><path style="opacity:1" fill="#007ffd" d="M 60.5,345.5 C 72.1667,345.5 83.8333,345.5 95.5,345.5C 95.5,357.167 95.5,368.833 95.5,380.5C 83.8333,380.5 72.1667,380.5 60.5,380.5C 60.5,368.833 60.5,357.167 60.5,345.5 Z"/></g>
<g><path style="opacity:1" fill="#007ffe" d="M 115.5,400.5 C 130.5,400.5 145.5,400.5 160.5,400.5C 160.5,415.5 160.5,430.5 160.5,445.5C 145.5,445.5 130.5,445.5 115.5,445.5C 115.5,430.5 115.5,415.5 115.5,400.5 Z"/></g>
</svg>
