<?xml version="1.0" encoding="UTF-8"?>
<!DOCTYPE svg PUBLIC "-//W3C//DTD SVG 1.1//EN" "http://www.w3.org/Graphics/SVG/1.1/DTD/svg11.dtd">
<svg xmlns="http://www.w3.org/2000/svg" version="1.1" width="512px" height="512px" style="shape-rendering:geometricPrecision; text-rendering:geometricPrecision; image-rendering:optimizeQuality; fill-rule:evenodd; clip-rule:evenodd" xmlns:xlink="http://www.w3.org/1999/xlink">
<g><path style="opacity:0.993" fill="#4c575c" d="M 270.5,63.5 C 267.439,70.6214 264.106,77.6214 260.5,84.5C 251.833,84.5 243.167,84.5 234.5,84.5C 234.5,98.8333 234.5,113.167 234.5,127.5C 236.5,127.5 238.5,127.5 240.5,127.5C 231.681,146.474 222.847,165.474 214,184.5C 213.814,187.036 213.314,189.369 212.5,191.5C 212.5,177.167 212.5,162.833 212.5,148.5C 201.833,148.5 191.167,148.5 180.5,148.5C 183.833,141.5 187.167,134.5 190.5,127.5C 197.833,127.5 205.167,127.5 212.5,127.5C 212.333,108.497 212.5,89.4971 213,70.5C 213.786,67.4173 215.619,65.2506 218.5,64C 235.83,63.5001 253.163,63.3334 270.5,63.5 Z"/></g>
<g><path style="opacity:1" fill="#59aff4" d="M 260.5,84.5 C 265.833,84.5 271.167,84.5 276.5,84.5C 276.5,98.8333 276.5,113.167 276.5,127.5C 264.5,127.5 252.5,127.5 240.5,127.5C 238.5,127.5 236.5,127.5 234.5,127.5C 234.5,113.167 234.5,98.8333 234.5,84.5C 243.167,84.5 251.833,84.5 260.5,84.5 Z"/></g>
<g><path style="opacity:0.995" fill="#545e63" d="M 149.5,127.5 C 146.779,134.61 143.779,141.61 140.5,148.5C 129.167,148.5 117.833,148.5 106.5,148.5C 106.5,162.833 106.5,177.167 106.5,191.5C 111.167,191.5 115.833,191.5 120.5,191.5C 116.894,198.379 113.561,205.379 110.5,212.5C 109.167,212.5 107.833,212.5 106.5,212.5C 106.5,226.833 106.5,241.167 106.5,255.5C 105.67,245.341 105.17,235.008 105,224.5C 97.0925,241.98 88.9259,259.314 80.5,276.5C 67.1667,276.5 53.8333,276.5 40.5,276.5C 43.5605,269.379 46.8938,262.379 50.5,255.5C 61.8333,255.5 73.1667,255.5 84.5,255.5C 84.5,241.167 84.5,226.833 84.5,212.5C 79.8333,212.5 75.1667,212.5 70.5,212.5C 73.7729,205.62 76.7729,198.62 79.5,191.5C 81.1667,191.5 82.8333,191.5 84.5,191.5C 84.3334,172.497 84.5001,153.497 85,134.5C 85.7922,132.413 86.9588,130.579 88.5,129C 108.741,127.524 129.075,127.024 149.5,127.5 Z"/></g>
<g><path style="opacity:0.994" fill="#424d53" d="M 298.5,134.5 C 298.5,153.5 298.5,172.5 298.5,191.5C 317.836,191.333 337.17,191.5 356.5,192C 357.942,192.377 358.942,193.21 359.5,194.5C 354.233,207.704 348.4,220.704 342,233.5C 341.829,241.011 341.329,248.345 340.5,255.5C 340.5,241.167 340.5,226.833 340.5,212.5C 326.5,212.5 312.5,212.5 298.5,212.5C 298.5,226.833 298.5,241.167 298.5,255.5C 309.5,255.5 320.5,255.5 331.5,255.5C 328.225,262.384 325.225,269.384 322.5,276.5C 295.5,276.5 268.5,276.5 241.5,276.5C 244.833,269.5 248.167,262.5 251.5,255.5C 259.833,255.5 268.167,255.5 276.5,255.5C 276.5,241.167 276.5,226.833 276.5,212.5C 274.833,212.5 273.167,212.5 271.5,212.5C 279.986,194.193 288.486,175.86 297,157.5C 297.171,149.656 297.671,141.989 298.5,134.5 Z"/></g>
<g><path style="opacity:1" fill="#60b3f5" d="M 140.5,148.5 C 143.167,148.5 145.833,148.5 148.5,148.5C 148.5,162.833 148.5,177.167 148.5,191.5C 139.167,191.5 129.833,191.5 120.5,191.5C 115.833,191.5 111.167,191.5 106.5,191.5C 106.5,177.167 106.5,162.833 106.5,148.5C 117.833,148.5 129.167,148.5 140.5,148.5 Z"/></g>
<g><path style="opacity:1" fill="#5cb0f4" d="M 180.5,148.5 C 191.167,148.5 201.833,148.5 212.5,148.5C 212.5,162.833 212.5,177.167 212.5,191.5C 211.833,191.5 211.167,191.5 210.5,191.5C 197.167,191.5 183.833,191.5 170.5,191.5C 170.5,177.167 170.5,162.833 170.5,148.5C 173.833,148.5 177.167,148.5 180.5,148.5 Z"/></g>
<g><path style="opacity:0.981" fill="#3b464c" d="M 431.5,191.5 C 428.439,199.288 425.106,206.955 421.5,214.5C 417.612,208.27 412.945,202.604 407.5,197.5C 405.07,202.552 403.57,207.885 403,213.5C 402.931,227.888 402.264,242.221 401,256.5C 396.352,268.074 387.852,274.741 375.5,276.5C 357.833,276.5 340.167,276.5 322.5,276.5C 325.225,269.384 328.225,262.384 331.5,255.5C 334.5,255.5 337.5,255.5 340.5,255.5C 341.329,248.345 341.829,241.011 342,233.5C 348.4,220.704 354.233,207.704 359.5,194.5C 360.558,195.6 361.392,196.934 362,198.5C 362.5,217.497 362.667,236.497 362.5,255.5C 368.572,256.223 374.072,254.889 379,251.5C 379.667,250.167 380.333,248.833 381,247.5C 379.842,232.103 380.509,216.769 383,201.5C 385.316,190.368 390.15,180.535 397.5,172C 401.639,169.144 405.972,168.81 410.5,171C 418.667,176.667 425.667,183.501 431.5,191.5 Z"/></g>
<g><path style="opacity:1" fill="#4e595e" d="M 149.5,127.5 C 163.167,127.5 176.833,127.5 190.5,127.5C 187.167,134.5 183.833,141.5 180.5,148.5C 177.167,148.5 173.833,148.5 170.5,148.5C 170.5,162.833 170.5,177.167 170.5,191.5C 183.833,191.5 197.167,191.5 210.5,191.5C 207.305,198.418 204.305,205.418 201.5,212.5C 191.167,212.5 180.833,212.5 170.5,212.5C 170.5,226.833 170.5,241.167 170.5,255.5C 173.833,255.5 177.167,255.5 180.5,255.5C 177.775,262.616 174.775,269.616 171.5,276.5C 141.167,276.5 110.833,276.5 80.5,276.5C 88.9259,259.314 97.0925,241.98 105,224.5C 105.17,235.008 105.67,245.341 106.5,255.5C 120.5,255.5 134.5,255.5 148.5,255.5C 148.5,241.167 148.5,226.833 148.5,212.5C 135.833,212.5 123.167,212.5 110.5,212.5C 113.561,205.379 116.894,198.379 120.5,191.5C 129.833,191.5 139.167,191.5 148.5,191.5C 148.5,177.167 148.5,162.833 148.5,148.5C 145.833,148.5 143.167,148.5 140.5,148.5C 143.779,141.61 146.779,134.61 149.5,127.5 Z"/></g>
<g><path style="opacity:0.995" fill="#566066" d="M 79.5,191.5 C 76.7729,198.62 73.7729,205.62 70.5,212.5C 61.1667,212.5 51.8333,212.5 42.5,212.5C 42.5,226.833 42.5,241.167 42.5,255.5C 45.1667,255.5 47.8333,255.5 50.5,255.5C 46.8938,262.379 43.5605,269.379 40.5,276.5C 33.9779,276.177 27.6446,276.51 21.5,277.5C 21.5602,288.92 22.5602,300.254 24.5,311.5C 19.9415,320.287 15.6081,329.287 11.5,338.5C 11.0431,339.298 10.3764,339.631 9.5,339.5C 6.99837,333.481 5.16504,327.147 4,320.5C 2.34134,310.71 0.841344,301.044 -0.5,291.5C -0.5,281.5 -0.5,271.5 -0.5,261.5C 0.977392,259.193 2.97739,257.36 5.5,256C 10.4889,255.501 15.4889,255.334 20.5,255.5C 20.3334,236.497 20.5001,217.497 21,198.5C 21.786,195.417 23.6193,193.251 26.5,192C 44.1635,191.5 61.8302,191.333 79.5,191.5 Z"/></g>
<g><path style="opacity:0.984" fill="#354147" d="M 431.5,191.5 C 438.42,199.498 443.42,208.665 446.5,219C 460.359,218.254 473.692,220.421 486.5,225.5C 483.914,231.839 480.914,238.006 477.5,244C 478.056,244.383 478.389,244.883 478.5,245.5C 470.776,242.594 462.776,240.927 454.5,240.5C 447.473,241.847 440.473,243.18 433.5,244.5C 430.155,243.32 427.989,240.987 427,237.5C 426.889,229.389 425.055,221.722 421.5,214.5C 425.106,206.955 428.439,199.288 431.5,191.5 Z"/></g>
<g><path style="opacity:1" fill="#63b4f5" d="M 70.5,212.5 C 75.1667,212.5 79.8333,212.5 84.5,212.5C 84.5,226.833 84.5,241.167 84.5,255.5C 73.1667,255.5 61.8333,255.5 50.5,255.5C 47.8333,255.5 45.1667,255.5 42.5,255.5C 42.5,241.167 42.5,226.833 42.5,212.5C 51.8333,212.5 61.1667,212.5 70.5,212.5 Z"/></g>
<g><path style="opacity:1" fill="#5eb1f5" d="M 110.5,212.5 C 123.167,212.5 135.833,212.5 148.5,212.5C 148.5,226.833 148.5,241.167 148.5,255.5C 134.5,255.5 120.5,255.5 106.5,255.5C 106.5,241.167 106.5,226.833 106.5,212.5C 107.833,212.5 109.167,212.5 110.5,212.5 Z"/></g>
<g><path style="opacity:1" fill="#59aff4" d="M 201.5,212.5 C 205.167,212.5 208.833,212.5 212.5,212.5C 212.5,226.833 212.5,241.167 212.5,255.5C 201.833,255.5 191.167,255.5 180.5,255.5C 177.167,255.5 173.833,255.5 170.5,255.5C 170.5,241.167 170.5,226.833 170.5,212.5C 180.833,212.5 191.167,212.5 201.5,212.5 Z"/></g>
<g><path style="opacity:1" fill="#55adf4" d="M 271.5,212.5 C 273.167,212.5 274.833,212.5 276.5,212.5C 276.5,226.833 276.5,241.167 276.5,255.5C 268.167,255.5 259.833,255.5 251.5,255.5C 245.833,255.5 240.167,255.5 234.5,255.5C 234.5,241.167 234.5,226.833 234.5,212.5C 246.833,212.5 259.167,212.5 271.5,212.5 Z"/></g>
<g><path style="opacity:1" fill="#50abf4" d="M 340.5,255.5 C 337.5,255.5 334.5,255.5 331.5,255.5C 320.5,255.5 309.5,255.5 298.5,255.5C 298.5,241.167 298.5,226.833 298.5,212.5C 312.5,212.5 326.5,212.5 340.5,212.5C 340.5,226.833 340.5,241.167 340.5,255.5 Z"/></g>
<g><path style="opacity:0.987" fill="#313d43" d="M 486.5,225.5 C 495.942,228.383 504.275,233.049 511.5,239.5C 511.5,242.833 511.5,246.167 511.5,249.5C 497.724,269.932 479.058,283.932 455.5,291.5C 460.711,281.745 465.378,271.745 469.5,261.5C 474.398,258.104 478.898,254.104 483,249.5C 482.475,247.426 480.975,246.093 478.5,245.5C 478.389,244.883 478.056,244.383 477.5,244C 480.914,238.006 483.914,231.839 486.5,225.5 Z"/></g>
<g><path style="opacity:1" fill="#475258" d="M 270.5,63.5 C 277.841,63.3337 285.174,63.5003 292.5,64C 295.381,65.2506 297.214,67.4173 298,70.5C 298.5,91.8307 298.667,113.164 298.5,134.5C 297.671,141.989 297.171,149.656 297,157.5C 288.486,175.86 279.986,194.193 271.5,212.5C 259.167,212.5 246.833,212.5 234.5,212.5C 234.5,226.833 234.5,241.167 234.5,255.5C 240.167,255.5 245.833,255.5 251.5,255.5C 248.167,262.5 244.833,269.5 241.5,276.5C 218.167,276.5 194.833,276.5 171.5,276.5C 174.775,269.616 177.775,262.616 180.5,255.5C 191.167,255.5 201.833,255.5 212.5,255.5C 212.5,241.167 212.5,226.833 212.5,212.5C 208.833,212.5 205.167,212.5 201.5,212.5C 204.305,205.418 207.305,198.418 210.5,191.5C 211.167,191.5 211.833,191.5 212.5,191.5C 213.314,189.369 213.814,187.036 214,184.5C 222.847,165.474 231.681,146.474 240.5,127.5C 252.5,127.5 264.5,127.5 276.5,127.5C 276.5,113.167 276.5,98.8333 276.5,84.5C 271.167,84.5 265.833,84.5 260.5,84.5C 264.106,77.6214 267.439,70.6214 270.5,63.5 Z"/></g>
<g><path style="opacity:1" fill="#57aef4" d="M 234.5,148.5 C 248.5,148.5 262.5,148.5 276.5,148.5C 276.5,162.833 276.5,177.167 276.5,191.5C 262.5,191.5 248.5,191.5 234.5,191.5C 234.5,177.167 234.5,162.833 234.5,148.5 Z"/></g>
<g><path style="opacity:1" fill="#4197dc" d="M 478.5,245.5 C 480.975,246.093 482.475,247.426 483,249.5C 478.898,254.104 474.398,258.104 469.5,261.5C 454.911,269.752 439.244,274.918 422.5,277C 421,278.5 419.5,280 418,281.5C 410.155,296.532 400.822,310.532 390,323.5C 378.3,336.366 366.134,348.699 353.5,360.5C 344.355,367.907 334.689,374.574 324.5,380.5C 332.542,362.08 340.875,343.747 349.5,325.5C 349.376,324.893 349.043,324.56 348.5,324.5C 366.603,308.231 383.937,291.064 400.5,273C 411.397,263.261 422.397,253.761 433.5,244.5C 440.473,243.18 447.473,241.847 454.5,240.5C 462.776,240.927 470.776,242.594 478.5,245.5 Z"/></g>
<g><path style="opacity:0.977" fill="#354248" d="M 469.5,261.5 C 465.378,271.745 460.711,281.745 455.5,291.5C 448.663,293.96 441.663,295.96 434.5,297.5C 409.598,339.401 376.598,373.401 335.5,399.5C 341.229,386.376 347.229,373.376 353.5,360.5C 366.134,348.699 378.3,336.366 390,323.5C 400.822,310.532 410.155,296.532 418,281.5C 419.5,280 421,278.5 422.5,277C 439.244,274.918 454.911,269.752 469.5,261.5 Z"/></g>
<g><path style="opacity:1" fill="#4daaf5" d="M 421.5,214.5 C 425.055,221.722 426.889,229.389 427,237.5C 427.989,240.987 430.155,243.32 433.5,244.5C 422.397,253.761 411.397,263.261 400.5,273C 383.937,291.064 366.603,308.231 348.5,324.5C 317.465,350.19 282.465,368.856 243.5,380.5C 259.227,346.046 275.227,311.713 291.5,277.5C 319.672,277.831 347.672,277.498 375.5,276.5C 387.852,274.741 396.352,268.074 401,256.5C 402.264,242.221 402.931,227.888 403,213.5C 403.57,207.885 405.07,202.552 407.5,197.5C 412.945,202.604 417.612,208.27 421.5,214.5 Z"/></g>
<g><path style="opacity:1" fill="#60b3f6" d="M 21.5,277.5 C 54.5017,277.333 87.5017,277.5 120.5,278C 113.479,291.541 107.145,305.375 101.5,319.5C 88.1908,325.452 83.5241,335.452 87.5,349.5C 82.8504,358.799 78.1838,368.132 73.5,377.5C 60.3553,370.668 48.3553,362.334 37.5,352.5C 31.7655,339.296 27.4322,325.629 24.5,311.5C 22.5602,300.254 21.5602,288.92 21.5,277.5 Z"/></g>
<g><path style="opacity:1" fill="#59aff3" d="M 21.5,277.5 C 27.6446,276.51 33.9779,276.177 40.5,276.5C 53.8333,276.5 67.1667,276.5 80.5,276.5C 110.833,276.5 141.167,276.5 171.5,276.5C 194.833,276.5 218.167,276.5 241.5,276.5C 268.5,276.5 295.5,276.5 322.5,276.5C 340.167,276.5 357.833,276.5 375.5,276.5C 347.672,277.498 319.672,277.831 291.5,277.5C 271.167,277.5 250.833,277.5 230.5,277.5C 220.478,277.168 210.478,277.501 200.5,278.5C 182.542,316.746 164.875,355.079 147.5,393.5C 144.5,393.5 141.5,393.5 138.5,393.5C 115.727,392.39 94.0601,387.056 73.5,377.5C 78.1838,368.132 82.8504,358.799 87.5,349.5C 94.8385,361.816 105.172,364.982 118.5,359C 129.475,350.076 131.308,339.576 124,327.5C 117.838,321.168 110.338,318.501 101.5,319.5C 107.145,305.375 113.479,291.541 120.5,278C 87.5017,277.5 54.5017,277.333 21.5,277.5 Z"/></g>
<g><path style="opacity:1" fill="#56aef5" d="M 230.5,277.5 C 213.247,315.84 195.58,354.007 177.5,392C 179.134,392.494 180.801,392.66 182.5,392.5C 170.7,394.016 158.7,394.682 146.5,394.5C 143.615,394.806 140.948,394.473 138.5,393.5C 141.5,393.5 144.5,393.5 147.5,393.5C 164.875,355.079 182.542,316.746 200.5,278.5C 210.478,277.501 220.478,277.168 230.5,277.5 Z"/></g>
<g><path style="opacity:1" fill="#53adf5" d="M 230.5,277.5 C 250.833,277.5 271.167,277.5 291.5,277.5C 275.227,311.713 259.227,346.046 243.5,380.5C 243.5,381.167 243.167,381.5 242.5,381.5C 222.892,387.207 202.892,390.873 182.5,392.5C 180.801,392.66 179.134,392.494 177.5,392C 195.58,354.007 213.247,315.84 230.5,277.5 Z"/></g>
<g><path style="opacity:1" fill="#4e595f" d="M 101.5,319.5 C 110.338,318.501 117.838,321.168 124,327.5C 131.308,339.576 129.475,350.076 118.5,359C 105.172,364.982 94.8385,361.816 87.5,349.5C 83.5241,335.452 88.1908,325.452 101.5,319.5 Z"/></g>
<g><path style="opacity:1" fill="#479add" d="M 348.5,324.5 C 349.043,324.56 349.376,324.893 349.5,325.5C 340.875,343.747 332.542,362.08 324.5,380.5C 304.157,394.337 282.157,405.004 258.5,412.5C 247.704,415.949 236.704,418.616 225.5,420.5C 225.062,420.565 224.728,420.399 224.5,420C 230.913,407.341 236.913,394.508 242.5,381.5C 243.167,381.5 243.5,381.167 243.5,380.5C 282.465,368.856 317.465,350.19 348.5,324.5 Z"/></g>
<g><path style="opacity:1" fill="#fafbfb" d="M 112.5,328.5 C 122.818,328.322 125.151,332.489 119.5,341C 109.102,341.471 106.768,337.305 112.5,328.5 Z"/></g>
<g><path style="opacity:0.992" fill="#525c61" d="M 24.5,311.5 C 27.4322,325.629 31.7655,339.296 37.5,352.5C 44.8116,368.119 54.8116,381.786 67.5,393.5C 63.7502,398.661 60.7502,404.328 58.5,410.5C 58.0431,411.298 57.3764,411.631 56.5,411.5C 32.8725,392.84 17.2059,368.84 9.5,339.5C 10.3764,339.631 11.0431,339.298 11.5,338.5C 15.6081,329.287 19.9415,320.287 24.5,311.5 Z"/></g>
<g><path style="opacity:0.982" fill="#3b464d" d="M 353.5,360.5 C 347.229,373.376 341.229,386.376 335.5,399.5C 308.678,417.072 279.678,430.072 248.5,438.5C 248.196,437.85 247.863,437.183 247.5,436.5C 251.181,428.474 254.848,420.474 258.5,412.5C 282.157,405.004 304.157,394.337 324.5,380.5C 334.689,374.574 344.355,367.907 353.5,360.5 Z"/></g>
<g><path style="opacity:1" fill="#4e9dde" d="M 242.5,381.5 C 236.913,394.508 230.913,407.341 224.5,420C 224.728,420.399 225.062,420.565 225.5,420.5C 207.871,424.59 189.871,426.59 171.5,426.5C 159.677,426.75 148.01,425.75 136.5,423.5C 135.602,422.842 134.602,422.176 133.5,421.5C 138.032,412.556 142.365,403.556 146.5,394.5C 158.7,394.682 170.7,394.016 182.5,392.5C 202.892,390.873 222.892,387.207 242.5,381.5 Z"/></g>
<g><path style="opacity:1" fill="#54a1df" d="M 37.5,352.5 C 48.3553,362.334 60.3553,370.668 73.5,377.5C 94.0601,387.056 115.727,392.39 138.5,393.5C 140.948,394.473 143.615,394.806 146.5,394.5C 142.365,403.556 138.032,412.556 133.5,421.5C 134.602,422.176 135.602,422.842 136.5,423.5C 126.633,421.95 116.966,419.616 107.5,416.5C 93.1796,410.505 79.8463,402.838 67.5,393.5C 54.8116,381.786 44.8116,368.119 37.5,352.5 Z"/></g>
<g><path style="opacity:0.984" fill="#4c565c" d="M 67.5,393.5 C 79.8463,402.838 93.1796,410.505 107.5,416.5C 106.624,416.369 105.957,416.702 105.5,417.5C 102.634,423.441 99.9669,429.441 97.5,435.5C 82.3835,429.782 68.7168,421.782 56.5,411.5C 57.3764,411.631 58.0431,411.298 58.5,410.5C 60.7502,404.328 63.7502,398.661 67.5,393.5 Z"/></g>
<g><path style="opacity:0.988" fill="#414d52" d="M 258.5,412.5 C 254.848,420.474 251.181,428.474 247.5,436.5C 247.863,437.183 248.196,437.85 248.5,438.5C 219.942,445.642 190.942,448.642 161.5,447.5C 165.09,440.652 168.423,433.652 171.5,426.5C 189.871,426.59 207.871,424.59 225.5,420.5C 236.704,418.616 247.704,415.949 258.5,412.5 Z"/></g>
<g><path style="opacity:0.98" fill="#475157" d="M 107.5,416.5 C 116.966,419.616 126.633,421.95 136.5,423.5C 148.01,425.75 159.677,426.75 171.5,426.5C 168.423,433.652 165.09,440.652 161.5,447.5C 139.447,447.158 118.113,443.158 97.5,435.5C 99.9669,429.441 102.634,423.441 105.5,417.5C 105.957,416.702 106.624,416.369 107.5,416.5 Z"/></g>
</svg>
