<?xml version="1.0" encoding="UTF-8"?>
<!DOCTYPE svg PUBLIC "-//W3C//DTD SVG 1.1//EN" "http://www.w3.org/Graphics/SVG/1.1/DTD/svg11.dtd">
<svg xmlns="http://www.w3.org/2000/svg" version="1.1" width="280px" height="280px" style="shape-rendering:geometricPrecision; text-rendering:geometricPrecision; image-rendering:optimizeQuality; fill-rule:evenodd; clip-rule:evenodd" xmlns:xlink="http://www.w3.org/1999/xlink">
<g><path style="opacity:0.959" fill="#1f84f8" d="M 48.5,-0.5 C 54.5,-0.5 60.5,-0.5 66.5,-0.5C 97.893,6.08091 114.56,25.5809 116.5,58C 113.868,93.465 94.8682,112.965 59.5,116.5C 62.2463,127.747 69.2463,134.914 80.5,138C 84.8206,138.499 89.1539,138.666 93.5,138.5C 97.97,116.538 111.47,105.204 134,104.5C 155.88,105.856 169.38,117.189 174.5,138.5C 182.472,139.498 190.472,139.831 198.5,139.5C 202.509,116.998 216.009,105.331 239,104.5C 260.508,105.855 274.008,116.855 279.5,137.5C 279.5,142.5 279.5,147.5 279.5,152.5C 274.454,173.898 260.788,185.232 238.5,186.5C 221.522,186.096 209.022,178.429 201,163.5C 199.261,159.689 198.428,155.689 198.5,151.5C 190.493,151.334 182.493,151.5 174.5,152C 169.638,173.788 155.971,185.288 133.5,186.5C 116.522,186.096 104.022,178.429 96,163.5C 94.2613,159.689 93.428,155.689 93.5,151.5C 80.6123,153.065 69.279,149.732 59.5,141.5C 58.3336,162.159 58.1669,182.825 59,203.5C 63.3261,221.657 74.8261,231.323 93.5,232.5C 96.558,212.941 107.891,201.441 127.5,198C 156.448,196.618 172.115,210.285 174.5,239C 173.145,260.508 162.145,274.008 141.5,279.5C 136.5,279.5 131.5,279.5 126.5,279.5C 107.479,275.472 96.4787,263.806 93.5,244.5C 70.1524,243.756 54.6524,232.422 47,210.5C 45.5616,178.862 45.0616,147.196 45.5,115.5C 19.8961,108.509 4.56278,92.1755 -0.5,66.5C -0.5,60.5 -0.5,54.5 -0.5,48.5C 5.16667,21.5 21.5,5.16667 48.5,-0.5 Z M 52.5,11.5 C 83.2263,12.0611 100.56,27.5611 104.5,58C 102.788,76.772 93.7884,90.772 77.5,100C 46.9145,109.7 25.4145,99.8666 13,70.5C 8.75674,38.9476 21.9234,19.2809 52.5,11.5 Z M 46.5,40.5 C 55.9168,46.0598 65.2501,51.8932 74.5,58C 65.4751,64.2283 56.1418,69.7283 46.5,74.5C 46.5,63.1667 46.5,51.8333 46.5,40.5 Z M 129.5,116.5 C 153.688,117.852 164.188,130.519 161,154.5C 150.824,173.92 135.991,178.586 116.5,168.5C 100.162,151.99 100.829,136.157 118.5,121C 122.023,118.897 125.689,117.397 129.5,116.5 Z M 234.5,116.5 C 258.688,117.852 269.188,130.519 266,154.5C 255.824,173.92 240.991,178.586 221.5,168.5C 205.162,151.99 205.829,136.157 223.5,121C 227.023,118.897 230.689,117.397 234.5,116.5 Z M 132.5,209.5 C 154.793,212.621 164.293,225.288 161,247.5C 150.938,267.541 136.105,272.208 116.5,261.5C 103.752,249.762 101.752,236.429 110.5,221.5C 113.344,219.155 116.01,216.655 118.5,214C 123.1,212.055 127.766,210.555 132.5,209.5 Z"/></g>
<g><path style="opacity:0.966" fill="#1f85f9" d="M 42.5,27.5 C 45.1873,27.3359 47.854,27.5026 50.5,28C 60.8333,34.1667 71.1667,40.3333 81.5,46.5C 87.141,51.2267 88.8077,57.2267 86.5,64.5C 85.6184,65.7598 84.6184,66.9264 83.5,68C 74.0147,72.9344 65.0147,78.6011 56.5,85C 51.1845,88.7061 45.5179,89.3728 39.5,87C 37.1898,85.3626 35.6898,83.196 35,80.5C 34.3333,65.5 34.3333,50.5 35,35.5C 36.3532,31.6499 38.8532,28.9832 42.5,27.5 Z M 46.5,40.5 C 46.5,51.8333 46.5,63.1667 46.5,74.5C 56.1418,69.7283 65.4751,64.2283 74.5,58C 65.2501,51.8932 55.9168,46.0598 46.5,40.5 Z"/></g>
<g><path style="opacity:0.956" fill="#1e82f3" d="M 142.5,130.5 C 151.241,130.428 153.741,134.428 150,142.5C 144.136,148.699 137.969,154.532 131.5,160C 128.833,162 126.167,162 123.5,160C 120,156.5 116.5,153 113,149.5C 112.003,142.167 115.17,139.334 122.5,141C 124.043,142.878 125.876,144.378 128,145.5C 133.037,140.631 137.87,135.631 142.5,130.5 Z"/></g>
<g><path style="opacity:0.956" fill="#1e82f3" d="M 247.5,130.5 C 256.241,130.428 258.741,134.428 255,142.5C 249.136,148.699 242.969,154.532 236.5,160C 233.833,162 231.167,162 228.5,160C 225,156.5 221.5,153 218,149.5C 217.003,142.167 220.17,139.334 227.5,141C 229.043,142.878 230.876,144.378 233,145.5C 238.037,140.631 242.87,135.631 247.5,130.5 Z"/></g>
<g><path style="opacity:0.959" fill="#75b3f8" d="M 279.5,231.5 C 279.5,236.5 279.5,241.5 279.5,246.5C 275.167,264.167 264.167,275.167 246.5,279.5C 241.5,279.5 236.5,279.5 231.5,279.5C 212.583,275.421 201.416,263.754 198,244.5C 191.69,247.137 187.523,245.304 185.5,239C 185.615,237.105 186.282,235.438 187.5,234C 191.026,232.663 194.692,232.163 198.5,232.5C 200.248,218.192 207.582,207.692 220.5,201C 242.31,193.09 260.144,198.257 274,216.5C 276.454,221.382 278.287,226.382 279.5,231.5 Z M 237.5,209.5 C 259.793,212.621 269.293,225.288 266,247.5C 255.938,267.541 241.105,272.208 221.5,261.5C 208.752,249.762 206.752,236.429 215.5,221.5C 218.344,219.155 221.01,216.655 223.5,214C 228.1,212.055 232.766,210.555 237.5,209.5 Z"/></g>
<g><path style="opacity:0.905" fill="#74b1f6" d="M 125.5,233.5 C 125.833,234.5 126.5,235.167 127.5,235.5C 129.767,240.961 127.934,243.961 122,244.5C 119.979,244.327 118.146,243.66 116.5,242.5C 115.423,239.526 115.423,236.526 116.5,233.5C 119.556,232.412 122.556,232.412 125.5,233.5 Z"/></g>
<g><path style="opacity:0.928" fill="#73b0f4" d="M 142.5,232.5 C 151.171,232.178 153.504,235.845 149.5,243.5C 144.258,245.743 140.591,244.243 138.5,239C 139.219,236.383 140.553,234.216 142.5,232.5 Z"/></g>
<g><path style="opacity:0.016" fill="#2c445e" d="M 125.5,233.5 C 126.833,233.5 127.5,234.167 127.5,235.5C 126.5,235.167 125.833,234.5 125.5,233.5 Z"/></g>
</svg>
