<?xml version="1.0" encoding="UTF-8"?>
<!DOCTYPE svg PUBLIC "-//W3C//DTD SVG 1.1//EN" "http://www.w3.org/Graphics/SVG/1.1/DTD/svg11.dtd">
<svg xmlns="http://www.w3.org/2000/svg" version="1.1" width="299px" height="168px" style="shape-rendering:geometricPrecision; text-rendering:geometricPrecision; image-rendering:optimizeQuality; fill-rule:evenodd; clip-rule:evenodd" xmlns:xlink="http://www.w3.org/1999/xlink">
<g><path style="opacity:1" fill="#1f2126" d="M -0.5,-0.5 C 99.1667,-0.5 198.833,-0.5 298.5,-0.5C 298.5,26.5 298.5,53.5 298.5,80.5C 298.008,75.1778 295.008,72.3445 289.5,72C 286.877,68.588 284.377,65.088 282,61.5C 283.217,57.8426 284.383,54.0093 285.5,50C 282.489,37.6571 274.823,33.3238 262.5,37C 252.227,45.338 251.894,54.0046 261.5,63C 258.286,67.9261 255.452,73.0927 253,78.5C 249.384,80.8344 245.717,83.1677 242,85.5C 240.872,87.3453 240.372,89.3453 240.5,91.5C 233.437,92.5105 226.437,93.8438 219.5,95.5C 218.071,94.065 216.405,93.065 214.5,92.5C 211.623,93.0985 209.29,94.4319 207.5,96.5C 206.833,95.1667 206.167,93.8333 205.5,92.5C 205.277,88.8379 204.277,85.5046 202.5,82.5C 202.233,80.0347 201.566,77.7014 200.5,75.5C 199.188,72.1188 198.188,68.6188 197.5,65C 197.164,63.9701 196.497,63.4701 195.5,63.5C 195.322,60.7835 194.822,58.1168 194,55.5C 193.8,53.6803 192.966,52.347 191.5,51.5C 191.753,47.5854 191.087,43.9187 189.5,40.5C 190.461,37.5739 191.127,34.5739 191.5,31.5C 189.179,31.2289 187.179,31.8955 185.5,33.5C 183.781,30.9516 182.448,31.285 181.5,34.5C 180.281,33.7366 179.281,32.7366 178.5,31.5C 179.354,36.7263 179.354,42.0596 178.5,47.5C 178.982,50.8306 177.982,53.4973 175.5,55.5C 175.5,54.5 175.5,53.5 175.5,52.5C 166.833,51.1667 163.167,54.8333 164.5,63.5C 152.188,64.5617 139.855,64.7283 127.5,64C 125.015,62.7773 124.848,61.2773 127,59.5C 127.667,56.8333 127.667,54.1667 127,51.5C 125.517,55.4351 124.351,59.4351 123.5,63.5C 120.658,58.6344 118.991,53.3011 118.5,47.5C 120.085,49.8307 121.251,52.4974 122,55.5C 122.995,51.8403 124.829,48.6736 127.5,46C 126.883,44.1587 126.883,42.1587 127.5,40C 125.952,37.2802 124.619,34.4469 123.5,31.5C 122.167,31.5 120.833,31.5 119.5,31.5C 120.241,35.2923 121.241,38.9589 122.5,42.5C 121.325,42.719 120.325,42.3857 119.5,41.5C 117.978,35.6375 114.311,32.3041 108.5,31.5C 106.5,38.1667 104.5,38.1667 102.5,31.5C 101.5,31.5 100.5,31.5 99.5,31.5C 101.071,34.3155 102.404,37.3155 103.5,40.5C 103.333,41.1667 103.167,41.8333 103,42.5C 101.015,40.5434 99.5152,38.2101 98.5,35.5C 97.3966,37.954 97.73,40.2873 99.5,42.5C 99.2668,43.9317 98.6001,44.4317 97.5,44C 96.8095,42.9326 96.3095,41.7659 96,40.5C 96.3712,45.6864 96.2045,50.8531 95.5,56C 95.8333,57.1667 96.1667,58.3333 96.5,59.5C 97.1235,57.0339 97.9568,54.7006 99,52.5C 100.337,56.0257 100.837,59.6924 100.5,63.5C 98.7234,66.5046 97.7234,69.8379 97.5,73.5C 97.5,73.8333 97.5,74.1667 97.5,74.5C 95.7868,75.6354 95.1201,77.302 95.5,79.5C 92.9282,85.2153 90.9282,91.2153 89.5,97.5C 87.1859,98.8214 84.8525,98.8214 82.5,97.5C 77.4347,98.6317 75.768,101.632 77.5,106.5C 75.2922,110.417 72.9589,114.25 70.5,118C 65.3473,116.899 60.0139,116.232 54.5,116C 50.768,110.594 47.4347,104.927 44.5,99C 52.3503,92.9561 52.3503,86.9561 44.5,81C 38.9611,79.605 34.6277,81.2717 31.5,86C 24.4479,85.8259 17.4479,84.9926 10.5,83.5C 8.56745,76.7647 4.90079,75.7647 -0.5,80.5C -0.5,53.5 -0.5,26.5 -0.5,-0.5 Z"/></g>
<g><path style="opacity:1" fill="#2d1e1d" d="M 189.5,40.5 C 188.655,39.3285 187.989,37.9952 187.5,36.5C 186.796,34.6558 185.463,34.1558 183.5,35C 182.62,36.3561 182.286,37.8561 182.5,39.5C 180.903,41.8478 179.903,44.5145 179.5,47.5C 179.167,47.5 178.833,47.5 178.5,47.5C 179.354,42.0596 179.354,36.7263 178.5,31.5C 179.281,32.7366 180.281,33.7366 181.5,34.5C 182.448,31.285 183.781,30.9516 185.5,33.5C 187.179,31.8955 189.179,31.2289 191.5,31.5C 191.127,34.5739 190.461,37.5739 189.5,40.5 Z"/></g>
<g><path style="opacity:1" fill="#a35249" d="M 187.5,36.5 C 186.577,35.6971 185.577,35.5304 184.5,36C 183.915,37.3024 183.249,38.469 182.5,39.5C 182.286,37.8561 182.62,36.3561 183.5,35C 185.463,34.1558 186.796,34.6558 187.5,36.5 Z"/></g>
<g><path style="opacity:1" fill="#1f2421" d="M 118.5,47.5 C 117.715,44.5962 116.381,41.9296 114.5,39.5C 114.716,34.4133 112.882,33.4133 109,36.5C 108.392,38.1545 107.892,39.8211 107.5,41.5C 106.28,43.2821 105.614,45.2821 105.5,47.5C 103.547,52.5728 102.214,57.9061 101.5,63.5C 101.167,63.5 100.833,63.5 100.5,63.5C 100.837,59.6924 100.337,56.0257 99,52.5C 97.9568,54.7006 97.1235,57.0339 96.5,59.5C 96.1667,58.3333 95.8333,57.1667 95.5,56C 96.2045,50.8531 96.3712,45.6864 96,40.5C 96.3095,41.7659 96.8095,42.9326 97.5,44C 98.6001,44.4317 99.2668,43.9317 99.5,42.5C 97.73,40.2873 97.3966,37.954 98.5,35.5C 99.5152,38.2101 101.015,40.5434 103,42.5C 103.167,41.8333 103.333,41.1667 103.5,40.5C 102.404,37.3155 101.071,34.3155 99.5,31.5C 100.5,31.5 101.5,31.5 102.5,31.5C 104.5,38.1667 106.5,38.1667 108.5,31.5C 114.311,32.3041 117.978,35.6375 119.5,41.5C 120.325,42.3857 121.325,42.719 122.5,42.5C 121.241,38.9589 120.241,35.2923 119.5,31.5C 120.833,31.5 122.167,31.5 123.5,31.5C 124.619,34.4469 125.952,37.2802 127.5,40C 126.883,42.1587 126.883,44.1587 127.5,46C 124.829,48.6736 122.995,51.8403 122,55.5C 121.251,52.4974 120.085,49.8307 118.5,47.5 Z"/></g>
<g><path style="opacity:1" fill="#a84f40" d="M 114.5,39.5 C 113.596,38.791 113.263,37.791 113.5,36.5C 112.448,36.3505 111.448,36.5172 110.5,37C 109.947,38.8778 108.947,40.3778 107.5,41.5C 107.892,39.8211 108.392,38.1545 109,36.5C 112.882,33.4133 114.716,34.4133 114.5,39.5 Z"/></g>
<g><path style="opacity:1" fill="#b2493b" d="M 178.5,47.5 C 178.833,47.5 179.167,47.5 179.5,47.5C 179.5,49.5 179.5,51.5 179.5,53.5C 178.675,55.8102 177.342,57.8102 175.5,59.5C 175.5,58.1667 175.5,56.8333 175.5,55.5C 177.982,53.4973 178.982,50.8306 178.5,47.5 Z"/></g>
<g><path style="opacity:1" fill="#e34328" d="M 187.5,36.5 C 187.989,37.9952 188.655,39.3285 189.5,40.5C 191.087,43.9187 191.753,47.5854 191.5,51.5C 191.505,55.5341 191.838,59.5341 192.5,63.5C 190.167,63.5 187.833,63.5 185.5,63.5C 185.662,61.4727 185.495,59.4727 185,57.5C 182.54,58.755 181.373,60.755 181.5,63.5C 180.5,63.5 179.5,63.5 178.5,63.5C 178.616,60.1401 178.949,56.8067 179.5,53.5C 179.5,51.5 179.5,49.5 179.5,47.5C 179.903,44.5145 180.903,41.8478 182.5,39.5C 183.249,38.469 183.915,37.3024 184.5,36C 185.577,35.5304 186.577,35.6971 187.5,36.5 Z"/></g>
<g><path style="opacity:1" fill="#1c2522" d="M 175.5,55.5 C 175.5,56.8333 175.5,58.1667 175.5,59.5C 174.479,63.0124 173.146,66.3458 171.5,69.5C 170.527,71.2501 169.193,72.7501 167.5,74C 154.171,74.4999 140.837,74.6666 127.5,74.5C 126.918,70.468 125.584,66.8013 123.5,63.5C 124.351,59.4351 125.517,55.4351 127,51.5C 127.667,54.1667 127.667,56.8333 127,59.5C 124.848,61.2773 125.015,62.7773 127.5,64C 139.855,64.7283 152.188,64.5617 164.5,63.5C 163.167,54.8333 166.833,51.1667 175.5,52.5C 175.5,53.5 175.5,54.5 175.5,55.5 Z"/></g>
<g><path style="opacity:1" fill="#ad4b3a" d="M 105.5,47.5 C 105.638,53.2972 104.304,58.6305 101.5,63.5C 102.214,57.9061 103.547,52.5728 105.5,47.5 Z"/></g>
<g><path style="opacity:1" fill="#da4531" d="M 191.5,51.5 C 192.966,52.347 193.8,53.6803 194,55.5C 194.822,58.1168 195.322,60.7835 195.5,63.5C 194.057,64.3351 193.057,65.6684 192.5,67.5C 191.614,66.675 191.281,65.675 191.5,64.5C 185.833,64.5 180.167,64.5 174.5,64.5C 174.833,66.5 175.167,68.5 175.5,70.5C 174.5,70.5 173.5,70.5 172.5,70.5C 172.5,72.1667 172.5,73.8333 172.5,75.5C 171.833,75.5 171.167,75.5 170.5,75.5C 171.15,73.5648 171.483,71.5648 171.5,69.5C 173.146,66.3458 174.479,63.0124 175.5,59.5C 177.342,57.8102 178.675,55.8102 179.5,53.5C 178.949,56.8067 178.616,60.1401 178.5,63.5C 179.5,63.5 180.5,63.5 181.5,63.5C 181.373,60.755 182.54,58.755 185,57.5C 185.495,59.4727 185.662,61.4727 185.5,63.5C 187.833,63.5 190.167,63.5 192.5,63.5C 191.838,59.5341 191.505,55.5341 191.5,51.5 Z"/></g>
<g><path style="opacity:1" fill="#e24328" d="M 114.5,39.5 C 115.47,47.8656 117.637,55.8656 121,63.5C 121.333,67.1667 121.667,70.8333 122,74.5C 122.573,67.9633 123.407,67.9633 124.5,74.5C 120.347,75.1657 116.013,75.4991 111.5,75.5C 106.778,75.4921 102.445,74.8255 98.5,73.5C 99.3739,70.2107 100.041,66.8774 100.5,63.5C 100.833,63.5 101.167,63.5 101.5,63.5C 104.304,58.6305 105.638,53.2972 105.5,47.5C 105.614,45.2821 106.28,43.2821 107.5,41.5C 108.947,40.3778 109.947,38.8778 110.5,37C 111.448,36.5172 112.448,36.3505 113.5,36.5C 113.263,37.791 113.596,38.791 114.5,39.5 Z"/></g>
<g><path style="opacity:1" fill="#a53e35" d="M 100.5,63.5 C 100.041,66.8774 99.3739,70.2107 98.5,73.5C 98.1667,73.5 97.8333,73.5 97.5,73.5C 97.7234,69.8379 98.7234,66.5046 100.5,63.5 Z"/></g>
<g><path style="opacity:1" fill="#501b13" d="M 123.5,63.5 C 125.584,66.8013 126.918,70.468 127.5,74.5C 127.5,74.8333 127.5,75.1667 127.5,75.5C 127.167,75.5 126.833,75.5 126.5,75.5C 125.09,71.6033 124.09,67.6033 123.5,63.5 Z"/></g>
<g><path style="opacity:1" fill="#e4422a" d="M 195.5,63.5 C 195.768,66.1194 195.435,68.6194 194.5,71C 195.448,71.4828 196.448,71.6495 197.5,71.5C 197.433,72.9587 197.766,74.2921 198.5,75.5C 189.833,75.5 181.167,75.5 172.5,75.5C 172.5,73.8333 172.5,72.1667 172.5,70.5C 173.5,70.5 174.5,70.5 175.5,70.5C 175.167,68.5 174.833,66.5 174.5,64.5C 180.167,64.5 185.833,64.5 191.5,64.5C 191.281,65.675 191.614,66.675 192.5,67.5C 193.057,65.6684 194.057,64.3351 195.5,63.5 Z"/></g>
<g><path style="opacity:1" fill="#221f2a" d="M 159.5,65.5 C 161.229,66.9527 162.229,68.9527 162.5,71.5C 161.675,72.3857 160.675,72.719 159.5,72.5C 159.5,71.5 159.5,70.5 159.5,69.5C 148.813,69.832 138.146,69.4987 127.5,68.5C 138.532,68.1534 149.198,67.1534 159.5,65.5 Z"/></g>
<g><path style="opacity:1" fill="#c14831" d="M 195.5,63.5 C 196.497,63.4701 197.164,63.9701 197.5,65C 198.188,68.6188 199.188,72.1188 200.5,75.5C 200.167,75.5 199.833,75.5 199.5,75.5C 199.167,75.5 198.833,75.5 198.5,75.5C 197.766,74.2921 197.433,72.9587 197.5,71.5C 196.448,71.6495 195.448,71.4828 194.5,71C 195.435,68.6194 195.768,66.1194 195.5,63.5 Z"/></g>
<g><path style="opacity:1" fill="#cd483a" d="M 114.5,39.5 C 116.381,41.9296 117.715,44.5962 118.5,47.5C 118.991,53.3011 120.658,58.6344 123.5,63.5C 124.09,67.6033 125.09,71.6033 126.5,75.5C 125.833,75.1667 125.167,74.8333 124.5,74.5C 123.407,67.9633 122.573,67.9633 122,74.5C 121.667,70.8333 121.333,67.1667 121,63.5C 117.637,55.8656 115.47,47.8656 114.5,39.5 Z"/></g>
<g><path style="opacity:1" fill="#2a140f" d="M 171.5,69.5 C 171.483,71.5648 171.15,73.5648 170.5,75.5C 169.833,75.5 169.167,75.5 168.5,75.5C 154.833,75.5 141.167,75.5 127.5,75.5C 127.5,75.1667 127.5,74.8333 127.5,74.5C 140.837,74.6666 154.171,74.4999 167.5,74C 169.193,72.7501 170.527,71.2501 171.5,69.5 Z"/></g>
<g><path style="opacity:1" fill="#8c9092" d="M 298.5,80.5 C 298.5,81.5 298.5,82.5 298.5,83.5C 289.325,86.1455 285.158,82.8121 286,73.5C 283.916,69.6641 281.583,65.9974 279,62.5C 274.51,65.5363 269.677,66.203 264.5,64.5C 261.167,70.1667 257.833,75.8333 254.5,81.5C 261.075,87.8257 261.075,93.9924 254.5,100C 251.5,100.667 248.5,100.667 245.5,100C 243.046,98.1709 240.713,96.3376 238.5,94.5C 232.522,95.7742 226.522,96.9409 220.5,98C 219.416,103.023 216.416,104.69 211.5,103C 210.529,101.519 209.196,100.685 207.5,100.5C 207.5,99.1667 207.5,97.8333 207.5,96.5C 209.29,94.4319 211.623,93.0985 214.5,92.5C 216.405,93.065 218.071,94.065 219.5,95.5C 226.437,93.8438 233.437,92.5105 240.5,91.5C 240.372,89.3453 240.872,87.3453 242,85.5C 245.717,83.1677 249.384,80.8344 253,78.5C 255.452,73.0927 258.286,67.9261 261.5,63C 251.894,54.0046 252.227,45.338 262.5,37C 274.823,33.3238 282.489,37.6571 285.5,50C 284.383,54.0093 283.217,57.8426 282,61.5C 284.377,65.088 286.877,68.588 289.5,72C 295.008,72.3445 298.008,75.1778 298.5,80.5 Z"/></g>
<g><path style="opacity:1" fill="#1e2223" d="M 290.5,75.5 C 293.764,75.7264 294.764,77.2264 293.5,80C 289.707,80.4866 288.707,78.9866 290.5,75.5 Z"/></g>
<g><path style="opacity:1" fill="#1e2223" d="M 265.5,38.5 C 277.837,37.6694 283.004,43.336 281,55.5C 273.667,64.8333 266.333,64.8333 259,55.5C 256.788,48.0146 258.954,42.3479 265.5,38.5 Z"/></g>
<g><path style="opacity:1" fill="#1f2226" d="M 298.5,83.5 C 298.5,111.5 298.5,139.5 298.5,167.5C 198.833,167.5 99.1667,167.5 -0.5,167.5C -0.5,140.5 -0.5,113.5 -0.5,86.5C 3.10853,89.0731 6.7752,89.0731 10.5,86.5C 17.146,87.7744 23.8127,88.941 30.5,90C 31.6976,96.2033 35.3643,99.5367 41.5,100C 45.0941,105.855 48.4274,111.855 51.5,118C 43.206,127.014 43.5394,135.681 52.5,144C 60.038,147.91 66.7047,146.744 72.5,140.5C 74.5137,137.643 75.5137,134.476 75.5,131C 74.7581,127.062 73.9247,123.229 73,119.5C 75.4157,116.337 77.5823,113.004 79.5,109.5C 85.1195,109.712 87.9528,107.046 88,101.5C 88.6708,100.748 89.5041,100.414 90.5,100.5C 91.922,101.925 93.5887,102.925 95.5,103.5C 98.5,106.167 101.5,108.833 104.5,111.5C 105.187,115.352 107.521,117.019 111.5,116.5C 116.871,120.179 122.204,123.846 127.5,127.5C 128.663,131.312 131.33,133.312 135.5,133.5C 138.167,135.167 140.833,136.833 143.5,138.5C 143.973,139.906 144.973,140.573 146.5,140.5C 148.435,141.709 150.435,141.542 152.5,140C 170.451,126.202 188.785,113.035 207.5,100.5C 209.196,100.685 210.529,101.519 211.5,103C 216.416,104.69 219.416,103.023 220.5,98C 226.522,96.9409 232.522,95.7742 238.5,94.5C 240.713,96.3376 243.046,98.1709 245.5,100C 248.5,100.667 251.5,100.667 254.5,100C 261.075,93.9924 261.075,87.8257 254.5,81.5C 257.833,75.8333 261.167,70.1667 264.5,64.5C 269.677,66.203 274.51,65.5363 279,62.5C 281.583,65.9974 283.916,69.6641 286,73.5C 285.158,82.8121 289.325,86.1455 298.5,83.5 Z"/></g>
<g><path style="opacity:1" fill="#1d2021" d="M 247.5,84.5 C 254.78,84.062 257.613,87.3954 256,94.5C 252,98.5 248,98.5 244,94.5C 243.333,92.5 243.333,90.5 244,88.5C 245.376,87.2949 246.542,85.9616 247.5,84.5 Z"/></g>
<g><path style="opacity:1" fill="#f7a129" d="M 97.5,74.5 C 97.7553,77.0163 98.5886,79.3496 100,81.5C 103.279,84.7792 106.613,88.1126 110,91.5C 110.973,93.3921 111.64,95.3921 112,97.5C 115.709,101.175 119.376,104.842 123,108.5C 123.483,109.448 123.649,110.448 123.5,111.5C 124.833,111.5 126.167,111.5 127.5,111.5C 127.338,113.527 127.505,115.527 128,117.5C 133,123.5 138,129.5 143,135.5C 143.483,136.448 143.649,137.448 143.5,138.5C 140.833,136.833 138.167,135.167 135.5,133.5C 133.14,131.147 130.473,129.147 127.5,127.5C 122.204,123.846 116.871,120.179 111.5,116.5C 109.45,114.453 107.117,112.786 104.5,111.5C 101.5,108.833 98.5,106.167 95.5,103.5C 93.8035,100.605 92.8035,97.4386 92.5,94C 92.1912,91.3364 93.0246,89.1698 95,87.5C 95.4974,84.854 95.6641,82.1873 95.5,79.5C 95.1201,77.302 95.7868,75.6354 97.5,74.5 Z"/></g>
<g><path style="opacity:1" fill="#fb6c26" d="M 97.5,73.5 C 97.8333,73.5 98.1667,73.5 98.5,73.5C 102.445,74.8255 106.778,75.4921 111.5,75.5C 116.013,75.4991 120.347,75.1657 124.5,74.5C 125.167,74.8333 125.833,75.1667 126.5,75.5C 126.5,76.1667 126.833,76.5 127.5,76.5C 131.906,89.2389 135.739,102.239 139,115.5C 141.19,120.651 143.523,125.651 146,130.5C 146.497,132.81 146.663,135.143 146.5,137.5C 148.451,137.773 149.951,137.107 151,135.5C 157.145,116.917 162.978,98.2501 168.5,79.5C 168.5,78.1667 168.5,76.8333 168.5,75.5C 169.167,75.5 169.833,75.5 170.5,75.5C 171.167,75.5 171.833,75.5 172.5,75.5C 181.167,75.5 189.833,75.5 198.5,75.5C 198.833,75.5 199.167,75.5 199.5,75.5C 199.5,76.8333 199.5,78.1667 199.5,79.5C 198.167,79.5 196.833,79.5 195.5,79.5C 195.049,83.0688 193.549,86.0688 191,88.5C 187.624,89.0443 185.79,91.0443 185.5,94.5C 183.157,97.2072 180.823,99.8739 178.5,102.5C 177.675,103.386 176.675,103.719 175.5,103.5C 175.799,105.604 175.466,107.604 174.5,109.5C 171.423,112.409 168.923,115.742 167,119.5C 163.853,122.468 161.186,125.802 159,129.5C 155.229,130.371 153.229,132.704 153,136.5C 151.181,138.503 149.015,139.836 146.5,140.5C 144.973,140.573 143.973,139.906 143.5,138.5C 143.649,137.448 143.483,136.448 143,135.5C 138,129.5 133,123.5 128,117.5C 127.505,115.527 127.338,113.527 127.5,111.5C 126.167,111.5 124.833,111.5 123.5,111.5C 123.649,110.448 123.483,109.448 123,108.5C 119.376,104.842 115.709,101.175 112,97.5C 111.64,95.3921 110.973,93.3921 110,91.5C 106.613,88.1126 103.279,84.7792 100,81.5C 98.5886,79.3496 97.7553,77.0163 97.5,74.5C 97.5,74.1667 97.5,73.8333 97.5,73.5 Z"/></g>
<g><path style="opacity:1" fill="#e34328" d="M 127.5,76.5 C 140.167,76.5 152.833,76.5 165.5,76.5C 165.5,77.5 165.5,78.5 165.5,79.5C 166.5,79.5 167.5,79.5 168.5,79.5C 162.978,98.2501 157.145,116.917 151,135.5C 149.951,137.107 148.451,137.773 146.5,137.5C 146.663,135.143 146.497,132.81 146,130.5C 143.523,125.651 141.19,120.651 139,115.5C 135.739,102.239 131.906,89.2389 127.5,76.5 Z"/></g>
<g><path style="opacity:1" fill="#a33c2c" d="M 126.5,75.5 C 126.833,75.5 127.167,75.5 127.5,75.5C 141.167,75.5 154.833,75.5 168.5,75.5C 168.5,76.8333 168.5,78.1667 168.5,79.5C 167.5,79.5 166.5,79.5 165.5,79.5C 165.5,78.5 165.5,77.5 165.5,76.5C 152.833,76.5 140.167,76.5 127.5,76.5C 126.833,76.5 126.5,76.1667 126.5,75.5 Z"/></g>
<g><path style="opacity:1" fill="#c3904d" d="M 202.5,82.5 C 204.277,85.5046 205.277,88.8379 205.5,92.5C 203.025,89.7491 202.025,86.4158 202.5,82.5 Z"/></g>
<g><path style="opacity:1" fill="#d7a040" d="M 95.5,79.5 C 95.6641,82.1873 95.4974,84.854 95,87.5C 93.0246,89.1698 92.1912,91.3364 92.5,94C 92.8035,97.4386 93.8035,100.605 95.5,103.5C 93.5887,102.925 91.922,101.925 90.5,100.5C 89.8902,99.609 89.5569,98.609 89.5,97.5C 90.9282,91.2153 92.9282,85.2153 95.5,79.5 Z"/></g>
<g><path style="opacity:1" fill="#1f2022" d="M 213.5,95.5 C 216.084,96.0483 217.084,97.715 216.5,100.5C 211.503,100.779 210.503,99.1127 213.5,95.5 Z"/></g>
<g><path style="opacity:1" fill="#8e9193" d="M 89.5,97.5 C 89.5569,98.609 89.8902,99.609 90.5,100.5C 89.5041,100.414 88.6708,100.748 88,101.5C 87.9528,107.046 85.1195,109.712 79.5,109.5C 77.5823,113.004 75.4157,116.337 73,119.5C 73.9247,123.229 74.7581,127.062 75.5,131C 75.5137,134.476 74.5137,137.643 72.5,140.5C 66.7047,146.744 60.038,147.91 52.5,144C 43.5394,135.681 43.206,127.014 51.5,118C 48.4274,111.855 45.0941,105.855 41.5,100C 35.3643,99.5367 31.6976,96.2033 30.5,90C 23.8127,88.941 17.146,87.7744 10.5,86.5C 6.7752,89.0731 3.10853,89.0731 -0.5,86.5C -0.5,84.5 -0.5,82.5 -0.5,80.5C 4.90079,75.7647 8.56745,76.7647 10.5,83.5C 17.4479,84.9926 24.4479,85.8259 31.5,86C 34.6277,81.2717 38.9611,79.605 44.5,81C 52.3503,86.9561 52.3503,92.9561 44.5,99C 47.4347,104.927 50.768,110.594 54.5,116C 60.0139,116.232 65.3473,116.899 70.5,118C 72.9589,114.25 75.2922,110.417 77.5,106.5C 75.768,101.632 77.4347,98.6317 82.5,97.5C 84.8525,98.8214 87.1859,98.8214 89.5,97.5 Z"/></g>
<g><path style="opacity:1" fill="#1e2223" d="M 37.5,83.5 C 47.1144,83.402 49.4477,87.402 44.5,95.5C 38.3099,97.9077 34.6432,95.9077 33.5,89.5C 34.3469,87.1291 35.6802,85.1291 37.5,83.5 Z"/></g>
<g><path style="opacity:1" fill="#1f2022" d="M 3.5,80.5 C 7.16124,80.3501 8.16124,81.8501 6.5,85C 2.70713,85.4866 1.70713,83.9866 3.5,80.5 Z"/></g>
<g><path style="opacity:1" fill="#1d1c28" d="M 81.5,100.5 C 84.0838,101.048 85.0838,102.715 84.5,105.5C 83.1667,105.5 81.8333,105.5 80.5,105.5C 80.366,103.708 80.6993,102.042 81.5,100.5 Z"/></g>
<g><path style="opacity:1" fill="#f7a02a" d="M 199.5,75.5 C 199.833,75.5 200.167,75.5 200.5,75.5C 201.566,77.7014 202.233,80.0347 202.5,82.5C 202.025,86.4158 203.025,89.7491 205.5,92.5C 206.167,93.8333 206.833,95.1667 207.5,96.5C 207.5,97.8333 207.5,99.1667 207.5,100.5C 188.785,113.035 170.451,126.202 152.5,140C 150.435,141.542 148.435,141.709 146.5,140.5C 149.015,139.836 151.181,138.503 153,136.5C 153.229,132.704 155.229,130.371 159,129.5C 161.186,125.802 163.853,122.468 167,119.5C 168.923,115.742 171.423,112.409 174.5,109.5C 175.466,107.604 175.799,105.604 175.5,103.5C 176.675,103.719 177.675,103.386 178.5,102.5C 180.823,99.8739 183.157,97.2072 185.5,94.5C 185.79,91.0443 187.624,89.0443 191,88.5C 193.549,86.0688 195.049,83.0688 195.5,79.5C 196.833,79.5 198.167,79.5 199.5,79.5C 199.5,78.1667 199.5,76.8333 199.5,75.5 Z"/></g>
<g><path style="opacity:1" fill="#321c0d" d="M 104.5,111.5 C 107.117,112.786 109.45,114.453 111.5,116.5C 107.521,117.019 105.187,115.352 104.5,111.5 Z"/></g>
<g><path style="opacity:1" fill="#1d2122" d="M 55.5,119.5 C 61.7013,118.285 66.8679,119.952 71,124.5C 74.2903,137.875 69.1236,143.708 55.5,142C 49.6433,138.813 47.4766,133.979 49,127.5C 50.3592,124.097 52.5258,121.431 55.5,119.5 Z"/></g>
<g><path style="opacity:1" fill="#382011" d="M 127.5,127.5 C 130.473,129.147 133.14,131.147 135.5,133.5C 131.33,133.312 128.663,131.312 127.5,127.5 Z"/></g>
</svg>
