<?xml version="1.0" encoding="UTF-8"?>
<!DOCTYPE svg PUBLIC "-//W3C//DTD SVG 1.1//EN" "http://www.w3.org/Graphics/SVG/1.1/DTD/svg11.dtd">
<svg xmlns="http://www.w3.org/2000/svg" version="1.1" width="800px" height="948px" style="shape-rendering:geometricPrecision; text-rendering:geometricPrecision; image-rendering:optimizeQuality; fill-rule:evenodd; clip-rule:evenodd" xmlns:xlink="http://www.w3.org/1999/xlink">
<g><path style="opacity:0.991" fill="#030305" d="M 377.5,-0.5 C 389.5,-0.5 401.5,-0.5 413.5,-0.5C 481.837,10.6566 525.67,49.6566 545,116.5C 546.767,125.101 548.1,133.768 549,142.5C 550.115,168.153 550.781,193.82 551,219.5C 551.512,253.549 559.845,285.549 576,315.5C 589.188,340.558 604.855,363.891 623,385.5C 640.269,402.09 655.269,420.424 668,440.5C 698.185,494.227 715.352,551.894 719.5,613.5C 718.702,634.824 714.702,655.491 707.5,675.5C 706.292,674.766 704.959,674.433 703.5,674.5C 702.609,673.739 701.942,672.739 701.5,671.5C 703.564,665.235 702.231,659.901 697.5,655.5C 693.161,649.836 687.495,646.17 680.5,644.5C 680.167,644.5 679.833,644.5 679.5,644.5C 664.709,641.058 649.709,638.058 634.5,635.5C 639.083,622.252 643.583,608.919 648,595.5C 654.547,567.637 653.88,539.971 646,512.5C 639.44,494.935 629.273,479.769 615.5,467C 603.498,458.328 590.832,450.662 577.5,444C 572.857,443.002 568.19,442.668 563.5,443C 565.037,444.707 566.704,446.207 568.5,447.5C 572.228,450.559 576.228,453.226 580.5,455.5C 618.604,476.178 638.271,508.345 639.5,552C 637.852,580.759 631.852,608.592 621.5,635.5C 613.494,637.833 606.827,642.166 601.5,648.5C 601.957,649.298 602.624,649.631 603.5,649.5C 620.317,646.431 636.984,647.265 653.5,652C 660.18,654.7 666.347,658.2 672,662.5C 673.762,665.576 673.929,668.742 672.5,672C 669.736,674.859 667.736,678.193 666.5,682C 666.99,683.982 667.99,685.649 669.5,687C 673.594,687.767 677.594,687.434 681.5,686C 685.468,683.68 689.468,681.347 693.5,679C 695.145,675.678 697.812,674.178 701.5,674.5C 700.968,679.095 699.635,683.429 697.5,687.5C 695.917,689.663 694.584,691.996 693.5,694.5C 691.273,696.607 689.273,698.94 687.5,701.5C 684.5,703.833 681.833,706.5 679.5,709.5C 676.833,711.5 674.167,713.5 671.5,715.5C 667.628,717.597 663.961,719.931 660.5,722.5C 648.154,728.403 635.154,730.903 621.5,730C 605.921,727.886 595.254,719.72 589.5,705.5C 588.993,701.14 588.327,696.807 587.5,692.5C 587.5,690.5 587.5,688.5 587.5,686.5C 587.5,685.167 587.5,683.833 587.5,682.5C 587.833,680.5 588.167,678.5 588.5,676.5C 588.959,673.123 589.626,669.789 590.5,666.5C 589.5,666.5 588.5,666.5 587.5,666.5C 585.167,665.833 582.833,665.167 580.5,664.5C 584.534,631.623 586.034,598.623 585,565.5C 582.166,523.991 568.832,486.324 545,452.5C 540.634,447.305 536.134,442.305 531.5,437.5C 528.878,425.58 526.045,413.58 523,401.5C 521.766,397.285 520.266,393.285 518.5,389.5C 510.644,366.459 500.644,344.459 488.5,323.5C 487.773,321.046 486.773,318.713 485.5,316.5C 484.736,313.982 483.736,311.649 482.5,309.5C 480.774,304.383 478.774,299.383 476.5,294.5C 475.5,292.5 474.5,290.5 473.5,288.5C 474.32,286.86 475.153,285.193 476,283.5C 477.282,275.142 478.782,266.809 480.5,258.5C 480.263,255.445 479.263,252.779 477.5,250.5C 477.262,246.862 475.596,244.029 472.5,242C 469.691,240.907 467.024,239.74 464.5,238.5C 475.936,226.027 480.936,211.194 479.5,194C 479.453,188.452 479.12,182.952 478.5,177.5C 476.696,168.236 473.029,159.902 467.5,152.5C 464.446,147.113 460.113,143.113 454.5,140.5C 451.017,137.763 447.017,136.097 442.5,135.5C 437.695,134.513 432.695,134.179 427.5,134.5C 411.48,139.186 400.147,149.186 393.5,164.5C 390.844,173.251 389.844,182.251 390.5,191.5C 390.565,191.938 390.399,192.272 390,192.5C 382.455,183.951 373.622,182.285 363.5,187.5C 377.607,187.371 387.607,193.537 393.5,206C 393.316,207.376 392.649,208.209 391.5,208.5C 387.929,207.358 384.262,206.691 380.5,206.5C 371.49,205.035 362.49,205.702 353.5,208.5C 349.725,209.555 346.058,210.888 342.5,212.5C 345.409,207.689 348.576,203.022 352,198.5C 352.444,184.675 348.944,172.009 341.5,160.5C 335.608,148.795 326.108,142.129 313,140.5C 300.415,142.416 292.082,149.416 288,161.5C 286.364,166.375 285.531,171.375 285.5,176.5C 285.618,190.918 286.785,205.251 289,219.5C 291.243,228.338 295.743,235.671 302.5,241.5C 301.167,243.167 299.833,244.833 298.5,246.5C 287.902,255.632 283.902,266.965 286.5,280.5C 290.614,284.064 294.948,287.397 299.5,290.5C 298.838,294.466 298.505,298.466 298.5,302.5C 298.5,303.833 298.5,305.167 298.5,306.5C 298.5,310.5 298.5,314.5 298.5,318.5C 298.092,323.537 297.426,328.537 296.5,333.5C 294.514,340.478 291.681,347.144 288,353.5C 281,363.5 274,373.5 267,383.5C 261.434,391.964 256.934,400.964 253.5,410.5C 252.262,412.214 251.595,414.214 251.5,416.5C 250.03,419.949 248.864,423.616 248,427.5C 247.667,436.167 247.333,444.833 247,453.5C 240.653,462.862 234.819,472.529 229.5,482.5C 227.929,484.635 226.596,486.968 225.5,489.5C 202.364,531.911 189.364,577.244 186.5,625.5C 185.67,633.99 185.17,642.657 185,651.5C 173.447,639.202 167.114,624.535 166,607.5C 162.454,582.993 165.454,559.327 175,536.5C 183.792,516.249 193.625,496.582 204.5,477.5C 208.399,472.716 212.066,467.716 215.5,462.5C 217.377,461.429 218.044,460.095 217.5,458.5C 210.727,460.103 205.893,464.103 203,470.5C 200.743,472.046 198.576,473.712 196.5,475.5C 189.852,485.698 183.686,496.032 178,506.5C 176.339,512.151 174.672,517.818 173,523.5C 167.299,534.934 162.632,546.934 159,559.5C 157.773,574.127 157.106,588.794 157,603.5C 155.475,607.365 153.142,610.698 150,613.5C 149.333,616.833 149.333,620.167 150,623.5C 153.966,626.464 157.633,629.797 161,633.5C 165.579,643.417 171.746,652.251 179.5,660C 185.071,664.356 191.404,666.189 198.5,665.5C 224.882,689.186 252.215,711.686 280.5,733C 291.382,741.94 298.882,753.107 303,766.5C 304.728,782.571 297.895,792.737 282.5,797C 274.694,797.974 267.027,797.474 259.5,795.5C 257.833,793.5 256.167,791.5 254.5,789.5C 241.07,766.964 227.403,744.631 213.5,722.5C 200.944,703.105 187.777,684.105 174,665.5C 171.63,662.961 169.13,660.628 166.5,658.5C 157.027,649.098 145.694,645.431 132.5,647.5C 129.008,648.41 126.008,650.076 123.5,652.5C 120.233,654.427 117.233,656.761 114.5,659.5C 106.947,641.213 106.78,622.88 114,604.5C 126.861,580.112 139.194,555.445 151,530.5C 154.944,520.944 158.611,511.277 162,501.5C 166.071,484.547 171.071,467.88 177,451.5C 183.414,438.327 191.081,425.994 200,414.5C 220.667,390.5 241.333,366.5 262,342.5C 268.444,331.724 271.611,320.057 271.5,307.5C 266.402,250.94 264.235,194.274 265,137.5C 264.676,106.426 272.676,77.7591 289,51.5C 310.959,21.4334 340.459,4.10012 377.5,-0.5 Z"/></g>
<g><path style="opacity:1" fill="#1c1c1d" d="M 451.5,34.5 C 456.018,34.9704 460.351,36.1371 464.5,38C 476.169,45.9979 485.336,56.1645 492,68.5C 494.184,75.4751 491.684,79.4751 484.5,80.5C 480.659,79.2064 476.825,79.2064 473,80.5C 466.405,83.8801 459.905,87.3801 453.5,91C 443.755,93.8187 438.755,90.3187 438.5,80.5C 438.786,75.6151 439.453,70.7818 440.5,66C 438.855,59.5762 438.355,53.0762 439,46.5C 440.462,39.535 444.629,35.535 451.5,34.5 Z"/></g>
<g><path style="opacity:1" fill="#2b2b2d" d="M 449.5,39.5 C 456.442,38.6544 462.776,40.1544 468.5,44C 473.333,48.8333 478.167,53.6667 483,58.5C 483.988,61.6381 484.822,64.8048 485.5,68C 485.458,69.9674 484.958,71.8008 484,73.5C 478.982,75.1712 473.815,76.3378 468.5,77C 464.879,78.6313 461.879,80.9646 459.5,84C 454.551,87.4632 449.551,87.7965 444.5,85C 443.042,82.9233 442.376,80.59 442.5,78C 443.31,67.8403 443.476,57.6737 443,47.5C 444.277,44.0618 446.443,41.3951 449.5,39.5 Z"/></g>
<g><path style="opacity:1" fill="#434344" d="M 450.5,42.5 C 454.792,42.0349 458.792,42.8682 462.5,45C 467.942,49.4386 473.109,54.272 478,59.5C 481.382,63.6251 481.216,67.4585 477.5,71C 473.49,72.34 469.49,73.6734 465.5,75C 463.167,76 461.5,77.6667 460.5,80C 456.688,82.3593 452.688,82.8593 448.5,81.5C 447.808,80.9747 447.308,80.3081 447,79.5C 446.349,69.159 446.015,58.8256 446,48.5C 446.979,46.0324 448.479,44.0324 450.5,42.5 Z"/></g>
<g><path style="opacity:1" fill="#636363" d="M 453.5,46.5 C 457.501,46.2104 460.501,47.7104 462.5,51C 466.137,52.9279 469.137,55.5946 471.5,59C 472.867,62.4994 472.534,65.8327 470.5,69C 465.485,71.607 460.485,74.107 455.5,76.5C 454.228,76.4302 453.062,76.0968 452,75.5C 450.394,67.2324 449.728,58.8991 450,50.5C 450.69,48.6498 451.856,47.3164 453.5,46.5 Z"/></g>
<g><path style="opacity:1" fill="#464647" d="M 452.5,120.5 C 454.199,120.34 455.866,120.506 457.5,121C 460.117,123.141 463.117,124.474 466.5,125C 470.049,128.043 472.049,131.876 472.5,136.5C 469.356,136.044 466.356,135.044 463.5,133.5C 460.248,131.173 456.915,128.839 453.5,126.5C 452.534,124.604 452.201,122.604 452.5,120.5 Z"/></g>
<g><path style="opacity:1" fill="#999999" d="M 427.5,134.5 C 432.695,134.179 437.695,134.513 442.5,135.5C 438.275,141.6 434.275,147.933 430.5,154.5C 427.694,155.168 425.028,155.834 422.5,156.5C 420.167,156.5 417.833,156.5 415.5,156.5C 419.488,149.194 423.488,141.86 427.5,134.5 Z"/></g>
<g><path style="opacity:1" fill="#393939" d="M 325.5,126.5 C 325.917,125.876 326.584,125.543 327.5,125.5C 330.411,126.915 333.411,128.082 336.5,129C 337.977,131.445 339.81,133.612 342,135.5C 342.749,136.635 342.583,137.635 341.5,138.5C 334.982,135.926 329.649,131.926 325.5,126.5 Z"/></g>
<g><path style="opacity:1" fill="#b9b9b9" d="M 442.5,135.5 C 447.017,136.097 451.017,137.763 454.5,140.5C 450.5,146.167 446.5,151.833 442.5,157.5C 435.863,156.724 429.196,156.391 422.5,156.5C 425.028,155.834 427.694,155.168 430.5,154.5C 434.275,147.933 438.275,141.6 442.5,135.5 Z"/></g>
<g><path style="opacity:1" fill="#797979" d="M 427.5,134.5 C 423.488,141.86 419.488,149.194 415.5,156.5C 407.811,158.174 400.478,160.841 393.5,164.5C 400.147,149.186 411.48,139.186 427.5,134.5 Z"/></g>
<g><path style="opacity:1" fill="#d0d0d0" d="M 454.5,140.5 C 460.113,143.113 464.446,147.113 467.5,152.5C 465.5,156.833 463.5,161.167 461.5,165.5C 455.247,162.422 448.913,159.756 442.5,157.5C 446.5,151.833 450.5,146.167 454.5,140.5 Z"/></g>
<g><path style="opacity:1" fill="#838382" d="M 341.5,160.5 C 338.518,160.037 335.518,159.704 332.5,159.5C 330.226,157.276 328.392,154.609 327,151.5C 321.689,146.854 315.523,145.354 308.5,147C 300.337,150.494 296.67,156.66 297.5,165.5C 293.526,169.138 289.526,172.805 285.5,176.5C 285.531,171.375 286.364,166.375 288,161.5C 292.082,149.416 300.415,142.416 313,140.5C 326.108,142.129 335.608,148.795 341.5,160.5 Z"/></g>
<g><path style="opacity:1" fill="#9f9f9e" d="M 332.5,159.5 C 319.939,156.752 308.272,158.752 297.5,165.5C 296.67,156.66 300.337,150.494 308.5,147C 315.523,145.354 321.689,146.854 327,151.5C 328.392,154.609 330.226,157.276 332.5,159.5 Z"/></g>
<g><path style="opacity:1" fill="#b2b2b2" d="M 467.5,152.5 C 473.029,159.902 476.696,168.236 478.5,177.5C 473.009,173.254 467.342,169.254 461.5,165.5C 463.5,161.167 465.5,156.833 467.5,152.5 Z"/></g>
<g><path style="opacity:1" fill="#f6f6f4" d="M 415.5,156.5 C 417.833,156.5 420.167,156.5 422.5,156.5C 429.196,156.391 435.863,156.724 442.5,157.5C 448.913,159.756 455.247,162.422 461.5,165.5C 467.342,169.254 473.009,173.254 478.5,177.5C 479.12,182.952 479.453,188.452 479.5,194C 480.936,211.194 475.936,226.027 464.5,238.5C 455.16,236.916 446.16,234.249 437.5,230.5C 436.508,230.672 435.842,230.338 435.5,229.5C 449.997,229.173 458.497,221.84 461,207.5C 464.158,190.655 458.325,178.155 443.5,170C 428.725,165.971 418.558,171.138 413,185.5C 409.651,198.414 411.484,210.414 418.5,221.5C 416.5,220.833 414.5,220.167 412.5,219.5C 409.003,216.917 405.336,214.584 401.5,212.5C 398.057,205.276 394.39,198.276 390.5,191.5C 389.844,182.251 390.844,173.251 393.5,164.5C 400.478,160.841 407.811,158.174 415.5,156.5 Z"/></g>
<g><path style="opacity:1" fill="#f7f7f5" d="M 332.5,159.5 C 335.518,159.704 338.518,160.037 341.5,160.5C 348.944,172.009 352.444,184.675 352,198.5C 348.576,203.022 345.409,207.689 342.5,212.5C 341.29,212.932 340.29,213.599 339.5,214.5C 338.167,214.833 336.833,215.167 335.5,215.5C 338.451,202.524 336.285,190.524 329,179.5C 318.148,166.958 308.481,167.624 300,181.5C 294.54,198.828 298.373,213.661 311.5,226C 313.407,227.122 315.407,227.955 317.5,228.5C 314.833,231.5 312.167,234.5 309.5,237.5C 307.15,238.861 304.816,240.194 302.5,241.5C 295.743,235.671 291.243,228.338 289,219.5C 286.785,205.251 285.618,190.918 285.5,176.5C 289.526,172.805 293.526,169.138 297.5,165.5C 308.272,158.752 319.939,156.752 332.5,159.5 Z"/></g>
<g><path style="opacity:1" fill="#050507" d="M 435.5,229.5 C 429.436,227.634 423.769,224.967 418.5,221.5C 411.484,210.414 409.651,198.414 413,185.5C 418.558,171.138 428.725,165.971 443.5,170C 458.325,178.155 464.158,190.655 461,207.5C 458.497,221.84 449.997,229.173 435.5,229.5 Z"/></g>
<g><path style="opacity:1" fill="#09080a" d="M 335.5,215.5 C 332.527,217.147 329.86,219.147 327.5,221.5C 324.467,223.016 321.8,225.016 319.5,227.5C 318.833,227.833 318.167,228.167 317.5,228.5C 315.407,227.955 313.407,227.122 311.5,226C 298.373,213.661 294.54,198.828 300,181.5C 308.481,167.624 318.148,166.958 329,179.5C 336.285,190.524 338.451,202.524 335.5,215.5 Z"/></g>
<g><path style="opacity:1" fill="#373738" d="M 450.5,183.5 C 447.169,180.39 443.169,179.056 438.5,179.5C 440.34,186.156 444.34,191.156 450.5,194.5C 449.749,195.573 448.749,195.74 447.5,195C 441.657,191.168 437.324,186.168 434.5,180C 434.559,178.564 434.892,177.231 435.5,176C 440.516,175.421 445.183,176.421 449.5,179C 450.38,180.356 450.714,181.856 450.5,183.5 Z"/></g>
<g><path style="opacity:1" fill="#676768" d="M 450.5,183.5 C 450.5,187.167 450.5,190.833 450.5,194.5C 444.34,191.156 440.34,186.156 438.5,179.5C 443.169,179.056 447.169,180.39 450.5,183.5 Z"/></g>
<g><path style="opacity:1" fill="#2d2d2e" d="M 315.5,178.5 C 328.785,180.027 333.285,187.36 329,200.5C 327.135,202.673 324.969,203.007 322.5,201.5C 321.467,194.883 318.634,189.217 314,184.5C 313.252,182.16 313.752,180.16 315.5,178.5 Z"/></g>
<g><path style="opacity:1" fill="#505050" d="M 315.5,180.5 C 324.967,180.456 328.634,184.956 326.5,194C 322.58,192.121 319.08,189.288 316,185.5C 315.506,183.866 315.34,182.199 315.5,180.5 Z"/></g>
<g><path style="opacity:1" fill="#404040" d="M 390.5,191.5 C 394.39,198.276 398.057,205.276 401.5,212.5C 398.011,211.342 394.678,210.009 391.5,208.5C 392.649,208.209 393.316,207.376 393.5,206C 387.607,193.537 377.607,187.371 363.5,187.5C 373.622,182.285 382.455,183.951 390,192.5C 390.399,192.272 390.565,191.938 390.5,191.5 Z"/></g>
<g><path style="opacity:1" fill="#ecca18" d="M 380.5,206.5 C 379.167,206.5 377.833,206.5 376.5,206.5C 376.667,220.171 376.5,233.837 376,247.5C 373.528,253.915 370.862,260.248 368,266.5C 365.014,273.147 364.847,279.814 367.5,286.5C 370.854,287.839 373.854,289.673 376.5,292C 377.322,294.434 377.656,296.934 377.5,299.5C 369.576,301.061 361.576,302.061 353.5,302.5C 352.265,271.104 352.265,239.77 353.5,208.5C 362.49,205.702 371.49,205.035 380.5,206.5 Z"/></g>
<g><path style="opacity:1" fill="#ebbf0c" d="M 353.5,208.5 C 352.265,239.77 352.265,271.104 353.5,302.5C 350.167,302.5 346.833,302.5 343.5,302.5C 342.167,302.5 340.833,302.5 339.5,302.5C 339.5,277.167 339.5,251.833 339.5,226.5C 340.477,223.713 340.81,220.713 340.5,217.5C 339.89,216.609 339.557,215.609 339.5,214.5C 340.29,213.599 341.29,212.932 342.5,212.5C 346.058,210.888 349.725,209.555 353.5,208.5 Z"/></g>
<g><path style="opacity:1" fill="#ebb60b" d="M 339.5,214.5 C 339.557,215.609 339.89,216.609 340.5,217.5C 338.983,217.511 337.816,218.177 337,219.5C 336.503,221.81 336.337,224.143 336.5,226.5C 337.5,226.5 338.5,226.5 339.5,226.5C 339.5,251.833 339.5,277.167 339.5,302.5C 336.123,302.041 332.789,301.374 329.5,300.5C 329.217,299.711 328.717,299.044 328,298.5C 327.5,272.835 327.333,247.169 327.5,221.5C 329.86,219.147 332.527,217.147 335.5,215.5C 336.833,215.167 338.167,214.833 339.5,214.5 Z"/></g>
<g><path style="opacity:1" fill="#f4d72b" d="M 380.5,206.5 C 384.262,206.691 387.929,207.358 391.5,208.5C 394.678,210.009 398.011,211.342 401.5,212.5C 405.336,214.584 409.003,216.917 412.5,219.5C 411.167,241.833 411.167,264.167 412.5,286.5C 401.686,292.995 390.019,297.329 377.5,299.5C 377.656,296.934 377.322,294.434 376.5,292C 373.854,289.673 370.854,287.839 367.5,286.5C 364.847,279.814 365.014,273.147 368,266.5C 370.862,260.248 373.528,253.915 376,247.5C 376.5,233.837 376.667,220.171 376.5,206.5C 377.833,206.5 379.167,206.5 380.5,206.5 Z"/></g>
<g><path style="opacity:1" fill="#ba9109" d="M 340.5,217.5 C 340.81,220.713 340.477,223.713 339.5,226.5C 338.5,226.5 337.5,226.5 336.5,226.5C 336.337,224.143 336.503,221.81 337,219.5C 337.816,218.177 338.983,217.511 340.5,217.5 Z"/></g>
<g><path style="opacity:1" fill="#9a7c16" d="M 382.5,216.5 C 386.215,216.423 389.881,216.756 393.5,217.5C 393.5,218.833 393.5,220.167 393.5,221.5C 389.167,221.5 384.833,221.5 380.5,221.5C 380.392,219.486 381.058,217.82 382.5,216.5 Z"/></g>
<g><path style="opacity:1" fill="#f5d617" d="M 412.5,219.5 C 414.5,220.167 416.5,220.833 418.5,221.5C 423.769,224.967 429.436,227.634 435.5,229.5C 435.842,230.338 436.508,230.672 437.5,230.5C 437.5,243.5 437.5,256.5 437.5,269.5C 429.993,276.333 421.66,281.999 412.5,286.5C 411.167,264.167 411.167,241.833 412.5,219.5 Z"/></g>
<g><path style="opacity:1" fill="#e2ab09" d="M 327.5,221.5 C 327.333,247.169 327.5,272.835 328,298.5C 328.717,299.044 329.217,299.711 329.5,300.5C 326.256,299.537 323.256,298.204 320.5,296.5C 319.735,273.508 319.402,250.508 319.5,227.5C 321.8,225.016 324.467,223.016 327.5,221.5 Z"/></g>
<g><path style="opacity:1" fill="#f4d023" d="M 437.5,230.5 C 446.16,234.249 455.16,236.916 464.5,238.5C 467.024,239.74 469.691,240.907 472.5,242C 475.596,244.029 477.262,246.862 477.5,250.5C 477.461,251.583 477.127,252.583 476.5,253.5C 470.835,254.309 465.168,254.975 459.5,255.5C 457.585,255.216 455.919,255.549 454.5,256.5C 452.745,257.072 451.078,257.906 449.5,259C 445.924,263.082 441.924,266.582 437.5,269.5C 437.5,256.5 437.5,243.5 437.5,230.5 Z"/></g>
<g><path style="opacity:1" fill="#daa109" d="M 319.5,227.5 C 319.402,250.508 319.735,273.508 320.5,296.5C 316.317,294.913 312.65,292.579 309.5,289.5C 309.5,272.167 309.5,254.833 309.5,237.5C 312.167,234.5 314.833,231.5 317.5,228.5C 318.167,228.167 318.833,227.833 319.5,227.5 Z"/></g>
<g><path style="opacity:1" fill="#ca9209" d="M 309.5,237.5 C 309.5,254.833 309.5,272.167 309.5,289.5C 306.003,286.917 302.336,284.584 298.5,282.5C 298.5,270.5 298.5,258.5 298.5,246.5C 299.833,244.833 301.167,243.167 302.5,241.5C 304.816,240.194 307.15,238.861 309.5,237.5 Z"/></g>
<g><path style="opacity:1" fill="#f5d945" d="M 393.5,237.5 C 399.979,235.784 403.979,238.117 405.5,244.5C 404.667,247.833 403.833,251.167 403,254.5C 397.082,265.339 390.915,276.006 384.5,286.5C 383.808,285.975 383.308,285.308 383,284.5C 380.335,284.703 377.502,285.37 374.5,286.5C 370.034,285.151 367.367,282.317 366.5,278C 368.074,272.02 370.074,266.186 372.5,260.5C 377.378,254.078 381.211,247.078 384,239.5C 384.333,239.833 384.667,240.167 385,240.5C 387.949,239.563 390.783,238.563 393.5,237.5 Z"/></g>
<g><path style="opacity:1" fill="#b27d09" d="M 298.5,246.5 C 298.5,258.5 298.5,270.5 298.5,282.5C 294.658,280.998 290.658,280.332 286.5,280.5C 283.902,266.965 287.902,255.632 298.5,246.5 Z"/></g>
<g><path style="opacity:1" fill="#d29809" d="M 477.5,250.5 C 479.263,252.779 480.263,255.445 480.5,258.5C 478.782,266.809 477.282,275.142 476,283.5C 475.153,285.193 474.32,286.86 473.5,288.5C 470.862,290.824 467.862,292.657 464.5,294C 457.821,295.839 451.488,298.506 445.5,302C 437.962,306.93 430.629,312.097 423.5,317.5C 402.734,324.351 381.734,325.185 360.5,320C 354.987,316.577 348.987,314.91 342.5,315C 340.208,313.71 338.208,312.043 336.5,310C 353.814,307.906 371.148,305.24 388.5,302C 404.696,297.4 419.696,290.4 433.5,281C 439.729,273.097 447.396,267.097 456.5,263C 458.747,261.005 459.747,258.505 459.5,255.5C 465.168,254.975 470.835,254.309 476.5,253.5C 477.127,252.583 477.461,251.583 477.5,250.5 Z"/></g>
<g><path style="opacity:1" fill="#2c2c2e" d="M 522.5,316.5 C 521.206,315.71 520.039,314.71 519,313.5C 515.686,307.208 512.02,301.208 508,295.5C 505.529,283.137 510.362,278.47 522.5,281.5C 524.934,284.223 527.601,286.723 530.5,289C 546.734,292.971 553.234,303.138 550,319.5C 545.599,326.21 539.433,328.71 531.5,327C 527.951,323.953 524.951,320.453 522.5,316.5 Z"/></g>
<g><path style="opacity:1" fill="#7f5705" d="M 286.5,280.5 C 290.658,280.332 294.658,280.998 298.5,282.5C 302.336,284.584 306.003,286.917 309.5,289.5C 312.65,292.579 316.317,294.913 320.5,296.5C 323.256,298.204 326.256,299.537 329.5,300.5C 332.789,301.374 336.123,302.041 339.5,302.5C 340.833,302.5 342.167,302.5 343.5,302.5C 346.641,303.321 349.975,303.821 353.5,304C 339.987,305.26 326.654,304.26 313.5,301C 310.5,297.667 307.5,294.333 304.5,291C 303.207,290.51 301.873,290.343 300.5,290.5C 300.167,290.5 299.833,290.5 299.5,290.5C 294.948,287.397 290.614,284.064 286.5,280.5 Z"/></g>
<g><path style="opacity:1" fill="#936409" d="M 454.5,256.5 C 455.5,256.5 456.5,256.5 457.5,256.5C 457.714,258.144 457.38,259.644 456.5,261C 443.28,267.115 431.613,275.448 421.5,286C 416.037,287.933 411.037,290.6 406.5,294C 399.898,296.534 393.231,298.867 386.5,301C 376.39,302.022 366.39,303.689 356.5,306C 348.167,306.333 339.833,306.667 331.5,307C 325.607,307.885 324.94,310.218 329.5,314C 342.175,324.674 356.841,330.674 373.5,332C 382.189,332.673 390.856,332.507 399.5,331.5C 382.896,339.407 365.563,341.241 347.5,337C 337.633,333.139 329.466,326.972 323,318.5C 316.425,308.425 308.925,299.092 300.5,290.5C 301.873,290.343 303.207,290.51 304.5,291C 307.5,294.333 310.5,297.667 313.5,301C 326.654,304.26 339.987,305.26 353.5,304C 349.975,303.821 346.641,303.321 343.5,302.5C 346.833,302.5 350.167,302.5 353.5,302.5C 361.576,302.061 369.576,301.061 377.5,299.5C 390.019,297.329 401.686,292.995 412.5,286.5C 421.66,281.999 429.993,276.333 437.5,269.5C 441.924,266.582 445.924,263.082 449.5,259C 451.078,257.906 452.745,257.072 454.5,256.5 Z"/></g>
<g><path style="opacity:1" fill="#bcbcba" d="M 476.5,294.5 C 478.774,299.383 480.774,304.383 482.5,309.5C 481.869,311.448 480.869,313.281 479.5,315C 473.167,315.333 466.833,315.667 460.5,316C 457.756,316.803 455.089,317.803 452.5,319C 440.783,328.385 428.783,337.385 416.5,346C 400.244,354.599 384.244,363.599 368.5,373C 357.61,376.493 347.276,375.159 337.5,369C 316.815,354.475 304.648,334.642 301,309.5C 300.623,308.058 299.79,307.058 298.5,306.5C 298.5,305.167 298.5,303.833 298.5,302.5C 299.268,301.737 299.768,300.737 300,299.5C 306.786,306.379 313.119,313.713 319,321.5C 324.239,327.41 330.072,332.577 336.5,337C 340.211,337.844 343.877,338.844 347.5,340C 372.083,344.136 395.083,340.136 416.5,328C 418.871,326.594 420.538,324.594 421.5,322C 425.079,321.208 428.412,319.875 431.5,318C 440.64,310.431 450.974,305.098 462.5,302C 466.571,300.639 469.905,298.305 472.5,295C 473.793,294.51 475.127,294.343 476.5,294.5 Z"/></g>
<g><path style="opacity:1" fill="#cfcfce" d="M 298.5,306.5 C 299.79,307.058 300.623,308.058 301,309.5C 304.648,334.642 316.815,354.475 337.5,369C 347.276,375.159 357.61,376.493 368.5,373C 384.244,363.599 400.244,354.599 416.5,346C 428.783,337.385 440.783,328.385 452.5,319C 455.089,317.803 457.756,316.803 460.5,316C 466.833,315.667 473.167,315.333 479.5,315C 480.869,313.281 481.869,311.448 482.5,309.5C 483.736,311.649 484.736,313.982 485.5,316.5C 479.908,320.571 473.742,321.571 467,319.5C 460.081,319.544 453.914,321.71 448.5,326C 437.725,335.885 426.058,344.552 413.5,352C 398.339,360.08 383.339,368.413 368.5,377C 355.317,381.04 343.317,378.707 332.5,370C 315.001,356.817 303.668,339.651 298.5,318.5C 298.5,314.5 298.5,310.5 298.5,306.5 Z"/></g>
<g><path style="opacity:1" fill="#5b5b5c" d="M 522.5,316.5 C 522.657,315.127 522.49,313.793 522,312.5C 514.5,305.285 510.5,296.618 510,286.5C 512.21,283.71 515.044,282.877 518.5,284C 519.949,285.117 521.616,285.784 523.5,286C 530.225,291.054 537.225,295.721 544.5,300C 547.866,305.502 548.366,311.335 546,317.5C 542.677,323.908 537.511,326.075 530.5,324C 527.964,321.295 525.297,318.795 522.5,316.5 Z"/></g>
<g><path style="opacity:1" fill="#7e7e7f" d="M 514.5,286.5 C 524.276,290.335 533.276,295.669 541.5,302.5C 545.96,308.983 545.293,314.816 539.5,320C 534.883,321.297 531.05,320.13 528,316.5C 525,312.833 522,309.167 519,305.5C 518.112,300.831 516.445,296.497 514,292.5C 513.322,290.402 513.489,288.402 514.5,286.5 Z"/></g>
<g><path style="opacity:1" fill="#ac7807" d="M 454.5,256.5 C 455.919,255.549 457.585,255.216 459.5,255.5C 459.747,258.505 458.747,261.005 456.5,263C 447.396,267.097 439.729,273.097 433.5,281C 419.696,290.4 404.696,297.4 388.5,302C 371.148,305.24 353.814,307.906 336.5,310C 338.208,312.043 340.208,313.71 342.5,315C 348.987,314.91 354.987,316.577 360.5,320C 381.734,325.185 402.734,324.351 423.5,317.5C 416.46,323.691 408.46,328.357 399.5,331.5C 390.856,332.507 382.189,332.673 373.5,332C 356.841,330.674 342.175,324.674 329.5,314C 324.94,310.218 325.607,307.885 331.5,307C 339.833,306.667 348.167,306.333 356.5,306C 366.39,303.689 376.39,302.022 386.5,301C 393.231,298.867 399.898,296.534 406.5,294C 411.037,290.6 416.037,287.933 421.5,286C 431.613,275.448 443.28,267.115 456.5,261C 457.38,259.644 457.714,258.144 457.5,256.5C 456.5,256.5 455.5,256.5 454.5,256.5 Z"/></g>
<g><path style="opacity:1" fill="#fcfcfa" d="M 488.5,323.5 C 500.644,344.459 510.644,366.459 518.5,389.5C 518.631,390.239 518.464,390.906 518,391.5C 515.146,388.984 512.479,389.317 510,392.5C 507.031,400.442 503.031,407.775 498,414.5C 488.809,421.677 478.309,425.511 466.5,426C 448.19,427.648 429.857,428.981 411.5,430C 407.981,430.395 404.648,431.395 401.5,433C 400.446,434.388 400.28,435.888 401,437.5C 405.363,440.625 410.196,442.792 415.5,444C 445.042,447.372 473.375,455.039 500.5,467C 507.1,470.605 513.434,474.605 519.5,479C 527.87,487.038 536.536,494.705 545.5,502C 548.881,504.245 552.548,504.912 556.5,504C 558.487,502.681 559.654,500.848 560,498.5C 560.089,487.101 556.756,476.767 550,467.5C 542.912,458.243 536.412,448.576 530.5,438.5C 530.624,437.893 530.957,437.56 531.5,437.5C 536.134,442.305 540.634,447.305 545,452.5C 568.832,486.324 582.166,523.991 585,565.5C 586.034,598.623 584.534,631.623 580.5,664.5C 573.817,664.053 567.15,663.386 560.5,662.5C 556.883,662.398 553.55,663.065 550.5,664.5C 548.847,664.66 547.514,665.326 546.5,666.5C 545.5,666.833 544.833,667.5 544.5,668.5C 543.5,668.833 542.833,669.5 542.5,670.5C 539.024,676.293 537.691,682.626 538.5,689.5C 538.5,691.833 538.5,694.167 538.5,696.5C 538.5,698.167 538.5,699.833 538.5,701.5C 516.559,700.798 504.225,711.132 501.5,732.5C 504.13,753.762 505.797,775.095 506.5,796.5C 486.99,815.934 464.657,831.434 439.5,843C 387.673,862.282 337.34,859.115 288.5,833.5C 283.409,826.32 278.076,819.32 272.5,812.5C 267.783,807.118 263.45,801.451 259.5,795.5C 267.027,797.474 274.694,797.974 282.5,797C 297.895,792.737 304.728,782.571 303,766.5C 298.882,753.107 291.382,741.94 280.5,733C 252.215,711.686 224.882,689.186 198.5,665.5C 197.167,663.5 195.5,661.833 193.5,660.5C 191.539,658.037 189.372,655.703 187,653.5C 186.5,644.173 186.334,634.839 186.5,625.5C 189.364,577.244 202.364,531.911 225.5,489.5C 228.134,487.798 230.801,485.964 233.5,484C 239.558,478.278 245.224,472.278 250.5,466C 261.478,459.174 272.812,452.841 284.5,447C 287.215,446.125 288.548,444.292 288.5,441.5C 277.662,440.962 267.662,437.962 258.5,432.5C 254.104,425.849 252.438,418.515 253.5,410.5C 256.934,400.964 261.434,391.964 267,383.5C 274,373.5 281,363.5 288,353.5C 291.681,347.144 294.514,340.478 296.5,333.5C 303.965,348.153 313.965,360.986 326.5,372C 340.325,384.371 355.992,387.371 373.5,381C 387.906,372.133 402.572,363.799 417.5,356C 431.043,347.133 444.043,337.466 456.5,327C 462.828,324.251 469.328,323.751 476,325.5C 480.297,325.517 484.463,324.851 488.5,323.5 Z"/></g>
<g><path style="opacity:1" fill="#9d9c98" d="M 473.5,288.5 C 474.5,290.5 475.5,292.5 476.5,294.5C 475.127,294.343 473.793,294.51 472.5,295C 469.905,298.305 466.571,300.639 462.5,302C 450.974,305.098 440.64,310.431 431.5,318C 428.412,319.875 425.079,321.208 421.5,322C 420.538,324.594 418.871,326.594 416.5,328C 395.083,340.136 372.083,344.136 347.5,340C 343.877,338.844 340.211,337.844 336.5,337C 330.072,332.577 324.239,327.41 319,321.5C 313.119,313.713 306.786,306.379 300,299.5C 299.768,300.737 299.268,301.737 298.5,302.5C 298.505,298.466 298.838,294.466 299.5,290.5C 299.833,290.5 300.167,290.5 300.5,290.5C 308.925,299.092 316.425,308.425 323,318.5C 329.466,326.972 337.633,333.139 347.5,337C 365.563,341.241 382.896,339.407 399.5,331.5C 408.46,328.357 416.46,323.691 423.5,317.5C 430.629,312.097 437.962,306.93 445.5,302C 451.488,298.506 457.821,295.839 464.5,294C 467.862,292.657 470.862,290.824 473.5,288.5 Z"/></g>
<g><path style="opacity:1" fill="#dddddc" d="M 485.5,316.5 C 486.773,318.713 487.773,321.046 488.5,323.5C 484.463,324.851 480.297,325.517 476,325.5C 469.328,323.751 462.828,324.251 456.5,327C 444.043,337.466 431.043,347.133 417.5,356C 402.572,363.799 387.906,372.133 373.5,381C 355.992,387.371 340.325,384.371 326.5,372C 313.965,360.986 303.965,348.153 296.5,333.5C 297.426,328.537 298.092,323.537 298.5,318.5C 303.668,339.651 315.001,356.817 332.5,370C 343.317,378.707 355.317,381.04 368.5,377C 383.339,368.413 398.339,360.08 413.5,352C 426.058,344.552 437.725,335.885 448.5,326C 453.914,321.71 460.081,319.544 467,319.5C 473.742,321.571 479.908,320.571 485.5,316.5 Z"/></g>
<g><path style="opacity:1" fill="#f2f2f0" d="M 518.5,389.5 C 520.266,393.285 521.766,397.285 523,401.5C 526.045,413.58 528.878,425.58 531.5,437.5C 530.957,437.56 530.624,437.893 530.5,438.5C 536.412,448.576 542.912,458.243 550,467.5C 556.756,476.767 560.089,487.101 560,498.5C 559.654,500.848 558.487,502.681 556.5,504C 552.548,504.912 548.881,504.245 545.5,502C 536.536,494.705 527.87,487.038 519.5,479C 513.434,474.605 507.1,470.605 500.5,467C 473.375,455.039 445.042,447.372 415.5,444C 410.196,442.792 405.363,440.625 401,437.5C 400.28,435.888 400.446,434.388 401.5,433C 404.648,431.395 407.981,430.395 411.5,430C 429.857,428.981 448.19,427.648 466.5,426C 478.309,425.511 488.809,421.677 498,414.5C 503.031,407.775 507.031,400.442 510,392.5C 512.479,389.317 515.146,388.984 518,391.5C 518.464,390.906 518.631,390.239 518.5,389.5 Z"/></g>
<g><path style="opacity:1" fill="#e1e1df" d="M 497.5,458.5 C 502.5,459.501 507.167,461.334 511.5,464C 519.341,469.087 527.008,474.42 534.5,480C 537.309,481.741 540.309,482.908 543.5,483.5C 543.477,481.073 542.977,478.74 542,476.5C 535.843,464.684 528.51,453.684 520,443.5C 513.071,436.136 504.571,432.136 494.5,431.5C 480.519,433.164 466.519,434.664 452.5,436C 449.823,436.249 447.49,437.249 445.5,439C 458.048,443.516 470.715,447.85 483.5,452C 486.008,453.45 488.675,454.617 491.5,455.5C 492.548,456.548 493.548,457.548 494.5,458.5C 488.838,456.78 483.171,454.946 477.5,453C 471.598,448.589 464.931,446.589 457.5,447C 451.25,445.082 444.917,443.416 438.5,442C 435.554,441.194 432.888,439.861 430.5,438C 432.026,436.113 434.026,435.113 436.5,435C 448.798,433.367 461.131,432.033 473.5,431C 483.452,429.516 492.785,426.349 501.5,421.5C 502.859,419.308 504.692,417.641 507,416.5C 507.471,412.694 509.471,410.028 513,408.5C 513.945,408.905 514.612,409.572 515,410.5C 516.603,421.245 519.603,431.579 524,441.5C 534.035,454.922 543.035,468.922 551,483.5C 551.667,486.5 551.667,489.5 551,492.5C 548.502,493.598 546.002,493.432 543.5,492C 528.947,479.577 513.614,468.41 497.5,458.5 Z"/></g>
<g><path style="opacity:1" fill="#d2d2d1" d="M 251.5,416.5 C 250.783,425.25 254.117,432.417 261.5,438C 266.248,440.516 271.248,442.35 276.5,443.5C 277.583,444.365 277.749,445.365 277,446.5C 261.521,455.391 247.188,465.724 234,477.5C 233.688,480.309 232.188,481.976 229.5,482.5C 234.819,472.529 240.653,462.862 247,453.5C 247.333,444.833 247.667,436.167 248,427.5C 248.864,423.616 250.03,419.949 251.5,416.5 Z"/></g>
<g><path style="opacity:1" fill="#d2d2d1" d="M 497.5,458.5 C 496.5,458.5 495.5,458.5 494.5,458.5C 493.548,457.548 492.548,456.548 491.5,455.5C 488.675,454.617 486.008,453.45 483.5,452C 470.715,447.85 458.048,443.516 445.5,439C 447.49,437.249 449.823,436.249 452.5,436C 466.519,434.664 480.519,433.164 494.5,431.5C 504.571,432.136 513.071,436.136 520,443.5C 528.51,453.684 535.843,464.684 542,476.5C 542.977,478.74 543.477,481.073 543.5,483.5C 540.309,482.908 537.309,481.741 534.5,480C 527.008,474.42 519.341,469.087 511.5,464C 507.167,461.334 502.5,459.501 497.5,458.5 Z"/></g>
<g><path style="opacity:1" fill="#e8e8e6" d="M 253.5,410.5 C 252.438,418.515 254.104,425.849 258.5,432.5C 267.662,437.962 277.662,440.962 288.5,441.5C 288.548,444.292 287.215,446.125 284.5,447C 272.812,452.841 261.478,459.174 250.5,466C 245.224,472.278 239.558,478.278 233.5,484C 230.801,485.964 228.134,487.798 225.5,489.5C 226.596,486.968 227.929,484.635 229.5,482.5C 232.188,481.976 233.688,480.309 234,477.5C 247.188,465.724 261.521,455.391 277,446.5C 277.749,445.365 277.583,444.365 276.5,443.5C 271.248,442.35 266.248,440.516 261.5,438C 254.117,432.417 250.783,425.25 251.5,416.5C 251.595,414.214 252.262,412.214 253.5,410.5 Z"/></g>
<g><path style="opacity:1" fill="#272729" d="M 630.5,635.5 C 629.761,635.631 629.094,635.464 628.5,635C 634.459,619.79 639.626,604.29 644,588.5C 647.826,572.006 648.493,555.339 646,538.5C 644.783,523.621 640.783,509.621 634,496.5C 633.184,495.177 632.017,494.511 630.5,494.5C 621.609,484.269 612.275,474.269 602.5,464.5C 597.69,463.863 593.69,461.696 590.5,458C 587.5,456.833 584.5,455.667 581.5,454.5C 580.893,454.624 580.56,454.957 580.5,455.5C 576.228,453.226 572.228,450.559 568.5,447.5C 568.62,446.414 569.287,445.747 570.5,445.5C 607.808,457.47 632.975,482.137 646,519.5C 651.661,542.317 651.994,565.317 647,588.5C 645.701,589.09 644.868,590.09 644.5,591.5C 643.774,595.522 642.941,599.522 642,603.5C 637.48,613.891 633.647,624.558 630.5,635.5 Z"/></g>
<g><path style="opacity:1" fill="#222223" d="M 595.5,486.5 C 605.27,486.806 612.103,491.473 616,500.5C 619.864,514.986 614.198,522.319 599,522.5C 585.873,521.213 581.54,514.213 586,501.5C 587.695,495.416 590.861,490.416 595.5,486.5 Z"/></g>
<g><path style="opacity:1" fill="#3a3a3b" d="M 597.5,494.5 C 608.629,495.28 612.629,500.946 609.5,511.5C 605.07,515.572 600.07,516.405 594.5,514C 591.091,509.553 590.591,504.719 593,499.5C 594.025,497.313 595.525,495.646 597.5,494.5 Z"/></g>
<g><path style="opacity:1" fill="#eeeeec" d="M 329.5,524.5 C 332.649,525.16 334.149,527.16 334,530.5C 334.992,537.293 335.492,544.127 335.5,551C 334.054,576.68 332.388,602.346 330.5,628C 331.313,643.512 332.313,659.012 333.5,674.5C 333.881,679.662 332.881,684.495 330.5,689C 327.975,689.896 325.808,689.396 324,687.5C 322.725,685.283 321.725,682.949 321,680.5C 318.912,670.951 317.745,661.284 317.5,651.5C 319.456,619.185 320.956,586.852 322,554.5C 322.327,543.86 324.827,533.86 329.5,524.5 Z"/></g>
<g><path style="opacity:1" fill="#545455" d="M 580.5,455.5 C 580.56,454.957 580.893,454.624 581.5,454.5C 584.5,455.667 587.5,456.833 590.5,458C 593.69,461.696 597.69,463.863 602.5,464.5C 612.275,474.269 621.609,484.269 630.5,494.5C 632.717,498.284 634.884,502.284 637,506.5C 637.333,508.833 637.667,511.167 638,513.5C 640.634,517.062 642.301,521.062 643,525.5C 645.792,543.461 646.125,561.461 644,579.5C 638.408,598.112 632.908,616.779 627.5,635.5C 625.5,635.5 623.5,635.5 621.5,635.5C 631.852,608.592 637.852,580.759 639.5,552C 638.271,508.345 618.604,476.178 580.5,455.5 Z"/></g>
<g><path style="opacity:1" fill="#141415" d="M 634.5,635.5 C 633.167,635.5 631.833,635.5 630.5,635.5C 633.647,624.558 637.48,613.891 642,603.5C 642.941,599.522 643.774,595.522 644.5,591.5C 644.868,590.09 645.701,589.09 647,588.5C 651.994,565.317 651.661,542.317 646,519.5C 632.975,482.137 607.808,457.47 570.5,445.5C 569.287,445.747 568.62,446.414 568.5,447.5C 566.704,446.207 565.037,444.707 563.5,443C 568.19,442.668 572.857,443.002 577.5,444C 590.832,450.662 603.498,458.328 615.5,467C 629.273,479.769 639.44,494.935 646,512.5C 653.88,539.971 654.547,567.637 648,595.5C 643.583,608.919 639.083,622.252 634.5,635.5 Z"/></g>
<g><path style="opacity:1" fill="#29292b" d="M 215.5,462.5 C 215.565,462.062 215.399,461.728 215,461.5C 214.25,462.126 213.416,462.626 212.5,463C 210,466.833 206.833,470 203,472.5C 197.333,480.833 191.667,489.167 186,497.5C 179.124,516.667 171.791,535.667 164,554.5C 163.333,557.167 162.667,559.833 162,562.5C 161.667,574.167 161.333,585.833 161,597.5C 160.434,604.219 157.767,609.885 153,614.5C 152.333,616.5 152.333,618.5 153,620.5C 155.752,623.578 158.086,626.911 160,630.5C 162.396,633.999 165.229,636.999 168.5,639.5C 174.304,647.469 181.304,654.303 189.5,660C 190.793,660.49 192.127,660.657 193.5,660.5C 195.5,661.833 197.167,663.5 198.5,665.5C 191.404,666.189 185.071,664.356 179.5,660C 171.746,652.251 165.579,643.417 161,633.5C 157.633,629.797 153.966,626.464 150,623.5C 149.333,620.167 149.333,616.833 150,613.5C 153.142,610.698 155.475,607.365 157,603.5C 157.106,588.794 157.773,574.127 159,559.5C 162.632,546.934 167.299,534.934 173,523.5C 174.672,517.818 176.339,512.151 178,506.5C 183.686,496.032 189.852,485.698 196.5,475.5C 198.576,473.712 200.743,472.046 203,470.5C 205.893,464.103 210.727,460.103 217.5,458.5C 218.044,460.095 217.377,461.429 215.5,462.5 Z"/></g>
<g><path style="opacity:1" fill="#404041" d="M 215.5,462.5 C 212.066,467.716 208.399,472.716 204.5,477.5C 204.565,477.062 204.399,476.728 204,476.5C 199.429,480.726 196.096,485.726 194,491.5C 192.89,493.037 191.39,493.703 189.5,493.5C 186.845,499.171 185.012,505.171 184,511.5C 178.835,519.436 175.169,528.103 173,537.5C 169.736,543.207 167.069,549.207 165,555.5C 164.333,558.167 163.667,560.833 163,563.5C 162.667,576.167 162.333,588.833 162,601.5C 160.085,607.206 157.585,612.539 154.5,617.5C 158.027,622.539 162.193,627.205 167,631.5C 168.252,634.014 168.752,636.68 168.5,639.5C 165.229,636.999 162.396,633.999 160,630.5C 158.086,626.911 155.752,623.578 153,620.5C 152.333,618.5 152.333,616.5 153,614.5C 157.767,609.885 160.434,604.219 161,597.5C 161.333,585.833 161.667,574.167 162,562.5C 162.667,559.833 163.333,557.167 164,554.5C 171.791,535.667 179.124,516.667 186,497.5C 191.667,489.167 197.333,480.833 203,472.5C 206.833,470 210,466.833 212.5,463C 213.416,462.626 214.25,462.126 215,461.5C 215.399,461.728 215.565,462.062 215.5,462.5 Z"/></g>
<g><path style="opacity:1" fill="#5d5d5d" d="M 204.5,477.5 C 193.625,496.582 183.792,516.249 175,536.5C 165.454,559.327 162.454,582.993 166,607.5C 167.114,624.535 173.447,639.202 185,651.5C 185.17,642.657 185.67,633.99 186.5,625.5C 186.334,634.839 186.5,644.173 187,653.5C 189.372,655.703 191.539,658.037 193.5,660.5C 192.127,660.657 190.793,660.49 189.5,660C 181.304,654.303 174.304,647.469 168.5,639.5C 168.752,636.68 168.252,634.014 167,631.5C 162.193,627.205 158.027,622.539 154.5,617.5C 157.585,612.539 160.085,607.206 162,601.5C 162.333,588.833 162.667,576.167 163,563.5C 163.667,560.833 164.333,558.167 165,555.5C 167.069,549.207 169.736,543.207 173,537.5C 175.169,528.103 178.835,519.436 184,511.5C 185.012,505.171 186.845,499.171 189.5,493.5C 191.39,493.703 192.89,493.037 194,491.5C 196.096,485.726 199.429,480.726 204,476.5C 204.399,476.728 204.565,477.062 204.5,477.5 Z"/></g>
<g><path style="opacity:1" fill="#3c3c3d" d="M 630.5,494.5 C 632.017,494.511 633.184,495.177 634,496.5C 640.783,509.621 644.783,523.621 646,538.5C 648.493,555.339 647.826,572.006 644,588.5C 639.626,604.29 634.459,619.79 628.5,635C 629.094,635.464 629.761,635.631 630.5,635.5C 631.833,635.5 633.167,635.5 634.5,635.5C 649.709,638.058 664.709,641.058 679.5,644.5C 676.15,644.335 672.817,644.502 669.5,645C 668.483,646.049 668.316,647.216 669,648.5C 674.735,655.07 681.235,660.737 688.5,665.5C 695.66,662.179 696.326,657.679 690.5,652C 686.841,649.699 683.508,647.199 680.5,644.5C 687.495,646.17 693.161,649.836 697.5,655.5C 698.511,659.112 698.678,662.779 698,666.5C 693.745,672.108 688.412,676.108 682,678.5C 680.564,678.441 679.231,678.108 678,677.5C 678.245,673.187 678.245,668.853 678,664.5C 673.132,658.789 667.298,654.455 660.5,651.5C 659.136,648.983 657.136,647.149 654.5,646C 642.325,642.352 629.991,641.352 617.5,643C 612.612,644.947 607.946,647.114 603.5,649.5C 602.624,649.631 601.957,649.298 601.5,648.5C 606.827,642.166 613.494,637.833 621.5,635.5C 623.5,635.5 625.5,635.5 627.5,635.5C 632.908,616.779 638.408,598.112 644,579.5C 646.125,561.461 645.792,543.461 643,525.5C 642.301,521.062 640.634,517.062 638,513.5C 637.667,511.167 637.333,508.833 637,506.5C 634.884,502.284 632.717,498.284 630.5,494.5 Z"/></g>
<g><path style="opacity:1" fill="#e9b209" d="M 192.5,703.5 C 196.438,706.676 199.938,710.343 203,714.5C 206.49,722.001 210.156,729.334 214,736.5C 215.011,737.337 216.178,737.67 217.5,737.5C 218.641,740.833 220.474,743.833 223,746.5C 223.333,748.167 223.667,749.833 224,751.5C 225.643,754.41 227.643,757.077 230,759.5C 230.49,760.793 230.657,762.127 230.5,763.5C 235.904,768 239.738,773.666 242,780.5C 243.271,781.883 244.771,782.883 246.5,783.5C 247.758,789.344 250.591,794.344 255,798.5C 257.957,804.045 260.457,809.712 262.5,815.5C 264.182,822.27 265.849,828.936 267.5,835.5C 267.44,836.043 267.107,836.376 266.5,836.5C 265.851,834.376 265.017,832.376 264,830.5C 263.333,833.167 262.667,833.167 262,830.5C 262.063,833.487 262.897,836.32 264.5,839C 263.978,839.561 263.645,840.228 263.5,841C 267.858,856.166 265.691,870.999 257,885.5C 246.502,897.168 233.668,903.501 218.5,904.5C 199.213,901.349 180.713,895.682 163,887.5C 135.144,881.124 106.977,874.957 78.5,869C 67.4267,864.908 55.76,861.908 43.5,860C 36.8785,857.61 31.7118,853.443 28,847.5C 26.1276,842.848 26.1276,838.182 28,833.5C 30.2696,826.025 32.9363,818.691 36,811.5C 38.0472,804.258 38.8805,797.092 38.5,790C 35.9026,775.773 32.9026,761.607 29.5,747.5C 28.2216,729.268 36.7216,718.934 55,716.5C 66.5472,717.995 78.3805,718.495 90.5,718C 103.858,715.749 112.691,708.249 117,695.5C 118.845,686.824 121.012,678.324 123.5,670C 125.236,659.578 131.402,652.744 142,649.5C 150.902,650.615 158.569,654.615 165,661.5C 174.871,677.913 184.204,694.579 193,711.5C 193.374,710.584 193.874,709.75 194.5,709C 194.413,707.25 193.746,705.417 192.5,703.5 Z"/></g>
<g><path style="opacity:1" fill="#f0b80b" d="M 204.5,728.5 C 211.013,742.813 217.847,757.146 225,771.5C 226.767,772.817 228.101,774.484 229,776.5C 229.699,778.074 229.365,779.407 228,780.5C 226.786,778.951 225.286,777.785 223.5,777C 223.833,776.667 224.167,776.333 224.5,776C 223.08,773.791 221.413,771.791 219.5,770C 219.833,769.667 220.167,769.333 220.5,769C 216.405,765.645 213.239,761.479 211,756.5C 210.667,756.833 210.333,757.167 210,757.5C 209.426,755.508 208.259,754.008 206.5,753C 207.451,752.282 207.617,751.449 207,750.5C 206.333,749.167 205.667,749.167 205,750.5C 198.966,741.498 193.966,732.498 190,723.5C 189.086,724.654 188.253,724.487 187.5,723C 187.835,721.497 187.835,720.164 187.5,719C 186.672,718.085 185.672,717.419 184.5,717C 185.641,714.298 184.641,712.631 181.5,712C 181.957,711.586 182.291,711.086 182.5,710.5C 181.833,710.167 181.167,709.833 180.5,709.5C 180.746,708.227 180.746,707.06 180.5,706C 177.836,700.852 174.836,696.519 171.5,693C 173.878,692.026 173.544,691.359 170.5,691C 172.878,690.026 172.544,689.359 169.5,689C 171.878,688.026 171.544,687.359 168.5,687C 169.634,685.984 169.301,685.317 167.5,685C 167.833,684.667 168.167,684.333 168.5,684C 167.386,682.551 166.386,681.217 165.5,680C 166.345,678.442 165.679,677.442 163.5,677C 163.833,676.667 164.167,676.333 164.5,676C 160.683,672.031 157.35,667.697 154.5,663C 149.135,658.854 143.469,657.854 137.5,660C 135.028,661.601 134.028,663.601 134.5,666C 132.875,666.853 132.542,667.853 133.5,669C 131.408,669.953 131.075,671.286 132.5,673C 130.854,674.555 130.521,676.221 131.5,678C 130.455,679.616 129.455,681.283 128.5,683C 129.1,685.398 129.1,688.065 128.5,691C 126.833,694.667 125.167,698.333 123.5,702C 124.167,702.333 124.833,702.667 125.5,703C 124.328,703.419 123.328,704.085 122.5,705C 122.165,706.164 122.165,707.497 122.5,709C 119.432,712.327 116.432,714.994 113.5,717C 113.833,717.333 114.167,717.667 114.5,718C 113.552,718.483 112.552,718.649 111.5,718.5C 111.5,719.5 111.5,720.5 111.5,721.5C 109.833,721.5 108.167,721.5 106.5,721.5C 106.881,723.942 106.214,724.609 104.5,723.5C 101.418,724.254 98.2515,725.587 95,727.5C 93.6054,726.185 92.6054,726.519 92,728.5C 85.3776,727.345 78.711,727.345 72,728.5C 71.6924,727.692 71.1924,727.025 70.5,726.5C 67.8692,726.929 64.8692,727.263 61.5,727.5C 60.3774,726.456 59.0441,725.79 57.5,725.5C 53.3861,726.324 49.0528,727.657 44.5,729.5C 42.2786,730.116 41.6119,731.283 42.5,733C 40.9496,734.996 39.6162,737.162 38.5,739.5C 41.0142,741.799 41.0142,744.132 38.5,746.5C 39.0253,747.192 39.6919,747.692 40.5,748C 39.9106,749.889 39.5773,751.889 39.5,754C 40.13,755.892 41.13,757.559 42.5,759C 42.5385,760.245 42.2052,761.578 41.5,763C 42.4265,767.688 44.0931,772.021 46.5,776C 45.9805,778.026 45.6472,780.026 45.5,782C 46.1667,782.667 46.8333,783.333 47.5,784C 47.3349,785.117 47.0016,786.284 46.5,787.5C 47.0253,788.192 47.6919,788.692 48.5,789C 47.6919,789.308 47.0253,789.808 46.5,790.5C 46.5,793.5 46.5,796.5 46.5,799.5C 48.9913,800.541 48.9913,801.374 46.5,802C 47.2535,804.286 47.2535,806.786 46.5,809.5C 44.9838,812.243 43.6505,815.076 42.5,818C 43.4581,819.147 43.1247,820.147 41.5,821C 41.8333,821.333 42.1667,821.667 42.5,822C 39.9532,823.316 39.2865,825.149 40.5,827.5C 39.5,828.333 38.5,829.167 37.5,830C 36.9698,831.256 36.9698,832.756 37.5,834.5C 33.5883,839.929 34.9216,844.095 41.5,847C 40.6598,848.666 41.1598,848.833 43,847.5C 43.6054,849.481 44.6054,849.815 46,848.5C 51.7657,850.63 57.5991,852.63 63.5,854.5C 64.1667,854.167 64.8333,853.833 65.5,853.5C 68.5336,854.434 71.3669,855.767 74,857.5C 74.5613,856.978 75.228,856.645 76,856.5C 78.2252,858.75 80.7252,859.417 83.5,858.5C 87.3862,861.308 91.5528,862.308 96,861.5C 104.877,864.079 113.877,866.412 123,868.5C 125.205,868.912 127.538,868.912 130,868.5C 133.718,869.896 137.551,871.229 141.5,872.5C 146.943,872.153 152.109,873.487 157,876.5C 159.299,875.621 161.299,876.288 163,878.5C 164.406,877.332 165.572,877.665 166.5,879.5C 167.842,878.098 168.676,878.431 169,880.5C 170.395,879.185 171.395,879.519 172,881.5C 173.609,880.85 175.109,881.35 176.5,883C 178.101,883.273 179.601,883.773 181,884.5C 182.016,883.366 182.683,883.699 183,885.5C 184.164,885.835 185.497,885.835 187,885.5C 187.317,887.301 187.984,887.634 189,886.5C 189.317,888.301 189.984,888.634 191,887.5C 193.667,888.833 196.333,890.167 199,891.5C 200.68,890.397 202.18,890.73 203.5,892.5C 205.163,891.125 206.497,891.458 207.5,893.5C 209.235,892.943 210.902,892.61 212.5,892.5C 215.371,895.113 218.205,895.113 221,892.5C 222,892.833 223,893.167 224,893.5C 226.57,892.991 228.903,891.991 231,890.5C 231.333,890.833 231.667,891.167 232,891.5C 238.953,888.11 244.786,883.944 249.5,879C 248.72,877.927 248.887,876.76 250,875.5C 250.333,875.833 250.667,876.167 251,876.5C 252.368,875.007 252.535,873.507 251.5,872C 252.438,870.937 253.438,869.77 254.5,868.5C 255.385,866.195 255.385,863.362 254.5,860C 255.167,859.667 255.833,859.333 256.5,859C 256.5,855 256.5,851 256.5,847C 254.854,845.445 254.521,843.779 255.5,842C 254.833,841.667 254.167,841.333 253.5,841C 253.833,839.333 254.167,837.667 254.5,836C 251.798,831.483 249.465,826.15 247.5,820C 247.112,818.475 247.112,816.808 247.5,815C 242.822,807.825 238.489,800.325 234.5,792.5C 235.756,793.03 237.256,793.03 239,792.5C 242.41,796.416 246.243,799.749 250.5,802.5C 251.662,803.678 252.662,804.845 253.5,806C 252.692,806.308 252.025,806.808 251.5,807.5C 251.846,808.696 252.346,808.696 253,807.5C 253.617,808.449 253.451,809.282 252.5,810C 255.897,812.576 256.23,815.41 253.5,818.5C 260.753,834.823 262.919,851.49 260,868.5C 255.043,883.627 245.043,893.627 230,898.5C 220.735,898.636 211.735,898.636 203,898.5C 183.092,890.308 162.758,883.308 142,877.5C 111.442,872.47 81.7754,865.47 53,856.5C 30.9883,853.813 25.3216,842.479 36,822.5C 40.2479,811.758 42.4145,801.092 42.5,790.5C 39.6079,776.54 36.7746,762.54 34,748.5C 31.429,732.242 38.2623,722.909 54.5,720.5C 60.2137,719.903 66.0471,720.57 72,722.5C 78.297,722.583 84.797,722.416 91.5,722C 104.932,719.825 113.932,712.825 118.5,701C 121.111,696.851 122.444,692.517 122.5,688C 124.004,678.482 126.671,669.315 130.5,660.5C 140.153,651.224 149.987,651.557 160,661.5C 169.834,675.086 177.667,688.92 183.5,703C 190.002,714.394 196.336,725.394 202.5,736C 203.6,736.432 204.267,735.932 204.5,734.5C 203.347,732.432 203.347,730.432 204.5,728.5 Z"/></g>
<g><path style="opacity:1" fill="#5b5b5c" d="M 679.5,644.5 C 679.833,644.5 680.167,644.5 680.5,644.5C 683.508,647.199 686.841,649.699 690.5,652C 696.326,657.679 695.66,662.179 688.5,665.5C 681.235,660.737 674.735,655.07 669,648.5C 668.316,647.216 668.483,646.049 669.5,645C 672.817,644.502 676.15,644.335 679.5,644.5 Z"/></g>
<g><path style="opacity:1" fill="#19191a" d="M 697.5,655.5 C 702.231,659.901 703.564,665.235 701.5,671.5C 701.942,672.739 702.609,673.739 703.5,674.5C 702.833,674.5 702.167,674.5 701.5,674.5C 697.812,674.178 695.145,675.678 693.5,679C 689.468,681.347 685.468,683.68 681.5,686C 677.594,687.434 673.594,687.767 669.5,687C 667.99,685.649 666.99,683.982 666.5,682C 667.736,678.193 669.736,674.859 672.5,672C 673.929,668.742 673.762,665.576 672,662.5C 666.347,658.2 660.18,654.7 653.5,652C 636.984,647.265 620.317,646.431 603.5,649.5C 607.946,647.114 612.612,644.947 617.5,643C 629.991,641.352 642.325,642.352 654.5,646C 657.136,647.149 659.136,648.983 660.5,651.5C 667.298,654.455 673.132,658.789 678,664.5C 678.245,668.853 678.245,673.187 678,677.5C 679.231,678.108 680.564,678.441 682,678.5C 688.412,676.108 693.745,672.108 698,666.5C 698.678,662.779 698.511,659.112 697.5,655.5 Z"/></g>
<g><path style="opacity:1" fill="#f4bc0b" d="M 204.5,728.5 C 204.56,727.957 204.893,727.624 205.5,727.5C 206.5,729.167 207.833,730.5 209.5,731.5C 211.119,736.071 213.285,740.404 216,744.5C 217.406,746.871 219.406,748.538 222,749.5C 223.248,755.28 226.082,759.947 230.5,763.5C 237.377,775.854 244.377,788.354 251.5,801C 250.944,801.383 250.611,801.883 250.5,802.5C 246.243,799.749 242.41,796.416 239,792.5C 237.256,793.03 235.756,793.03 234.5,792.5C 238.489,800.325 242.822,807.825 247.5,815C 247.112,816.808 247.112,818.475 247.5,820C 249.465,826.15 251.798,831.483 254.5,836C 254.167,837.667 253.833,839.333 253.5,841C 254.167,841.333 254.833,841.667 255.5,842C 254.521,843.779 254.854,845.445 256.5,847C 256.5,851 256.5,855 256.5,859C 255.833,859.333 255.167,859.667 254.5,860C 255.385,863.362 255.385,866.195 254.5,868.5C 253.438,869.77 252.438,870.937 251.5,872C 252.535,873.507 252.368,875.007 251,876.5C 250.667,876.167 250.333,875.833 250,875.5C 248.887,876.76 248.72,877.927 249.5,879C 244.786,883.944 238.953,888.11 232,891.5C 231.667,891.167 231.333,890.833 231,890.5C 228.903,891.991 226.57,892.991 224,893.5C 223,893.167 222,892.833 221,892.5C 218.205,895.113 215.371,895.113 212.5,892.5C 210.902,892.61 209.235,892.943 207.5,893.5C 206.497,891.458 205.163,891.125 203.5,892.5C 202.18,890.73 200.68,890.397 199,891.5C 196.333,890.167 193.667,888.833 191,887.5C 189.984,888.634 189.317,888.301 189,886.5C 187.984,887.634 187.317,887.301 187,885.5C 185.497,885.835 184.164,885.835 183,885.5C 182.683,883.699 182.016,883.366 181,884.5C 179.601,883.773 178.101,883.273 176.5,883C 175.109,881.35 173.609,880.85 172,881.5C 171.395,879.519 170.395,879.185 169,880.5C 168.676,878.431 167.842,878.098 166.5,879.5C 165.572,877.665 164.406,877.332 163,878.5C 161.299,876.288 159.299,875.621 157,876.5C 152.109,873.487 146.943,872.153 141.5,872.5C 137.551,871.229 133.718,869.896 130,868.5C 127.538,868.912 125.205,868.912 123,868.5C 113.877,866.412 104.877,864.079 96,861.5C 91.5528,862.308 87.3862,861.308 83.5,858.5C 80.7252,859.417 78.2252,858.75 76,856.5C 75.228,856.645 74.5613,856.978 74,857.5C 71.3669,855.767 68.5336,854.434 65.5,853.5C 64.8333,853.833 64.1667,854.167 63.5,854.5C 57.5991,852.63 51.7657,850.63 46,848.5C 44.6054,849.815 43.6054,849.481 43,847.5C 41.1598,848.833 40.6598,848.666 41.5,847C 34.9216,844.095 33.5883,839.929 37.5,834.5C 36.9698,832.756 36.9698,831.256 37.5,830C 38.5,829.167 39.5,828.333 40.5,827.5C 39.2865,825.149 39.9532,823.316 42.5,822C 42.1667,821.667 41.8333,821.333 41.5,821C 43.1247,820.147 43.4581,819.147 42.5,818C 43.6505,815.076 44.9838,812.243 46.5,809.5C 47.2535,806.786 47.2535,804.286 46.5,802C 48.9913,801.374 48.9913,800.541 46.5,799.5C 46.5,796.5 46.5,793.5 46.5,790.5C 47.0253,789.808 47.6919,789.308 48.5,789C 47.6919,788.692 47.0253,788.192 46.5,787.5C 47.0016,786.284 47.3349,785.117 47.5,784C 46.8333,783.333 46.1667,782.667 45.5,782C 45.6472,780.026 45.9805,778.026 46.5,776C 44.0931,772.021 42.4265,767.688 41.5,763C 42.2052,761.578 42.5385,760.245 42.5,759C 41.13,757.559 40.13,755.892 39.5,754C 39.5773,751.889 39.9106,749.889 40.5,748C 39.6919,747.692 39.0253,747.192 38.5,746.5C 41.0142,744.132 41.0142,741.799 38.5,739.5C 39.6162,737.162 40.9496,734.996 42.5,733C 41.6119,731.283 42.2786,730.116 44.5,729.5C 49.0528,727.657 53.3861,726.324 57.5,725.5C 59.0441,725.79 60.3774,726.456 61.5,727.5C 64.8692,727.263 67.8692,726.929 70.5,726.5C 71.1924,727.025 71.6924,727.692 72,728.5C 78.711,727.345 85.3776,727.345 92,728.5C 92.6054,726.519 93.6054,726.185 95,727.5C 98.2515,725.587 101.418,724.254 104.5,723.5C 106.214,724.609 106.881,723.942 106.5,721.5C 108.167,721.5 109.833,721.5 111.5,721.5C 111.5,720.5 111.5,719.5 111.5,718.5C 112.552,718.649 113.552,718.483 114.5,718C 114.167,717.667 113.833,717.333 113.5,717C 116.432,714.994 119.432,712.327 122.5,709C 122.165,707.497 122.165,706.164 122.5,705C 123.328,704.085 124.328,703.419 125.5,703C 124.833,702.667 124.167,702.333 123.5,702C 125.167,698.333 126.833,694.667 128.5,691C 129.1,688.065 129.1,685.398 128.5,683C 129.455,681.283 130.455,679.616 131.5,678C 130.521,676.221 130.854,674.555 132.5,673C 131.075,671.286 131.408,669.953 133.5,669C 132.542,667.853 132.875,666.853 134.5,666C 134.028,663.601 135.028,661.601 137.5,660C 143.469,657.854 149.135,658.854 154.5,663C 157.35,667.697 160.683,672.031 164.5,676C 164.167,676.333 163.833,676.667 163.5,677C 165.679,677.442 166.345,678.442 165.5,680C 166.386,681.217 167.386,682.551 168.5,684C 168.167,684.333 167.833,684.667 167.5,685C 169.301,685.317 169.634,685.984 168.5,687C 171.544,687.359 171.878,688.026 169.5,689C 172.544,689.359 172.878,690.026 170.5,691C 173.544,691.359 173.878,692.026 171.5,693C 174.836,696.519 177.836,700.852 180.5,706C 180.746,707.06 180.746,708.227 180.5,709.5C 181.167,709.833 181.833,710.167 182.5,710.5C 182.291,711.086 181.957,711.586 181.5,712C 184.641,712.631 185.641,714.298 184.5,717C 185.672,717.419 186.672,718.085 187.5,719C 187.835,720.164 187.835,721.497 187.5,723C 188.253,724.487 189.086,724.654 190,723.5C 193.966,732.498 198.966,741.498 205,750.5C 205.667,749.167 206.333,749.167 207,750.5C 207.617,751.449 207.451,752.282 206.5,753C 208.259,754.008 209.426,755.508 210,757.5C 210.333,757.167 210.667,756.833 211,756.5C 213.239,761.479 216.405,765.645 220.5,769C 220.167,769.333 219.833,769.667 219.5,770C 221.413,771.791 223.08,773.791 224.5,776C 224.167,776.333 223.833,776.667 223.5,777C 225.286,777.785 226.786,778.951 228,780.5C 229.365,779.407 229.699,778.074 229,776.5C 228.101,774.484 226.767,772.817 225,771.5C 217.847,757.146 211.013,742.813 204.5,728.5 Z"/></g>
<g><path style="opacity:0.987" fill="#c18a06" d="M 110.5,666.5 C 111.043,666.56 111.376,666.893 111.5,667.5C 109.333,675.166 107.167,682.833 105,690.5C 101.991,698.176 96.4914,703.009 88.5,705C 80.6854,705.341 73.0187,705.507 65.5,705.5C 40.1455,701.849 23.8121,712.349 16.5,737C 16.9002,742.534 16.9002,747.867 16.5,753C 18.8246,759.949 21.1579,766.949 23.5,774C 23.1667,774.333 22.8333,774.667 22.5,775C 26.6503,786.545 27.4837,798.379 25,810.5C 23.2335,818.028 20.9001,825.362 18,832.5C 13.111,849.536 18.2776,862.369 33.5,871C 56.0206,877.596 78.6872,883.596 101.5,889C 121.268,892.128 140.935,895.795 160.5,900C 177.048,905.738 193.715,911.072 210.5,916C 223.745,918.045 236.412,917.378 248.5,914C 272.603,900.219 281.769,879.052 276,850.5C 275.03,844.754 273.197,839.421 270.5,834.5C 268.305,830.108 266.805,825.441 266,820.5C 265.303,818.416 264.136,816.749 262.5,815.5C 260.457,809.712 257.957,804.045 255,798.5C 250.591,794.344 247.758,789.344 246.5,783.5C 244.647,779.136 242.147,775.136 239,771.5C 232.024,756.605 224.024,742.271 215,728.5C 213.872,726.655 213.372,724.655 213.5,722.5C 227.403,744.631 241.07,766.964 254.5,789.5C 254.318,791.591 254.652,793.591 255.5,795.5C 258.223,799.208 260.89,802.875 263.5,806.5C 264.481,814.281 267.314,821.281 272,827.5C 278.527,841.269 282.027,855.602 282.5,870.5C 276.798,905.88 256.132,922.88 220.5,921.5C 200.835,916.779 181.502,910.945 162.5,904C 138.221,899.294 113.888,894.961 89.5,891C 68.0738,886.394 47.0738,880.394 26.5,873C 21.5203,868.441 17.3537,863.275 14,857.5C 13.6393,854.475 13.1393,851.475 12.5,848.5C 12.3031,843.61 12.8031,838.61 14,833.5C 17.7579,823.063 20.5912,812.396 22.5,801.5C 21.281,795.882 19.9477,790.216 18.5,784.5C 19.9535,782.356 19.6201,780.523 17.5,779C 17.8333,778.667 18.1667,778.333 18.5,778C 17.8906,776.052 17.224,774.218 16.5,772.5C 14.0101,757.265 13.1768,741.931 14,726.5C 16.057,712.777 23.8903,704.61 37.5,702C 46.4785,700.325 55.4785,700.158 64.5,701.5C 76.1316,701.68 86.2983,698.013 95,690.5C 100.938,682.946 106.105,674.946 110.5,666.5 Z"/></g>
<g><path style="opacity:1" fill="#f0c512" d="M 587.5,666.5 C 588.5,666.5 589.5,666.5 590.5,666.5C 589.626,669.789 588.959,673.123 588.5,676.5C 585.702,677.706 583.535,679.706 582,682.5C 581.667,682.167 581.333,681.833 581,681.5C 580.009,682.939 578.676,683.939 577,684.5C 574.512,683.353 572.512,681.686 571,679.5C 570.667,679.833 570.333,680.167 570,680.5C 569.167,679.5 568.333,678.5 567.5,677.5C 563.908,676.213 560.574,674.547 557.5,672.5C 555.681,671.416 554.015,670.082 552.5,668.5C 552.977,667.522 553.643,666.689 554.5,666C 565.489,666.066 576.489,666.232 587.5,666.5 Z"/></g>
<g><path style="opacity:1" fill="#e7b01a" d="M 580.5,664.5 C 582.833,665.167 585.167,665.833 587.5,666.5C 576.489,666.232 565.489,666.066 554.5,666C 553.643,666.689 552.977,667.522 552.5,668.5C 554.015,670.082 555.681,671.416 557.5,672.5C 559.596,674.433 561.096,676.767 562,679.5C 562.389,687.654 563.222,695.987 564.5,704.5C 563.763,710.305 563.096,716.138 562.5,722C 562.889,737.495 562.889,752.828 562.5,768C 564.024,771.955 564.357,775.622 563.5,779C 565.385,788.809 566.051,798.476 565.5,808C 564.962,812.399 564.296,816.733 563.5,821C 564.454,824.776 564.121,828.776 562.5,833C 562.698,840.179 562.698,847.513 562.5,855C 563.747,866.92 570.747,873.92 583.5,876C 591.479,876.955 599.313,876.455 607,874.5C 607.414,874.957 607.914,875.291 608.5,875.5C 617.584,872.982 626.584,870.148 635.5,867C 653.333,856.585 670.999,845.918 688.5,835C 706.256,829.058 724.256,823.725 742.5,819C 752.421,815.693 760.921,810.193 768,802.5C 770.056,799.056 771.556,795.389 772.5,791.5C 771.946,789.39 771.112,787.39 770,785.5C 763.118,779.617 755.952,774.117 748.5,769C 744.29,764.958 740.29,760.792 736.5,756.5C 726.496,742.16 718.33,726.827 712,710.5C 710.817,703.083 709.317,695.749 707.5,688.5C 707.808,687.692 708.308,687.025 709,686.5C 711.651,689.076 714.818,690.409 718.5,690.5C 718.664,687.813 718.497,685.146 718,682.5C 715.044,682.043 713.211,680.377 712.5,677.5C 715.37,678.433 717.704,680.1 719.5,682.5C 721.178,685.552 721.845,688.885 721.5,692.5C 719.473,692.338 717.473,692.505 715.5,693C 717.398,701.537 719.564,710.037 722,718.5C 729.745,734.329 739.245,748.996 750.5,762.5C 756.807,767.659 763.474,772.159 770.5,776C 772.657,779.156 775.157,781.989 778,784.5C 780.632,791.745 779.632,798.412 775,804.5C 769.004,812.151 761.504,817.984 752.5,822C 732.833,828.333 713.167,834.667 693.5,841C 675.01,851.745 656.677,862.745 638.5,874C 622.251,880.704 605.751,884.538 589,885.5C 583.066,884.558 577.233,883.058 571.5,881C 568.167,878.333 564.833,875.667 561.5,873C 556.143,862.665 554.143,851.831 555.5,840.5C 557.622,827.035 558.622,813.201 558.5,799C 557.897,759.27 557.397,719.104 557,678.5C 555.359,674.677 552.526,672.677 548.5,672.5C 548.287,669.549 548.954,666.882 550.5,664.5C 553.55,663.065 556.883,662.398 560.5,662.5C 567.15,663.386 573.817,664.053 580.5,664.5 Z"/></g>
<g><path style="opacity:1" fill="#efb91d" d="M 557.5,672.5 C 560.574,674.547 563.908,676.213 567.5,677.5C 568.333,678.5 569.167,679.5 570,680.5C 570.333,680.167 570.667,679.833 571,679.5C 572.512,681.686 574.512,683.353 577,684.5C 578.676,683.939 580.009,682.939 581,681.5C 581.333,681.833 581.667,682.167 582,682.5C 583.535,679.706 585.702,677.706 588.5,676.5C 588.167,678.5 587.833,680.5 587.5,682.5C 578.358,687.943 574.024,696.11 574.5,707C 575.754,710.159 575.754,713.325 574.5,716.5C 575.314,719.297 575.981,722.13 576.5,725C 575.104,728.183 575.771,731.017 578.5,733.5C 581.921,759.672 597.754,773.339 626,774.5C 660.172,766.533 679.672,746.199 684.5,713.5C 686.441,709.736 687.441,705.736 687.5,701.5C 689.273,698.94 691.273,696.607 693.5,694.5C 692.553,696.734 691.886,699.068 691.5,701.5C 692.302,717.396 688.302,731.729 679.5,744.5C 680.491,746.123 679.824,747.123 677.5,747.5C 666.617,762.274 653.617,772.274 638.5,777.5C 637.459,779.991 636.626,779.991 636,777.5C 634.667,778.167 633.667,779.167 633,780.5C 632.667,779.833 632.333,779.167 632,778.5C 630.324,779.061 628.991,780.061 628,781.5C 627.5,781 627,780.5 626.5,780C 598.6,780.352 580.767,767.519 573,741.5C 572.667,741.833 572.333,742.167 572,742.5C 571.667,741.167 571.333,739.833 571,738.5C 570.667,738.833 570.333,739.167 570,739.5C 569.971,743.409 569.138,747.242 567.5,751C 567.755,753.767 568.422,756.433 569.5,759C 569.241,760.261 568.574,761.261 567.5,762C 568.077,764.024 568.077,766.191 567.5,768.5C 567.95,774.45 568.95,780.45 570.5,786.5C 570.02,796.487 570.02,806.32 570.5,816C 569.74,817.441 569.074,818.941 568.5,820.5C 569.167,820.833 569.833,821.167 570.5,821.5C 569.132,825.411 568.132,829.411 567.5,833.5C 567.992,837.742 567.992,842.075 567.5,846.5C 567.667,849.5 567.833,852.5 568,855.5C 569.369,863.858 574.535,868.691 583.5,870C 589.5,870.667 595.5,870.667 601.5,870C 615.404,868.264 629.07,863.93 642.5,857C 658.441,845.074 675.441,834.907 693.5,826.5C 694.086,826.709 694.586,827.043 695,827.5C 697.456,825.789 700.123,824.456 703,823.5C 703.333,823.833 703.667,824.167 704,824.5C 707.333,823.167 710.667,821.833 714,820.5C 715.343,821.214 716.676,820.88 718,819.5C 719.343,820.214 720.676,819.88 722,818.5C 723.667,818.5 725.333,818.5 727,818.5C 728.324,817.12 729.657,816.786 731,817.5C 731.333,816.833 731.667,816.167 732,815.5C 734,815.5 736,815.5 738,815.5C 740,814.167 742,812.833 744,811.5C 744.333,811.833 744.667,812.167 745,812.5C 751.962,809.272 758.128,804.938 763.5,799.5C 765.805,795.22 765.971,790.886 764,786.5C 755.667,780.167 747.333,773.833 739,767.5C 733.781,761.282 728.948,754.782 724.5,748C 724.833,747.667 725.167,747.333 725.5,747C 721.195,740.879 717.028,734.712 713,728.5C 712.152,725.302 710.652,722.469 708.5,720C 709.479,718.221 709.146,716.555 707.5,715C 707.5,713.333 707.5,711.667 707.5,710C 706.743,708.488 705.743,707.154 704.5,706C 705.488,703.58 705.155,701.247 703.5,699C 705.37,693.094 703.37,689.261 697.5,687.5C 699.635,683.429 700.968,679.095 701.5,674.5C 702.167,674.5 702.833,674.5 703.5,674.5C 704.959,674.433 706.292,674.766 707.5,675.5C 709.553,675.402 711.22,676.069 712.5,677.5C 713.211,680.377 715.044,682.043 718,682.5C 718.497,685.146 718.664,687.813 718.5,690.5C 714.818,690.409 711.651,689.076 709,686.5C 708.308,687.025 707.808,687.692 707.5,688.5C 709.317,695.749 710.817,703.083 712,710.5C 718.33,726.827 726.496,742.16 736.5,756.5C 740.29,760.792 744.29,764.958 748.5,769C 755.952,774.117 763.118,779.617 770,785.5C 771.112,787.39 771.946,789.39 772.5,791.5C 771.556,795.389 770.056,799.056 768,802.5C 760.921,810.193 752.421,815.693 742.5,819C 724.256,823.725 706.256,829.058 688.5,835C 670.999,845.918 653.333,856.585 635.5,867C 626.584,870.148 617.584,872.982 608.5,875.5C 607.914,875.291 607.414,874.957 607,874.5C 599.313,876.455 591.479,876.955 583.5,876C 570.747,873.92 563.747,866.92 562.5,855C 562.698,847.513 562.698,840.179 562.5,833C 564.121,828.776 564.454,824.776 563.5,821C 564.296,816.733 564.962,812.399 565.5,808C 566.051,798.476 565.385,788.809 563.5,779C 564.357,775.622 564.024,771.955 562.5,768C 562.889,752.828 562.889,737.495 562.5,722C 563.096,716.138 563.763,710.305 564.5,704.5C 563.222,695.987 562.389,687.654 562,679.5C 561.096,676.767 559.596,674.433 557.5,672.5 Z"/></g>
<g><path style="opacity:1" fill="#ca9508" d="M 166.5,658.5 C 169.13,660.628 171.63,662.961 174,665.5C 187.777,684.105 200.944,703.105 213.5,722.5C 213.372,724.655 213.872,726.655 215,728.5C 224.024,742.271 232.024,756.605 239,771.5C 242.147,775.136 244.647,779.136 246.5,783.5C 244.771,782.883 243.271,781.883 242,780.5C 239.738,773.666 235.904,768 230.5,763.5C 230.657,762.127 230.49,760.793 230,759.5C 227.643,757.077 225.643,754.41 224,751.5C 223.667,749.833 223.333,748.167 223,746.5C 220.474,743.833 218.641,740.833 217.5,737.5C 216.178,737.67 215.011,737.337 214,736.5C 210.156,729.334 206.49,722.001 203,714.5C 199.938,710.343 196.438,706.676 192.5,703.5C 191.886,701.717 190.72,700.384 189,699.5C 182.505,685.169 175.005,671.502 166.5,658.5 Z"/></g>
<g><path style="opacity:1" fill="#daa115" d="M 550.5,664.5 C 548.954,666.882 548.287,669.549 548.5,672.5C 552.526,672.677 555.359,674.677 557,678.5C 557.397,719.104 557.897,759.27 558.5,799C 558.622,813.201 557.622,827.035 555.5,840.5C 554.143,851.831 556.143,862.665 561.5,873C 564.833,875.667 568.167,878.333 571.5,881C 577.233,883.058 583.066,884.558 589,885.5C 605.751,884.538 622.251,880.704 638.5,874C 656.677,862.745 675.01,851.745 693.5,841C 713.167,834.667 732.833,828.333 752.5,822C 761.504,817.984 769.004,812.151 775,804.5C 779.632,798.412 780.632,791.745 778,784.5C 775.157,781.989 772.657,779.156 770.5,776C 763.474,772.159 756.807,767.659 750.5,762.5C 739.245,748.996 729.745,734.329 722,718.5C 719.564,710.037 717.398,701.537 715.5,693C 717.473,692.505 719.473,692.338 721.5,692.5C 721.845,688.885 721.178,685.552 719.5,682.5C 722.997,686.148 725.497,690.481 727,695.5C 728.937,705.073 730.271,714.74 731,724.5C 734.929,736.85 741.763,747.35 751.5,756C 761.349,764.083 771.349,771.917 781.5,779.5C 782.128,782.09 783.295,784.423 785,786.5C 785.867,791.697 785.2,796.697 783,801.5C 776.349,811.819 767.516,819.652 756.5,825C 737.878,831.54 719.212,837.874 700.5,844C 689.996,849.173 679.996,855.173 670.5,862C 663.454,863.022 657.787,866.355 653.5,872C 632.158,885.529 609.325,892.029 585,891.5C 565.982,888.482 554.982,877.482 552,858.5C 551.625,843.803 552.458,829.47 554.5,815.5C 554.291,814.914 553.957,814.414 553.5,814C 555.035,801.764 555.201,789.597 554,777.5C 553.808,743.155 553.142,708.822 552,674.5C 550.644,673.62 549.144,673.286 547.5,673.5C 546.12,673.038 545.453,672.038 545.5,670.5C 545.846,669.151 546.179,667.817 546.5,666.5C 547.514,665.326 548.847,664.66 550.5,664.5 Z"/></g>
<g><path style="opacity:1" fill="#e8b01b" d="M 587.5,682.5 C 587.5,683.833 587.5,685.167 587.5,686.5C 585.648,687.52 584.315,689.02 583.5,691C 579.306,704.934 579.806,718.434 585,731.5C 588.012,738.519 591.679,745.186 596,751.5C 601.049,757.525 607.382,761.525 615,763.5C 620.934,763.731 626.601,763.731 632,763.5C 647.331,758.835 659.164,749.668 667.5,736C 667.167,735.667 666.833,735.333 666.5,735C 672.045,727.075 676.379,718.575 679.5,709.5C 681.833,706.5 684.5,703.833 687.5,701.5C 687.441,705.736 686.441,709.736 684.5,713.5C 679.672,746.199 660.172,766.533 626,774.5C 597.754,773.339 581.921,759.672 578.5,733.5C 575.771,731.017 575.104,728.183 576.5,725C 575.981,722.13 575.314,719.297 574.5,716.5C 575.754,713.325 575.754,710.159 574.5,707C 574.024,696.11 578.358,687.943 587.5,682.5 Z"/></g>
<g><path style="opacity:1" fill="#f4bf20" d="M 697.5,687.5 C 703.37,689.261 705.37,693.094 703.5,699C 705.155,701.247 705.488,703.58 704.5,706C 705.743,707.154 706.743,708.488 707.5,710C 707.5,711.667 707.5,713.333 707.5,715C 709.146,716.555 709.479,718.221 708.5,720C 710.652,722.469 712.152,725.302 713,728.5C 717.028,734.712 721.195,740.879 725.5,747C 725.167,747.333 724.833,747.667 724.5,748C 728.948,754.782 733.781,761.282 739,767.5C 747.333,773.833 755.667,780.167 764,786.5C 765.971,790.886 765.805,795.22 763.5,799.5C 758.128,804.938 751.962,809.272 745,812.5C 744.667,812.167 744.333,811.833 744,811.5C 742,812.833 740,814.167 738,815.5C 736,815.5 734,815.5 732,815.5C 731.667,816.167 731.333,816.833 731,817.5C 729.657,816.786 728.324,817.12 727,818.5C 725.333,818.5 723.667,818.5 722,818.5C 720.676,819.88 719.343,820.214 718,819.5C 716.676,820.88 715.343,821.214 714,820.5C 710.667,821.833 707.333,823.167 704,824.5C 703.667,824.167 703.333,823.833 703,823.5C 700.123,824.456 697.456,825.789 695,827.5C 694.586,827.043 694.086,826.709 693.5,826.5C 675.441,834.907 658.441,845.074 642.5,857C 629.07,863.93 615.404,868.264 601.5,870C 595.5,870.667 589.5,870.667 583.5,870C 574.535,868.691 569.369,863.858 568,855.5C 567.833,852.5 567.667,849.5 567.5,846.5C 567.992,842.075 567.992,837.742 567.5,833.5C 568.132,829.411 569.132,825.411 570.5,821.5C 569.833,821.167 569.167,820.833 568.5,820.5C 569.074,818.941 569.74,817.441 570.5,816C 570.02,806.32 570.02,796.487 570.5,786.5C 568.95,780.45 567.95,774.45 567.5,768.5C 568.077,766.191 568.077,764.024 567.5,762C 568.574,761.261 569.241,760.261 569.5,759C 568.422,756.433 567.755,753.767 567.5,751C 569.138,747.242 569.971,743.409 570,739.5C 570.333,739.167 570.667,738.833 571,738.5C 571.333,739.833 571.667,741.167 572,742.5C 572.333,742.167 572.667,741.833 573,741.5C 580.767,767.519 598.6,780.352 626.5,780C 627,780.5 627.5,781 628,781.5C 628.991,780.061 630.324,779.061 632,778.5C 632.333,779.167 632.667,779.833 633,780.5C 633.667,779.167 634.667,778.167 636,777.5C 636.626,779.991 637.459,779.991 638.5,777.5C 653.617,772.274 666.617,762.274 677.5,747.5C 679.824,747.123 680.491,746.123 679.5,744.5C 688.302,731.729 692.302,717.396 691.5,701.5C 691.886,699.068 692.553,696.734 693.5,694.5C 694.584,691.996 695.917,689.663 697.5,687.5 Z"/></g>
<g><path style="opacity:1" fill="#eaeae7" d="M 538.5,696.5 C 539.485,700.634 539.818,704.968 539.5,709.5C 522.264,707.595 512.597,715.095 510.5,732C 513.257,750.734 514.59,769.567 514.5,788.5C 512.167,791.5 509.5,794.167 506.5,796.5C 505.797,775.095 504.13,753.762 501.5,732.5C 504.225,711.132 516.559,700.798 538.5,701.5C 538.5,699.833 538.5,698.167 538.5,696.5 Z"/></g>
<g><path style="opacity:1" fill="#cdccca" d="M 539.5,709.5 C 540.654,727.818 540.654,746.151 539.5,764.5C 538.833,764.5 538.5,764.833 538.5,765.5C 530.5,773.167 522.5,780.833 514.5,788.5C 514.59,769.567 513.257,750.734 510.5,732C 512.597,715.095 522.264,707.595 539.5,709.5 Z"/></g>
<g><path style="opacity:1" fill="#ce9615" d="M 587.5,692.5 C 588.327,696.807 588.993,701.14 589.5,705.5C 588.948,711.781 589.948,717.781 592.5,723.5C 597.07,725.571 600.903,728.571 604,732.5C 613.215,738.257 623.049,740.09 633.5,738C 637.62,735.882 641.953,734.215 646.5,733C 648.96,731.542 651.127,729.709 653,727.5C 654.507,728.535 656.007,728.368 657.5,727C 658.386,725.385 659.386,723.885 660.5,722.5C 663.961,719.931 667.628,717.597 671.5,715.5C 669.234,720.956 665.901,725.789 661.5,730C 661.833,730.333 662.167,730.667 662.5,731C 655.942,736.804 649.609,742.804 643.5,749C 630.732,756.596 618.566,755.763 607,746.5C 606.667,746.833 606.333,747.167 606,747.5C 603.009,743.21 599.342,739.543 595,736.5C 582.855,723.3 580.355,708.634 587.5,692.5 Z"/></g>
<g><path style="opacity:1" fill="#b98311" d="M 589.5,705.5 C 595.254,719.72 605.921,727.886 621.5,730C 635.154,730.903 648.154,728.403 660.5,722.5C 659.386,723.885 658.386,725.385 657.5,727C 656.007,728.368 654.507,728.535 653,727.5C 651.127,729.709 648.96,731.542 646.5,733C 641.953,734.215 637.62,735.882 633.5,738C 623.049,740.09 613.215,738.257 604,732.5C 600.903,728.571 597.07,725.571 592.5,723.5C 589.948,717.781 588.948,711.781 589.5,705.5 Z"/></g>
<g><path style="opacity:1" fill="#dca318" d="M 587.5,686.5 C 587.5,688.5 587.5,690.5 587.5,692.5C 580.355,708.634 582.855,723.3 595,736.5C 599.342,739.543 603.009,743.21 606,747.5C 606.333,747.167 606.667,746.833 607,746.5C 618.566,755.763 630.732,756.596 643.5,749C 649.609,742.804 655.942,736.804 662.5,731C 662.167,730.667 661.833,730.333 661.5,730C 665.901,725.789 669.234,720.956 671.5,715.5C 674.167,713.5 676.833,711.5 679.5,709.5C 676.379,718.575 672.045,727.075 666.5,735C 666.833,735.333 667.167,735.667 667.5,736C 659.164,749.668 647.331,758.835 632,763.5C 626.601,763.731 620.934,763.731 615,763.5C 607.382,761.525 601.049,757.525 596,751.5C 591.679,745.186 588.012,738.519 585,731.5C 579.806,718.434 579.306,704.934 583.5,691C 584.315,689.02 585.648,687.52 587.5,686.5 Z"/></g>
<g><path style="opacity:0.993" fill="#020204" d="M 538.5,765.5 C 538.227,772.504 537.894,779.504 537.5,786.5C 535.719,795.635 534.385,804.968 533.5,814.5C 530.421,828.251 528.087,842.251 526.5,856.5C 525.043,861.598 524.376,866.931 524.5,872.5C 522.627,886.576 523.627,900.576 527.5,914.5C 463.317,896.313 397.983,889.813 331.5,895C 321.046,896.258 310.712,898.091 300.5,900.5C 303.41,890.182 304.077,879.849 302.5,869.5C 302.397,863.755 301.064,858.422 298.5,853.5C 296.868,847.57 294.202,842.236 290.5,837.5C 289.4,836.395 288.733,835.062 288.5,833.5C 337.34,859.115 387.673,862.282 439.5,843C 464.657,831.434 486.99,815.934 506.5,796.5C 509.5,794.167 512.167,791.5 514.5,788.5C 522.5,780.833 530.5,773.167 538.5,765.5 Z"/></g>
<g><path style="opacity:1" fill="#c58d0f" d="M 546.5,666.5 C 546.179,667.817 545.846,669.151 545.5,670.5C 545.453,672.038 546.12,673.038 547.5,673.5C 549.169,678.622 550.003,683.956 550,689.5C 550.153,725.519 550.987,761.519 552.5,797.5C 551.598,818.188 550.765,838.855 550,859.5C 552.725,878.999 563.392,891.666 582,897.5C 582.333,897.167 582.667,896.833 583,896.5C 590.382,898.038 597.382,898.704 604,898.5C 620.401,894.791 635.901,888.291 650.5,879C 652.281,876.763 654.281,874.763 656.5,873C 661.527,871.31 666.194,868.977 670.5,866C 671.257,864.488 672.257,863.154 673.5,862C 680.527,857.153 687.86,852.82 695.5,849C 716.321,841.799 736.988,834.299 757.5,826.5C 772.753,819.077 783.753,808.243 790.5,794C 790.653,791.331 790.32,788.497 789.5,785.5C 793.964,788.624 797.297,792.624 799.5,797.5C 799.5,797.833 799.5,798.167 799.5,798.5C 798.837,800.042 798.17,801.709 797.5,803.5C 790.286,808.965 783.286,814.632 776.5,820.5C 772.833,825.507 768.166,829.34 762.5,832C 748.284,836.809 733.951,841.475 719.5,846C 713.595,846.301 707.928,847.635 702.5,850C 697.779,853.027 692.779,855.527 687.5,857.5C 681.419,863.207 674.419,867.374 666.5,870C 653.881,880.656 639.881,889.322 624.5,896C 604.711,903.991 585.378,903.325 566.5,894C 555.048,886.742 548.548,876.242 547,862.5C 547.245,842.15 548.078,821.817 549.5,801.5C 548.941,780.782 547.941,760.115 546.5,739.5C 547.643,723.737 547.643,707.904 546.5,692C 545.566,684.24 544.899,676.406 544.5,668.5C 544.833,667.5 545.5,666.833 546.5,666.5 Z"/></g>
<g><path style="opacity:1" fill="#765204" d="M 290.5,837.5 C 294.202,842.236 296.868,847.57 298.5,853.5C 302.162,885.325 290.828,910.491 264.5,929C 257.512,932.159 250.846,935.826 244.5,940C 240.133,941.673 235.633,942.84 231,943.5C 219.66,942.84 208.827,939.673 198.5,934C 190.568,931.517 182.568,929.351 174.5,927.5C 162.022,923.968 149.689,920.302 137.5,916.5C 149.278,918.019 160.944,920.185 172.5,923C 189.392,928.409 206.392,933.409 223.5,938C 249.234,937.05 269.734,926.216 285,905.5C 296.87,883.664 298.704,860.997 290.5,837.5 Z"/></g>
<g><path style="opacity:1" fill="#ba810b" d="M 544.5,668.5 C 544.899,676.406 545.566,684.24 546.5,692C 547.643,707.904 547.643,723.737 546.5,739.5C 547.941,760.115 548.941,780.782 549.5,801.5C 548.078,821.817 547.245,842.15 547,862.5C 548.548,876.242 555.048,886.742 566.5,894C 585.378,903.325 604.711,903.991 624.5,896C 639.881,889.322 653.881,880.656 666.5,870C 674.419,867.374 681.419,863.207 687.5,857.5C 692.779,855.527 697.779,853.027 702.5,850C 707.928,847.635 713.595,846.301 719.5,846C 733.951,841.475 748.284,836.809 762.5,832C 768.166,829.34 772.833,825.507 776.5,820.5C 783.286,814.632 790.286,808.965 797.5,803.5C 798.17,801.709 798.837,800.042 799.5,798.5C 799.5,802.5 799.5,806.5 799.5,810.5C 798.662,810.842 798.328,811.508 798.5,812.5C 796.45,812.961 794.45,813.628 792.5,814.5C 768.573,832.147 742.573,844.147 714.5,850.5C 713.646,851.522 712.646,852.355 711.5,853C 702.813,856.543 694.147,860.21 685.5,864C 672.221,872.946 659.221,882.279 646.5,892C 633.416,901.146 619.249,906.98 604,909.5C 591.137,909.755 578.637,906.921 566.5,901C 554.026,892.496 546.859,880.662 545,865.5C 544.134,847.164 544.8,829.164 547,811.5C 547.425,798.546 547.591,785.712 547.5,773C 546.833,767.667 546.167,762.333 545.5,757C 545.957,756.586 546.291,756.086 546.5,755.5C 545.681,738.877 545.181,722.211 545,705.5C 544.764,693.416 543.93,681.749 542.5,670.5C 542.833,669.5 543.5,668.833 544.5,668.5 Z"/></g>
<g><path style="opacity:1" fill="#e1a707" d="M 166.5,658.5 C 175.005,671.502 182.505,685.169 189,699.5C 190.72,700.384 191.886,701.717 192.5,703.5C 193.746,705.417 194.413,707.25 194.5,709C 193.874,709.75 193.374,710.584 193,711.5C 184.204,694.579 174.871,677.913 165,661.5C 158.569,654.615 150.902,650.615 142,649.5C 131.402,652.744 125.236,659.578 123.5,670C 121.012,678.324 118.845,686.824 117,695.5C 112.691,708.249 103.858,715.749 90.5,718C 78.3805,718.495 66.5472,717.995 55,716.5C 36.7216,718.934 28.2216,729.268 29.5,747.5C 32.9026,761.607 35.9026,775.773 38.5,790C 38.8805,797.092 38.0472,804.258 36,811.5C 32.9363,818.691 30.2696,826.025 28,833.5C 26.1276,838.182 26.1276,842.848 28,847.5C 31.7118,853.443 36.8785,857.61 43.5,860C 55.76,861.908 67.4267,864.908 78.5,869C 106.977,874.957 135.144,881.124 163,887.5C 180.713,895.682 199.213,901.349 218.5,904.5C 233.668,903.501 246.502,897.168 257,885.5C 265.691,870.999 267.858,856.166 263.5,841C 263.645,840.228 263.978,839.561 264.5,839C 262.897,836.32 262.063,833.487 262,830.5C 262.667,833.167 263.333,833.167 264,830.5C 265.017,832.376 265.851,834.376 266.5,836.5C 267.107,836.376 267.44,836.043 267.5,835.5C 271.56,850.463 271.393,865.463 267,880.5C 259.699,895.793 247.699,905.126 231,908.5C 229.564,908.441 228.231,908.108 227,907.5C 217.415,909.565 207.915,909.398 198.5,907C 166.253,893.153 133.086,884.319 99,880.5C 79.6089,874.11 60.1089,869.277 40.5,866C 37.6229,865.044 34.9562,863.711 32.5,862C 31.6634,860.989 31.33,859.822 31.5,858.5C 29.3618,858.297 27.6951,857.297 26.5,855.5C 22.3354,847.857 21.5021,839.857 24,831.5C 29.2171,819.852 32.3837,807.685 33.5,795C 32.0748,780.304 29.0748,765.971 24.5,752C 24.4489,747.368 24.6156,742.535 25,737.5C 26.2262,727.276 31.3928,719.776 40.5,715C 46.2361,713.35 52.0694,712.183 58,711.5C 68.4714,712.832 78.9714,713.332 89.5,713C 98.52,711.321 105.353,706.488 110,698.5C 113.378,687.945 116.378,677.278 119,666.5C 121.559,658.689 126.059,652.355 132.5,647.5C 145.694,645.431 157.027,649.098 166.5,658.5 Z"/></g>
<g><path style="opacity:0.996" fill="#694905" d="M 298.5,853.5 C 301.064,858.422 302.397,863.755 302.5,869.5C 300.969,893.732 290.636,913.232 271.5,928C 261.506,935.185 251.173,941.685 240.5,947.5C 235.833,947.5 231.167,947.5 226.5,947.5C 208.536,942.52 191.203,935.853 174.5,927.5C 182.568,929.351 190.568,931.517 198.5,934C 208.827,939.673 219.66,942.84 231,943.5C 235.633,942.84 240.133,941.673 244.5,940C 250.846,935.826 257.512,932.159 264.5,929C 290.828,910.491 302.162,885.325 298.5,853.5 Z"/></g>
<g><path style="opacity:1" fill="#d39811" d="M 547.5,673.5 C 549.144,673.286 550.644,673.62 552,674.5C 553.142,708.822 553.808,743.155 554,777.5C 555.201,789.597 555.035,801.764 553.5,814C 553.957,814.414 554.291,814.914 554.5,815.5C 552.458,829.47 551.625,843.803 552,858.5C 554.982,877.482 565.982,888.482 585,891.5C 609.325,892.029 632.158,885.529 653.5,872C 657.787,866.355 663.454,863.022 670.5,862C 679.996,855.173 689.996,849.173 700.5,844C 719.212,837.874 737.878,831.54 756.5,825C 767.516,819.652 776.349,811.819 783,801.5C 785.2,796.697 785.867,791.697 785,786.5C 783.295,784.423 782.128,782.09 781.5,779.5C 784.205,781.512 786.872,783.512 789.5,785.5C 790.32,788.497 790.653,791.331 790.5,794C 783.753,808.243 772.753,819.077 757.5,826.5C 736.988,834.299 716.321,841.799 695.5,849C 687.86,852.82 680.527,857.153 673.5,862C 672.257,863.154 671.257,864.488 670.5,866C 666.194,868.977 661.527,871.31 656.5,873C 654.281,874.763 652.281,876.763 650.5,879C 635.901,888.291 620.401,894.791 604,898.5C 597.382,898.704 590.382,898.038 583,896.5C 582.667,896.833 582.333,897.167 582,897.5C 563.392,891.666 552.725,878.999 550,859.5C 550.765,838.855 551.598,818.188 552.5,797.5C 550.987,761.519 550.153,725.519 550,689.5C 550.003,683.956 549.169,678.622 547.5,673.5 Z"/></g>
<g><path style="opacity:1" fill="#cf9506" d="M 123.5,652.5 C 120.833,656.501 118.666,660.834 117,665.5C 114.52,677.603 110.854,689.269 106,700.5C 99.2334,707.647 90.9001,711.314 81,711.5C 73.1203,710.481 65.1203,709.815 57,709.5C 36.3789,710.211 24.5455,720.711 21.5,741C 24.257,757.452 27.5903,774.118 31.5,791C 31.7052,804.568 28.5385,817.735 22,830.5C 20,837.833 20,845.167 22,852.5C 24.7523,855.578 27.0856,858.911 29,862.5C 36.7265,868.717 45.3931,871.051 55,869.5C 58.2105,872.576 61.8771,873.576 66,872.5C 72.7634,875.843 80.0968,878.51 88,880.5C 89.0495,879.483 90.2161,879.316 91.5,880C 93.9469,881.575 96.4469,883.075 99,884.5C 102,884.16 105,884.827 108,886.5C 108.333,886.167 108.667,885.833 109,885.5C 125.315,889.137 141.482,892.137 157.5,894.5C 174.51,901.254 191.844,907.087 209.5,912C 218.35,913.458 226.85,913.958 235,913.5C 258.666,907.112 271.833,891.279 274.5,866C 272.613,855.321 271.28,844.821 270.5,834.5C 273.197,839.421 275.03,844.754 276,850.5C 281.769,879.052 272.603,900.219 248.5,914C 236.412,917.378 223.745,918.045 210.5,916C 193.715,911.072 177.048,905.738 160.5,900C 140.935,895.795 121.268,892.128 101.5,889C 78.6872,883.596 56.0206,877.596 33.5,871C 18.2776,862.369 13.111,849.536 18,832.5C 20.9001,825.362 23.2335,818.028 25,810.5C 27.4837,798.379 26.6503,786.545 22.5,775C 22.8333,774.667 23.1667,774.333 23.5,774C 21.1579,766.949 18.8246,759.949 16.5,753C 16.9002,747.867 16.9002,742.534 16.5,737C 23.8121,712.349 40.1455,701.849 65.5,705.5C 73.0187,705.507 80.6854,705.341 88.5,705C 96.4914,703.009 101.991,698.176 105,690.5C 107.167,682.833 109.333,675.166 111.5,667.5C 111.376,666.893 111.043,666.56 110.5,666.5C 111.833,664.167 113.167,661.833 114.5,659.5C 117.233,656.761 120.233,654.427 123.5,652.5 Z"/></g>
<g><path style="opacity:1" fill="#ac760a" d="M 542.5,670.5 C 543.93,681.749 544.764,693.416 545,705.5C 545.181,722.211 545.681,738.877 546.5,755.5C 546.291,756.086 545.957,756.586 545.5,757C 546.167,762.333 546.833,767.667 547.5,773C 547.591,785.712 547.425,798.546 547,811.5C 544.8,829.164 544.134,847.164 545,865.5C 546.859,880.662 554.026,892.496 566.5,901C 578.637,906.921 591.137,909.755 604,909.5C 619.249,906.98 633.416,901.146 646.5,892C 659.221,882.279 672.221,872.946 685.5,864C 694.147,860.21 702.813,856.543 711.5,853C 712.646,852.355 713.646,851.522 714.5,850.5C 742.573,844.147 768.573,832.147 792.5,814.5C 794.45,813.628 796.45,812.961 798.5,812.5C 796.988,816.201 794.988,819.534 792.5,822.5C 789.757,823.326 787.257,824.659 785,826.5C 783.442,825.655 782.442,826.321 782,828.5C 779.645,828.6 777.478,829.767 775.5,832C 756.16,841.934 735.827,849.6 714.5,855C 699.724,860.883 686.057,868.55 673.5,878C 666.182,885.346 657.848,891.012 648.5,895C 630.009,910.381 608.342,916.047 583.5,912C 576.497,909.661 569.497,907.328 562.5,905C 550.58,896.468 544.246,885.135 543.5,871C 542.173,865.722 541.173,860.388 540.5,855C 542.526,834.628 543.859,813.962 544.5,793C 543.666,759.807 542.333,726.641 540.5,693.5C 540.415,691.667 539.748,690.334 538.5,689.5C 537.691,682.626 539.024,676.293 542.5,670.5 Z"/></g>
<g><path style="opacity:1" fill="#825806" d="M 537.5,786.5 C 538.133,801.081 536.966,815.414 534,829.5C 531.115,848.005 532.115,866.005 537,883.5C 545.094,901.247 558.594,913.08 577.5,919C 600.533,925.99 622.533,922.99 643.5,910C 660.129,898.346 676.796,886.679 693.5,875C 707.783,867.186 722.783,861.352 738.5,857.5C 724.383,864.391 710.717,872.058 697.5,880.5C 693.478,881.343 689.812,883.01 686.5,885.5C 671.931,896.224 656.931,906.39 641.5,916C 609.342,932.171 579.009,929.505 550.5,908C 535.615,891.677 529.282,872.344 531.5,850C 531.579,838.117 532.246,826.284 533.5,814.5C 534.385,804.968 535.719,795.635 537.5,786.5 Z"/></g>
<g><path style="opacity:1" fill="#d89e06" d="M 132.5,647.5 C 126.059,652.355 121.559,658.689 119,666.5C 116.378,677.278 113.378,687.945 110,698.5C 105.353,706.488 98.52,711.321 89.5,713C 78.9714,713.332 68.4714,712.832 58,711.5C 52.0694,712.183 46.2361,713.35 40.5,715C 31.3928,719.776 26.2262,727.276 25,737.5C 24.6156,742.535 24.4489,747.368 24.5,752C 29.0748,765.971 32.0748,780.304 33.5,795C 32.3837,807.685 29.2171,819.852 24,831.5C 21.5021,839.857 22.3354,847.857 26.5,855.5C 27.6951,857.297 29.3618,858.297 31.5,858.5C 31.33,859.822 31.6634,860.989 32.5,862C 34.9562,863.711 37.6229,865.044 40.5,866C 60.1089,869.277 79.6089,874.11 99,880.5C 133.086,884.319 166.253,893.153 198.5,907C 207.915,909.398 217.415,909.565 227,907.5C 228.231,908.108 229.564,908.441 231,908.5C 247.699,905.126 259.699,895.793 267,880.5C 271.393,865.463 271.56,850.463 267.5,835.5C 265.849,828.936 264.182,822.27 262.5,815.5C 264.136,816.749 265.303,818.416 266,820.5C 266.805,825.441 268.305,830.108 270.5,834.5C 271.28,844.821 272.613,855.321 274.5,866C 271.833,891.279 258.666,907.112 235,913.5C 226.85,913.958 218.35,913.458 209.5,912C 191.844,907.087 174.51,901.254 157.5,894.5C 141.482,892.137 125.315,889.137 109,885.5C 108.667,885.833 108.333,886.167 108,886.5C 105,884.827 102,884.16 99,884.5C 96.4469,883.075 93.9469,881.575 91.5,880C 90.2161,879.316 89.0495,879.483 88,880.5C 80.0968,878.51 72.7634,875.843 66,872.5C 61.8771,873.576 58.2105,872.576 55,869.5C 45.3931,871.051 36.7265,868.717 29,862.5C 27.0856,858.911 24.7523,855.578 22,852.5C 20,845.167 20,837.833 22,830.5C 28.5385,817.735 31.7052,804.568 31.5,791C 27.5903,774.118 24.257,757.452 21.5,741C 24.5455,720.711 36.3789,710.211 57,709.5C 65.1203,709.815 73.1203,710.481 81,711.5C 90.9001,711.314 99.2334,707.647 106,700.5C 110.854,689.269 114.52,677.603 117,665.5C 118.666,660.834 120.833,656.501 123.5,652.5C 126.008,650.076 129.008,648.41 132.5,647.5 Z"/></g>
<g><path style="opacity:1" fill="#956904" d="M 275.5,823.5 C 291.086,844.749 294.919,868.082 287,893.5C 269.657,926.191 242.823,938.024 206.5,929C 189.743,923.192 172.743,918.192 155.5,914C 130.607,910.039 105.941,906.539 81.5,903.5C 60.0442,897.849 38.7109,891.682 17.5,885C 13.6733,883.254 10.0066,881.254 6.5,879C 4.19228,876.872 2.52561,874.372 1.5,871.5C 4.36804,871.085 6.53471,872.085 8,874.5C 9.39459,873.185 10.3946,873.519 11,875.5C 11.3333,875.167 11.6667,874.833 12,874.5C 16.6589,878.492 21.8256,881.658 27.5,884C 34.5759,886.498 41.5759,889.165 48.5,892C 82.8742,899.673 117.541,905.673 152.5,910C 174.066,915.189 195.399,921.189 216.5,928C 247.749,932.297 270.249,920.463 284,892.5C 288.3,880.769 289.3,868.769 287,856.5C 284.236,845.102 280.403,834.102 275.5,823.5 Z"/></g>
<g><path style="opacity:1" fill="#a17205" d="M 254.5,789.5 C 256.167,791.5 257.833,793.5 259.5,795.5C 263.45,801.451 267.783,807.118 272.5,812.5C 271.957,812.56 271.624,812.893 271.5,813.5C 273.406,816.64 274.74,819.973 275.5,823.5C 280.403,834.102 284.236,845.102 287,856.5C 289.3,868.769 288.3,880.769 284,892.5C 270.249,920.463 247.749,932.297 216.5,928C 195.399,921.189 174.066,915.189 152.5,910C 117.541,905.673 82.8742,899.673 48.5,892C 41.5759,889.165 34.5759,886.498 27.5,884C 21.8256,881.658 16.6589,878.492 12,874.5C 11.6667,874.833 11.3333,875.167 11,875.5C 10.3946,873.519 9.39459,873.185 8,874.5C 6.53471,872.085 4.36804,871.085 1.5,871.5C 0.833333,870.5 0.166667,869.5 -0.5,868.5C -0.5,866.833 -0.5,865.167 -0.5,863.5C 0.314913,864.429 1.14825,865.429 2,866.5C 2.41395,866.043 2.91395,865.709 3.5,865.5C 5.14869,866.648 6.64869,867.981 8,869.5C 8.33333,869.167 8.66667,868.833 9,868.5C 17.2057,876.188 26.7057,881.688 37.5,885C 51.559,888.079 65.559,891.412 79.5,895C 107.217,899.423 134.884,904.089 162.5,909C 167.273,911.51 172.273,913.51 177.5,915C 190.414,918.479 203.414,921.812 216.5,925C 250.734,929.817 273.234,915.983 284,883.5C 286.793,861.008 282.459,840.008 271,820.5C 269.779,815.052 267.279,810.385 263.5,806.5C 260.89,802.875 258.223,799.208 255.5,795.5C 254.652,793.591 254.318,791.591 254.5,789.5 Z"/></g>
<g><path style="opacity:1" fill="#b07d04" d="M 16.5,772.5 C 17.224,774.218 17.8906,776.052 18.5,778C 18.1667,778.333 17.8333,778.667 17.5,779C 19.6201,780.523 19.9535,782.356 18.5,784.5C 19.9477,790.216 21.281,795.882 22.5,801.5C 20.5912,812.396 17.7579,823.063 14,833.5C 12.8031,838.61 12.3031,843.61 12.5,848.5C 13.1393,851.475 13.6393,854.475 14,857.5C 17.3537,863.275 21.5203,868.441 26.5,873C 47.0738,880.394 68.0738,886.394 89.5,891C 113.888,894.961 138.221,899.294 162.5,904C 181.502,910.945 200.835,916.779 220.5,921.5C 256.132,922.88 276.798,905.88 282.5,870.5C 282.027,855.602 278.527,841.269 272,827.5C 267.314,821.281 264.481,814.281 263.5,806.5C 267.279,810.385 269.779,815.052 271,820.5C 282.459,840.008 286.793,861.008 284,883.5C 273.234,915.983 250.734,929.817 216.5,925C 203.414,921.812 190.414,918.479 177.5,915C 172.273,913.51 167.273,911.51 162.5,909C 134.884,904.089 107.217,899.423 79.5,895C 65.559,891.412 51.559,888.079 37.5,885C 26.7057,881.688 17.2057,876.188 9,868.5C 8.66667,868.833 8.33333,869.167 8,869.5C 6.64869,867.981 5.14869,866.648 3.5,865.5C 2.91395,865.709 2.41395,866.043 2,866.5C 1.14825,865.429 0.314913,864.429 -0.5,863.5C -0.5,859.833 -0.5,856.167 -0.5,852.5C 3.36936,843.406 7.53603,834.406 12,825.5C 17.4582,808.202 18.9582,790.535 16.5,772.5 Z"/></g>
<g><path style="opacity:1" fill="#8e6107" d="M 539.5,764.5 C 539.455,774.114 539.788,784.114 540.5,794.5C 539.5,813.169 538.5,831.835 537.5,850.5C 536.675,896.675 559.342,919.675 605.5,919.5C 619.541,917.48 632.541,912.647 644.5,905C 659.365,894.599 674.032,883.932 688.5,873C 705.905,862.321 724.405,854.821 744,850.5C 751.252,848.039 758.252,845.039 765,841.5C 765.995,842.066 766.828,842.733 767.5,843.5C 757.96,848.437 748.293,853.103 738.5,857.5C 722.783,861.352 707.783,867.186 693.5,875C 676.796,886.679 660.129,898.346 643.5,910C 622.533,922.99 600.533,925.99 577.5,919C 558.594,913.08 545.094,901.247 537,883.5C 532.115,866.005 531.115,848.005 534,829.5C 536.966,815.414 538.133,801.081 537.5,786.5C 537.894,779.504 538.227,772.504 538.5,765.5C 538.5,764.833 538.833,764.5 539.5,764.5 Z"/></g>
<g><path style="opacity:1" fill="#724d06" d="M 533.5,814.5 C 532.246,826.284 531.579,838.117 531.5,850C 529.282,872.344 535.615,891.677 550.5,908C 579.009,929.505 609.342,932.171 641.5,916C 656.931,906.39 671.931,896.224 686.5,885.5C 689.812,883.01 693.478,881.343 697.5,880.5C 682.976,891.013 669.309,902.68 656.5,915.5C 652.194,915.899 648.36,917.566 645,920.5C 644.667,920.167 644.333,919.833 644,919.5C 642.647,920.685 641.48,922.019 640.5,923.5C 616.455,934.452 591.788,935.286 566.5,926C 544.034,915.983 531.368,898.983 528.5,875C 526.793,868.993 526.126,862.826 526.5,856.5C 528.087,842.251 530.421,828.251 533.5,814.5 Z"/></g>
<g><path style="opacity:0.984" fill="#483106" d="M 524.5,872.5 C 523.439,891.725 530.606,907.392 546,919.5C 546.792,921.587 547.959,923.421 549.5,925C 562.136,931.901 574.969,938.401 588,944.5C 588.414,944.043 588.914,943.709 589.5,943.5C 594.003,945.267 598.669,946.267 603.5,946.5C 603.5,946.833 603.5,947.167 603.5,947.5C 595.167,947.5 586.833,947.5 578.5,947.5C 560.999,944.497 545.833,936.83 533,924.5C 530.888,921.273 529.055,917.94 527.5,914.5C 523.627,900.576 522.627,886.576 524.5,872.5 Z"/></g>
<g><path style="opacity:1" fill="#9e6c08" d="M 538.5,689.5 C 539.748,690.334 540.415,691.667 540.5,693.5C 542.333,726.641 543.666,759.807 544.5,793C 543.859,813.962 542.526,834.628 540.5,855C 541.173,860.388 542.173,865.722 543.5,871C 544.246,885.135 550.58,896.468 562.5,905C 569.497,907.328 576.497,909.661 583.5,912C 608.342,916.047 630.009,910.381 648.5,895C 657.848,891.012 666.182,885.346 673.5,878C 686.057,868.55 699.724,860.883 714.5,855C 735.827,849.6 756.16,841.934 775.5,832C 777.478,829.767 779.645,828.6 782,828.5C 782.442,826.321 783.442,825.655 785,826.5C 787.257,824.659 789.757,823.326 792.5,822.5C 785.706,831.291 777.372,838.291 767.5,843.5C 766.828,842.733 765.995,842.066 765,841.5C 758.252,845.039 751.252,848.039 744,850.5C 724.405,854.821 705.905,862.321 688.5,873C 674.032,883.932 659.365,894.599 644.5,905C 632.541,912.647 619.541,917.48 605.5,919.5C 559.342,919.675 536.675,896.675 537.5,850.5C 538.5,831.835 539.5,813.169 540.5,794.5C 539.788,784.114 539.455,774.114 539.5,764.5C 540.654,746.151 540.654,727.818 539.5,709.5C 539.818,704.968 539.485,700.634 538.5,696.5C 538.5,694.167 538.5,691.833 538.5,689.5 Z"/></g>
<g><path style="opacity:1" fill="#875f05" d="M 272.5,812.5 C 278.076,819.32 283.409,826.32 288.5,833.5C 288.733,835.062 289.4,836.395 290.5,837.5C 298.704,860.997 296.87,883.664 285,905.5C 269.734,926.216 249.234,937.05 223.5,938C 206.392,933.409 189.392,928.409 172.5,923C 160.944,920.185 149.278,918.019 137.5,916.5C 118.55,912.913 99.8832,908.58 81.5,903.5C 105.941,906.539 130.607,910.039 155.5,914C 172.743,918.192 189.743,923.192 206.5,929C 242.823,938.024 269.657,926.191 287,893.5C 294.919,868.082 291.086,844.749 275.5,823.5C 274.74,819.973 273.406,816.64 271.5,813.5C 271.624,812.893 271.957,812.56 272.5,812.5 Z"/></g>
<g><path style="opacity:1" fill="#5e3f06" d="M 526.5,856.5 C 526.126,862.826 526.793,868.993 528.5,875C 531.368,898.983 544.034,915.983 566.5,926C 591.788,935.286 616.455,934.452 640.5,923.5C 641.48,922.019 642.647,920.685 644,919.5C 644.333,919.833 644.667,920.167 645,920.5C 648.36,917.566 652.194,915.899 656.5,915.5C 644.96,927.947 631.294,937.447 615.5,944C 611.622,945.47 607.622,946.303 603.5,946.5C 598.669,946.267 594.003,945.267 589.5,943.5C 588.914,943.709 588.414,944.043 588,944.5C 574.969,938.401 562.136,931.901 549.5,925C 547.959,923.421 546.792,921.587 546,919.5C 530.606,907.392 523.439,891.725 524.5,872.5C 524.376,866.931 525.043,861.598 526.5,856.5 Z"/></g>
<g><path style="opacity:0.985" fill="#583d04" d="M 302.5,869.5 C 304.077,879.849 303.41,890.182 300.5,900.5C 292.563,925.974 275.563,941.64 249.5,947.5C 246.5,947.5 243.5,947.5 240.5,947.5C 251.173,941.685 261.506,935.185 271.5,928C 290.636,913.232 300.969,893.732 302.5,869.5 Z"/></g>
</svg>
