<?xml version="1.0" encoding="UTF-8"?>
<!DOCTYPE svg PUBLIC "-//W3C//DTD SVG 1.1//EN" "http://www.w3.org/Graphics/SVG/1.1/DTD/svg11.dtd">
<svg xmlns="http://www.w3.org/2000/svg" version="1.1" width="700px" height="396px" style="shape-rendering:geometricPrecision; text-rendering:geometricPrecision; image-rendering:optimizeQuality; fill-rule:evenodd; clip-rule:evenodd" xmlns:xlink="http://www.w3.org/1999/xlink">
<g><path style="opacity:1" fill="#000000" d="M -0.5,-0.5 C 232.833,-0.5 466.167,-0.5 699.5,-0.5C 699.5,131.5 699.5,263.5 699.5,395.5C 466.167,395.5 232.833,395.5 -0.5,395.5C -0.5,263.5 -0.5,131.5 -0.5,-0.5 Z"/></g>
<g><path style="opacity:1" fill="#909e6c" d="M 423.5,11.5 C 448.746,9.91651 460.912,21.5832 460,46.5C 454.313,64.2694 442.147,71.7694 423.5,69C 403.483,60.2877 397.649,45.7877 406,25.5C 410.311,18.7817 416.144,14.1151 423.5,11.5 Z"/></g>
<g><path style="opacity:1" fill="#11120d" d="M 426.5,27.5 C 428.144,27.2865 429.644,27.6198 431,28.5C 434.668,36.674 437.835,45.0073 440.5,53.5C 438.856,53.7135 437.356,53.3802 436,52.5C 434.783,49.0065 433.283,45.6732 431.5,42.5C 429.717,45.6732 428.217,49.0065 427,52.5C 425.644,53.3802 424.144,53.7135 422.5,53.5C 424.492,47.5113 426.492,41.5113 428.5,35.5C 427.825,32.8222 427.158,30.1555 426.5,27.5 Z"/></g>
<g><path style="opacity:1" fill="#a7a7a7" d="M 383.5,35.5 C 386.607,36.8887 389.607,38.5554 392.5,40.5C 389.833,42.1667 387.167,43.8333 384.5,45.5C 383.571,44.3112 383.238,42.9778 383.5,41.5C 370.409,43.0822 360.242,49.4155 353,60.5C 346.905,69.6844 341.572,79.3511 337,89.5C 330.941,103.951 324.608,118.284 318,132.5C 313.747,140.679 308.747,148.346 303,155.5C 295.799,164.017 286.632,168.684 275.5,169.5C 275.762,170.978 275.429,172.311 274.5,173.5C 271.497,172.334 268.83,170.667 266.5,168.5C 269.167,166.833 271.833,165.167 274.5,163.5C 275.429,164.689 275.762,166.022 275.5,167.5C 288.604,165.899 298.771,159.565 306,148.5C 310.587,140.996 314.92,133.329 319,125.5C 326.726,107.715 334.726,90.0479 343,72.5C 349.039,61.1308 357.206,51.6308 367.5,44C 372.361,40.7679 377.694,39.2679 383.5,39.5C 383.5,38.1667 383.5,36.8333 383.5,35.5 Z"/></g>
<g><path style="opacity:1" fill="#a3a3a3" d="M 402.5,96.5 C 403.302,95.0484 403.802,93.3817 404,91.5C 404.497,93.8098 404.663,96.1432 404.5,98.5C 402.5,98.5 400.5,98.5 398.5,98.5C 398.187,95.7531 398.52,93.0865 399.5,90.5C 399.964,92.9749 400.964,94.9749 402.5,96.5 Z"/></g>
<g><path style="opacity:1" fill="#5c5c5c" d="M 404.5,98.5 C 404.663,96.1432 404.497,93.8098 404,91.5C 403.802,93.3817 403.302,95.0484 402.5,96.5C 402.5,94.5 402.5,92.5 402.5,90.5C 403.5,90.5 404.5,90.5 405.5,90.5C 405.806,93.3854 405.473,96.0521 404.5,98.5 Z"/></g>
<g><path style="opacity:1" fill="#9f9f9f" d="M 408.5,88.5 C 410.213,89.305 411.879,90.305 413.5,91.5C 412.675,92.3857 411.675,92.719 410.5,92.5C 410.5,93.8333 410.5,95.1667 410.5,96.5C 411.675,96.281 412.675,96.6143 413.5,97.5C 411.994,98.7472 410.494,98.7472 409,97.5C 408.788,95.2199 407.955,93.2199 406.5,91.5C 407.612,90.7348 408.279,89.7348 408.5,88.5 Z"/></g>
<g><path style="opacity:1" fill="#9b9b9b" d="M 415.5,88.5 C 416.931,88.8807 417.764,89.8807 418,91.5C 419.011,90.6634 420.178,90.33 421.5,90.5C 421.813,93.2469 421.48,95.9135 420.5,98.5C 419.596,90.7128 418.263,90.7128 416.5,98.5C 415.513,95.2317 415.18,91.8984 415.5,88.5 Z"/></g>
<g><path style="opacity:1" fill="#a3a3a3" d="M 425.5,90.5 C 428.93,89.7553 430.597,91.0886 430.5,94.5C 430.43,95.7716 430.097,96.9383 429.5,98C 427.866,98.4935 426.199,98.6602 424.5,98.5C 424.279,95.7212 424.612,93.0545 425.5,90.5 Z"/></g>
<g><path style="opacity:1" fill="#696969" d="M 444.5,91.5 C 443.209,91.2627 442.209,91.596 441.5,92.5C 440.249,91.528 440.582,90.8614 442.5,90.5C 443.416,90.5427 444.083,90.8761 444.5,91.5 Z"/></g>
<g><path style="opacity:1" fill="#a0a0a0" d="M 449.5,90.5 C 451.5,90.5 453.5,90.5 455.5,90.5C 455.607,92.9032 454.607,94.7365 452.5,96C 456.378,97.0652 456.378,97.8985 452.5,98.5C 451.5,98.1667 450.5,97.8333 449.5,97.5C 450.5,96.1667 451.5,94.8333 452.5,93.5C 451.007,92.8589 450.007,91.8589 449.5,90.5 Z"/></g>
<g><path style="opacity:1" fill="#989898" d="M 458.5,90.5 C 462.349,90.0193 464.349,91.686 464.5,95.5C 458.676,95.3466 458.343,96.0133 463.5,97.5C 461.926,98.6309 460.259,98.7975 458.5,98C 457.221,95.5024 457.221,93.0024 458.5,90.5 Z"/></g>
<g><path style="opacity:1" fill="#898989" d="M 432.5,90.5 C 434.5,90.5 436.5,90.5 438.5,90.5C 438.657,91.8734 438.49,93.2068 438,94.5C 437.577,93.0439 436.744,92.5439 435.5,93C 434.897,94.8254 434.23,96.6587 433.5,98.5C 432.52,95.9135 432.187,93.2469 432.5,90.5 Z"/></g>
<g><path style="opacity:1" fill="#afafaf" d="M 441.5,92.5 C 442.209,91.596 443.209,91.2627 444.5,91.5C 445.008,93.8422 446.008,96.0088 447.5,98C 445.527,98.4955 443.527,98.6621 441.5,98.5C 443.51,96.6834 443.843,94.6834 442.5,92.5C 442.167,92.5 441.833,92.5 441.5,92.5 Z"/></g>
<g><path style="opacity:1" fill="#9a9a9a" d="M 466.5,90.5 C 467.94,91.3629 469.274,91.3629 470.5,90.5C 472.49,91.4627 472.823,92.796 471.5,94.5C 470.808,93.9747 470.308,93.3081 470,92.5C 468.983,94.3759 468.149,96.3759 467.5,98.5C 466.52,95.9135 466.187,93.2469 466.5,90.5 Z"/></g>
<g><path style="opacity:1" fill="#1a1a1a" d="M 426.5,92.5 C 427.586,92.62 428.253,93.2867 428.5,94.5C 428.167,95.1667 427.833,95.8333 427.5,96.5C 426.571,95.3112 426.238,93.9778 426.5,92.5 Z"/></g>
<g><path style="opacity:1" fill="#9a9a9a" d="M 391.5,88.5 C 392.822,88.33 393.989,88.6634 395,89.5C 396.366,92.5639 396.866,95.5639 396.5,98.5C 394.5,95.8333 392.5,95.8333 390.5,98.5C 390.167,98 389.833,97.5 389.5,97C 390.994,94.3612 391.661,91.5279 391.5,88.5 Z"/></g>
<g><path style="opacity:1" fill="#5a5a5a" d="M 442.5,92.5 C 443.843,94.6834 443.51,96.6834 441.5,98.5C 440.957,98.44 440.624,98.1067 440.5,97.5C 442.005,96.1585 442.672,94.4918 442.5,92.5 Z"/></g>
<g><path style="opacity:1" fill="#8f9e6c" d="M 422.5,151.5 C 438.945,149.14 451.112,155.14 459,169.5C 463.558,187.191 457.724,200.025 441.5,208C 422.88,212.774 410.047,206.274 403,188.5C 400.038,171.087 406.538,158.754 422.5,151.5 Z"/></g>
<g><path style="opacity:1" fill="#91a06d" d="M 227.5,157.5 C 242.574,155.262 250.907,161.596 252.5,176.5C 258.638,178.084 261.971,182.084 262.5,188.5C 262.389,195.24 259.389,200.073 253.5,203C 235.833,203.667 218.167,203.667 200.5,203C 192.199,197.524 190.365,190.357 195,181.5C 196.883,178.976 199.383,177.642 202.5,177.5C 202.524,167.652 207.358,163.986 217,166.5C 220.083,162.91 223.583,159.91 227.5,157.5 Z"/></g>
<g><path style="opacity:1" fill="#919f6d" d="M 632.5,156.5 C 645.948,155.954 653.448,162.288 655,175.5C 663.39,179.237 666.39,185.57 664,194.5C 662.939,197.562 661.106,200.062 658.5,202C 639.899,203.628 621.232,203.961 602.5,203C 595.142,198.259 592.975,191.759 596,183.5C 598.331,179.971 601.497,177.971 605.5,177.5C 604.863,167.148 609.529,163.481 619.5,166.5C 623.304,162.348 627.637,159.015 632.5,156.5 Z"/></g>
<g><path style="opacity:1" fill="#859264" d="M 61.5,199.5 C 60.5489,200.919 60.2155,202.585 60.5,204.5C 58.8333,204.5 57.1667,204.5 55.5,204.5C 55.5,202.5 55.5,200.5 55.5,198.5C 45.8333,198.5 36.1667,198.5 26.5,198.5C 24.8267,197.657 23.66,196.324 23,194.5C 22.3333,183.167 22.3333,171.833 23,160.5C 24.1667,159.333 25.3333,158.167 26.5,157C 47.5,156.333 68.5,156.333 89.5,157C 90.6667,158.167 91.8333,159.333 93,160.5C 93.9579,172.596 93.6245,184.596 92,196.5C 91.1667,197.333 90.3333,198.167 89.5,199C 80.1726,199.5 70.8393,199.666 61.5,199.5 Z"/></g>
<g><path style="opacity:1" fill="#040503" d="M 27.5,160.5 C 47.8361,160.333 68.1694,160.5 88.5,161C 89.487,171.752 89.8203,182.585 89.5,193.5C 68.5,193.5 47.5,193.5 26.5,193.5C 26.1901,182.419 26.5234,171.419 27.5,160.5 Z"/></g>
<g><path style="opacity:1" fill="#10110c" d="M 426.5,167.5 C 428.144,167.286 429.644,167.62 431,168.5C 434.668,176.674 437.835,185.007 440.5,193.5C 438.856,193.714 437.356,193.38 436,192.5C 434.783,189.006 433.283,185.673 431.5,182.5C 429.456,185.623 427.789,188.956 426.5,192.5C 425.311,193.429 423.978,193.762 422.5,193.5C 424.492,187.511 426.492,181.511 428.5,175.5C 428.032,172.767 427.365,170.1 426.5,167.5 Z"/></g>
<g><path style="opacity:1" fill="#2a2a2a" d="M 171.5,175.5 C 171.5,176.833 171.5,178.167 171.5,179.5C 151.167,179.5 130.833,179.5 110.5,179.5C 130.326,178.503 150.326,178.17 170.5,178.5C 170.263,177.209 170.596,176.209 171.5,175.5 Z"/></g>
<g><path style="opacity:1" fill="#2a2a2a" d="M 381.5,175.5 C 381.5,176.833 381.5,178.167 381.5,179.5C 345.833,179.5 310.167,179.5 274.5,179.5C 274.167,179.5 273.833,179.5 273.5,179.5C 308.996,178.502 344.663,178.168 380.5,178.5C 380.263,177.209 380.596,176.209 381.5,175.5 Z"/></g>
<g><path style="opacity:1" fill="#aaaaaa" d="M 171.5,175.5 C 174.483,176.658 177.15,178.325 179.5,180.5C 177.258,182.539 174.758,184.205 172,185.5C 171.51,184.207 171.343,182.873 171.5,181.5C 150.806,182.155 130.473,181.488 110.5,179.5C 130.833,179.5 151.167,179.5 171.5,179.5C 171.5,178.167 171.5,176.833 171.5,175.5 Z"/></g>
<g><path style="opacity:1" fill="#bababa" d="M 381.5,175.5 C 384.483,176.658 387.15,178.325 389.5,180.5C 387.258,182.539 384.758,184.205 382,185.5C 381.51,184.207 381.343,182.873 381.5,181.5C 345.833,180.833 310.167,180.167 274.5,179.5C 310.167,179.5 345.833,179.5 381.5,179.5C 381.5,178.167 381.5,176.833 381.5,175.5 Z"/></g>
<g><path style="opacity:1" fill="#b7b7b7" d="M 573.5,181.5 C 541.833,180.833 510.167,180.167 478.5,179.5C 510.167,179.5 541.833,179.5 573.5,179.5C 573.5,178.167 573.5,176.833 573.5,175.5C 576.714,176.44 579.714,177.94 582.5,180C 580.007,182.08 577.341,183.914 574.5,185.5C 573.571,184.311 573.238,182.978 573.5,181.5 Z"/></g>
<g><path style="opacity:1" fill="#818181" d="M 273.5,179.5 C 273.833,179.5 274.167,179.5 274.5,179.5C 310.167,180.167 345.833,180.833 381.5,181.5C 345.151,182.16 309.151,181.494 273.5,179.5 Z"/></g>
<g><path style="opacity:1" fill="#818181" d="M 478.5,179.5 C 510.167,180.167 541.833,180.833 573.5,181.5C 541.493,181.833 509.493,181.5 477.5,180.5C 477.624,179.893 477.957,179.56 478.5,179.5 Z"/></g>
<g><path style="opacity:1" fill="#535353" d="M 278.5,191.5 C 277.127,191.343 275.793,191.51 274.5,192C 275.737,192.232 276.737,192.732 277.5,193.5C 276.167,193.5 274.833,193.5 273.5,193.5C 273.5,192.5 273.5,191.5 273.5,190.5C 275.415,190.216 277.081,190.549 278.5,191.5 Z"/></g>
<g><path style="opacity:1" fill="#4d543a" d="M 26.5,198.5 C 36.1667,198.5 45.8333,198.5 55.5,198.5C 55.5,200.5 55.5,202.5 55.5,204.5C 54.5489,203.081 54.2155,201.415 54.5,199.5C 44.985,199.827 35.6517,199.494 26.5,198.5 Z"/></g>
<g><path style="opacity:1" fill="#494f37" d="M 61.5,199.5 C 61.5,201.5 61.5,203.5 61.5,205.5C 64.3854,205.194 67.0521,205.527 69.5,206.5C 61.8333,206.5 54.1667,206.5 46.5,206.5C 49.5,205.833 52.5,205.167 55.5,204.5C 57.1667,204.5 58.8333,204.5 60.5,204.5C 60.2155,202.585 60.5489,200.919 61.5,199.5 Z"/></g>
<g><path style="opacity:1" fill="#8c9a6a" d="M 46.5,206.5 C 54.1667,206.5 61.8333,206.5 69.5,206.5C 69.5,207.5 69.5,208.5 69.5,209.5C 61.8333,209.5 54.1667,209.5 46.5,209.5C 46.5,208.5 46.5,207.5 46.5,206.5 Z"/></g>
<g><path style="opacity:1" fill="#828282" d="M 472.5,227.5 C 474.337,227.639 474.67,228.306 473.5,229.5C 472.702,229.043 472.369,228.376 472.5,227.5 Z"/></g>
<g><path style="opacity:1" fill="#414141" d="M 190.5,228.5 C 190.5,231.833 190.5,235.167 190.5,238.5C 189.833,238.5 189.167,238.5 188.5,238.5C 188.5,237.833 188.5,237.167 188.5,236.5C 189.167,233.833 189.833,231.167 190.5,228.5 Z"/></g>
<g><path style="opacity:1" fill="#b5b5b5" d="M 190.5,228.5 C 193.01,228.054 195.01,228.72 196.5,230.5C 196.649,231.552 196.483,232.552 196,233.5C 195.768,232.263 195.268,231.263 194.5,230.5C 193.833,230.5 193.167,230.5 192.5,230.5C 191.566,231.568 191.232,232.901 191.5,234.5C 192.791,234.263 193.791,234.596 194.5,235.5C 193.167,236.5 191.833,237.5 190.5,238.5C 190.5,235.167 190.5,231.833 190.5,228.5 Z"/></g>
<g><path style="opacity:1" fill="#ababab" d="M 234.5,228.5 C 238.387,229.657 239.054,231.657 236.5,234.5C 239.462,237.388 238.795,238.721 234.5,238.5C 234.84,235.856 234.173,233.523 232.5,231.5C 233.612,230.735 234.279,229.735 234.5,228.5 Z"/></g>
<g><path style="opacity:1" fill="#9d9d9d" d="M 395.5,228.5 C 397.213,229.305 398.879,230.305 400.5,231.5C 397.833,233.5 397.833,235.5 400.5,237.5C 398.994,238.747 397.494,238.747 396,237.5C 394.937,234.432 394.77,231.432 395.5,228.5 Z"/></g>
<g><path style="opacity:1" fill="#414141" d="M 664.5,228.5 C 664.5,231.833 664.5,235.167 664.5,238.5C 663.833,238.5 663.167,238.5 662.5,238.5C 662.5,237.833 662.5,237.167 662.5,236.5C 663.167,233.833 663.833,231.167 664.5,228.5 Z"/></g>
<g><path style="opacity:1" fill="#a3a3a3" d="M 664.5,228.5 C 669.501,227.671 671.668,229.671 671,234.5C 669.644,235.38 668.144,235.714 666.5,235.5C 666.715,237.179 666.048,238.179 664.5,238.5C 664.5,235.167 664.5,231.833 664.5,228.5 Z"/></g>
<g><path style="opacity:1" fill="#9e9e9e" d="M 370.5,228.5 C 374.138,227.737 375.638,229.07 375,232.5C 372.881,229.523 371.714,229.856 371.5,233.5C 371.714,237.144 372.881,237.477 375,234.5C 375.611,238.088 374.111,239.254 370.5,238C 367.888,234.836 367.888,231.669 370.5,228.5 Z"/></g>
<g><path style="opacity:1" fill="#a1a1a1" d="M 437.5,228.5 C 443.261,228.709 443.594,229.542 438.5,231C 439.891,232.02 441.391,232.853 443,233.5C 443.72,235.112 443.554,236.612 442.5,238C 440.272,238.82 438.272,238.487 436.5,237C 438.256,236.798 439.922,236.298 441.5,235.5C 437.432,234.483 436.099,232.15 437.5,228.5 Z"/></g>
<g><path style="opacity:1" fill="#a4a4a4" d="M 598.5,228.5 C 600.213,229.305 601.879,230.305 603.5,231.5C 602.675,232.386 601.675,232.719 600.5,232.5C 600.5,233.833 600.5,235.167 600.5,236.5C 601.675,236.281 602.675,236.614 603.5,237.5C 601.994,238.747 600.494,238.747 599,237.5C 598.788,235.22 597.955,233.22 596.5,231.5C 597.612,230.735 598.279,229.735 598.5,228.5 Z"/></g>
<g><path style="opacity:1" fill="#a8a8a8" d="M 639.5,228.5 C 640.833,228.5 642.167,228.5 643.5,228.5C 643.073,231.788 643.74,234.788 645.5,237.5C 643.5,238.833 641.5,238.833 639.5,237.5C 640.544,236.377 641.21,235.044 641.5,233.5C 641.014,231.696 640.347,230.029 639.5,228.5 Z"/></g>
<g><path style="opacity:1" fill="#000000" d="M 666.5,230.5 C 668.465,230.948 668.798,231.948 667.5,233.5C 666.614,232.675 666.281,231.675 666.5,230.5 Z"/></g>
<g><path style="opacity:1" fill="#a2a2a2" d="M 387.5,230.5 C 387.5,233.167 387.5,235.833 387.5,238.5C 386.252,237.666 385.585,236.333 385.5,234.5C 385.585,232.667 386.252,231.334 387.5,230.5 Z"/></g>
<g><path style="opacity:1" fill="#a2a2a2" d="M 411.5,230.5 C 417.367,230.206 419.033,232.872 416.5,238.5C 415.167,230.5 413.833,230.5 412.5,238.5C 411.52,235.914 411.187,233.247 411.5,230.5 Z"/></g>
<g><path style="opacity:1" fill="#8b8b8b" d="M 453.5,230.5 C 455.527,230.338 457.527,230.505 459.5,231C 460.731,232.183 460.731,233.349 459.5,234.5C 458.742,233.189 457.742,232.689 456.5,233C 455.897,234.825 455.23,236.659 454.5,238.5C 453.52,235.914 453.187,233.247 453.5,230.5 Z"/></g>
<g><path style="opacity:1" fill="#a4a4a4" d="M 628.5,232.5 C 628.5,234.5 628.5,236.5 628.5,238.5C 626.964,236.975 625.964,234.975 625.5,232.5C 624.833,234.5 624.167,236.5 623.5,238.5C 622.167,235.833 622.167,233.167 623.5,230.5C 624.5,231.833 625.5,231.833 626.5,230.5C 627.522,230.855 628.189,231.522 628.5,232.5 Z"/></g>
<g><path style="opacity:1" fill="#a3a3a3" d="M 44.5,234.5 C 42.9891,233.498 41.3224,232.831 39.5,232.5C 39.2322,234.099 39.5655,235.432 40.5,236.5C 45.5997,236.466 45.7664,237.132 41,238.5C 37.7072,237.862 36.7072,235.862 38,232.5C 41.2768,229.648 43.4435,230.315 44.5,234.5 Z"/></g>
<g><path style="opacity:1" fill="#a3a3a3" d="M 46.5,228.5 C 47.9311,228.881 48.7645,229.881 49,231.5C 51.645,230.292 52.8116,231.292 52.5,234.5C 52.4302,235.772 52.0968,236.938 51.5,238C 49.8659,238.494 48.1992,238.66 46.5,238.5C 46.5,235.167 46.5,231.833 46.5,228.5 Z"/></g>
<g><path style="opacity:1" fill="#a2a2a2" d="M 247.5,234.5 C 245.989,233.498 244.322,232.831 242.5,232.5C 242.232,234.099 242.566,235.432 243.5,236.5C 244.873,236.343 246.207,236.51 247.5,237C 241.287,239.956 239.287,238.123 241.5,231.5C 245.157,229.562 247.157,230.562 247.5,234.5 Z"/></g>
<g><path style="opacity:1" fill="#989898" d="M 387.5,230.5 C 391.24,229.741 392.907,231.241 392.5,235C 392.167,236.167 391.833,237.333 391.5,238.5C 390.833,236.5 390.167,234.5 389.5,232.5C 388.831,234.631 388.165,236.631 387.5,238.5C 387.5,235.833 387.5,233.167 387.5,230.5 Z"/></g>
<g><path style="opacity:1" fill="#9f9f9f" d="M 421.5,228.5 C 423.213,229.305 424.879,230.305 426.5,231.5C 425.675,232.386 424.675,232.719 423.5,232.5C 423.5,233.833 423.5,235.167 423.5,236.5C 424.675,236.281 425.675,236.614 426.5,237.5C 424.994,238.747 423.494,238.747 422,237.5C 421.788,235.22 420.955,233.22 419.5,231.5C 420.612,230.735 421.279,229.735 421.5,228.5 Z"/></g>
<g><path style="opacity:1" fill="#939393" d="M 446.5,230.5 C 450.5,229.833 452.167,231.5 451.5,235.5C 446.206,235.682 446.206,236.182 451.5,237C 448.297,239.283 445.964,238.616 444.5,235C 444.519,233.167 445.185,231.667 446.5,230.5 Z"/></g>
<g><path style="opacity:1" fill="#939393" d="M 488.5,230.5 C 492.5,229.833 494.167,231.5 493.5,235.5C 488.206,235.682 488.206,236.182 493.5,237C 490.297,239.283 487.964,238.616 486.5,235C 486.519,233.167 487.185,231.667 488.5,230.5 Z"/></g>
<g><path style="opacity:1" fill="#9d9d9d" d="M 589.5,230.5 C 591.068,232.931 592.568,232.931 594,230.5C 594.21,231.803 594.043,233.136 593.5,234.5C 593.529,236.029 594.196,237.196 595.5,238C 593.892,238.658 592.725,238.158 592,236.5C 588.226,239.197 587.726,238.697 590.5,235C 589.852,233.56 589.519,232.06 589.5,230.5 Z"/></g>
<g><path style="opacity:1" fill="#9a9a9a" d="M 614.5,230.5 C 615.802,231.807 617.135,231.807 618.5,230.5C 620.49,231.463 620.823,232.796 619.5,234.5C 618.833,233.833 618.167,233.167 617.5,232.5C 616.833,234.5 616.167,236.5 615.5,238.5C 614.52,235.914 614.187,233.247 614.5,230.5 Z"/></g>
<g><path style="opacity:1" fill="#505050" d="M 258.5,231.5 C 259.398,232.158 260.398,232.824 261.5,233.5C 260.675,234.386 259.675,234.719 258.5,234.5C 257.375,233.348 257.375,232.348 258.5,231.5 Z"/></g>
<g><path style="opacity:1" fill="#a0a0a0" d="M 378.5,230.5 C 383.709,230.369 385.375,232.703 383.5,237.5C 381.629,238.767 379.796,238.767 378,237.5C 377.297,235.071 377.463,232.738 378.5,230.5 Z"/></g>
<g><path style="opacity:1" fill="#232323" d="M 379.5,232.5 C 380.5,232.5 381.5,232.5 382.5,232.5C 382.5,233.833 382.5,235.167 382.5,236.5C 381.5,236.5 380.5,236.5 379.5,236.5C 379.5,235.167 379.5,233.833 379.5,232.5 Z"/></g>
<g><path style="opacity:1" fill="#9d9d9d" d="M 479.5,230.5 C 481.827,230.247 483.827,230.914 485.5,232.5C 483.997,233.052 482.331,233.052 480.5,232.5C 480.5,233.833 480.5,235.167 480.5,236.5C 482.331,235.948 483.997,235.948 485.5,236.5C 483.956,238.446 481.956,238.946 479.5,238C 478.221,235.502 478.221,233.002 479.5,230.5 Z"/></g>
<g><path style="opacity:1" fill="#a2a2a2" d="M 585.5,232.5 C 584.432,233.434 583.099,233.768 581.5,233.5C 581.263,234.791 581.596,235.791 582.5,236.5C 583.978,236.238 585.311,236.571 586.5,237.5C 584.257,238.474 581.924,238.808 579.5,238.5C 579.5,235.167 579.5,231.833 579.5,228.5C 581.924,228.192 584.257,228.526 586.5,229.5C 584.833,230.167 583.167,230.833 581.5,231.5C 582.689,232.429 584.022,232.762 585.5,232.5 Z"/></g>
<g><path style="opacity:1" fill="#676767" d="M 585.5,232.5 C 586.043,232.56 586.376,232.893 586.5,233.5C 584.668,234.057 583.335,235.057 582.5,236.5C 581.596,235.791 581.263,234.791 581.5,233.5C 583.099,233.768 584.432,233.434 585.5,232.5 Z"/></g>
<g><path style="opacity:1" fill="#989898" d="M 606.5,230.5 C 610.349,230.019 612.349,231.686 612.5,235.5C 606.676,235.347 606.343,236.013 611.5,237.5C 609.926,238.631 608.259,238.798 606.5,238C 605.221,235.502 605.221,233.002 606.5,230.5 Z"/></g>
<g><path style="opacity:1" fill="#282828" d="M 628.5,232.5 C 629.167,232.5 629.833,232.5 630.5,232.5C 631.762,232.907 633.095,233.24 634.5,233.5C 633.311,234.429 631.978,234.762 630.5,234.5C 630.5,235.5 630.5,236.5 630.5,237.5C 629.833,237.833 629.167,238.167 628.5,238.5C 628.5,236.5 628.5,234.5 628.5,232.5 Z"/></g>
<g><path style="opacity:1" fill="#969696" d="M 30.5,230.5 C 30.638,234.286 31.3047,234.286 32.5,230.5C 33.1174,230.611 33.6174,230.944 34,231.5C 35.2446,227.502 36.078,227.669 36.5,232C 36.5176,234.389 35.8509,236.556 34.5,238.5C 33.2624,234.689 32.5958,234.689 32.5,238.5C 31.5,238.5 30.5,238.5 29.5,238.5C 29.0896,234.346 29.4229,231.679 30.5,230.5 Z"/></g>
<g><path style="opacity:1" fill="#4c4c4c" d="M 30.5,230.5 C 31.1667,230.5 31.8333,230.5 32.5,230.5C 31.3047,234.286 30.638,234.286 30.5,230.5 Z"/></g>
<g><path style="opacity:1" fill="#767676" d="M 44.5,234.5 C 43.1667,235.167 41.8333,235.833 40.5,236.5C 39.5655,235.432 39.2322,234.099 39.5,232.5C 41.3224,232.831 42.9891,233.498 44.5,234.5 Z"/></g>
<g><path style="opacity:1" fill="#7c7c7c" d="M 192.5,230.5 C 193.167,234.5 193.833,234.5 194.5,230.5C 195.268,231.263 195.768,232.263 196,233.5C 196.483,232.552 196.649,231.552 196.5,230.5C 197.598,231.601 197.765,232.934 197,234.5C 196.329,235.252 195.496,235.586 194.5,235.5C 193.791,234.596 192.791,234.263 191.5,234.5C 191.232,232.901 191.566,231.568 192.5,230.5 Z"/></g>
<g><path style="opacity:1" fill="#050505" d="M 192.5,230.5 C 193.167,230.5 193.833,230.5 194.5,230.5C 193.833,234.5 193.167,234.5 192.5,230.5 Z"/></g>
<g><path style="opacity:1" fill="#a3a3a3" d="M 216.5,228.5 C 218.665,228.116 220.332,228.783 221.5,230.5C 220.609,231.59 219.609,231.59 218.5,230.5C 217.534,232.396 217.201,234.396 217.5,236.5C 220.797,236.671 221.131,236.005 218.5,234.5C 219.689,233.571 221.022,233.238 222.5,233.5C 222.348,237.487 220.348,238.987 216.5,238C 215.208,234.835 215.208,231.668 216.5,228.5 Z"/></g>
<g><path style="opacity:1" fill="#767676" d="M 247.5,234.5 C 246.167,235.167 244.833,235.833 243.5,236.5C 242.566,235.432 242.232,234.099 242.5,232.5C 244.322,232.831 245.989,233.498 247.5,234.5 Z"/></g>
<g><path style="opacity:1" fill="#949494" d="M 254.5,230.5 C 255.586,230.62 256.253,231.287 256.5,232.5C 256.14,234.608 255.473,236.608 254.5,238.5C 253.167,237.167 251.833,237.167 250.5,238.5C 249.353,236.235 249.186,233.902 250,231.5C 250.333,232.167 250.667,232.833 251,233.5C 252.729,233.026 253.895,232.026 254.5,230.5 Z"/></g>
<g><path style="opacity:1" fill="#0f0f0f" d="M 48.5,232.5 C 49.5862,232.62 50.2528,233.287 50.5,234.5C 50.1667,235.167 49.8333,235.833 49.5,236.5C 48.5713,235.311 48.238,233.978 48.5,232.5 Z"/></g>
<g><path style="opacity:1" fill="#999999" d="M 64.5,228.5 C 65.8221,228.33 66.9887,228.663 68,229.5C 69.3665,232.564 69.8665,235.564 69.5,238.5C 67.5,235.833 65.5,235.833 63.5,238.5C 63.1667,238 62.8333,237.5 62.5,237C 63.9944,234.361 64.6611,231.528 64.5,228.5 Z"/></g>
<g><path style="opacity:1" fill="#989898" d="M 188.5,236.5 C 188.5,237.167 188.5,237.833 188.5,238.5C 187.244,238.096 186.077,237.429 185,236.5C 184.05,237.022 183.216,237.689 182.5,238.5C 181.662,235.467 181.996,232.467 183.5,229.5C 184.325,228.614 185.325,228.281 186.5,228.5C 187.167,231.167 187.833,233.833 188.5,236.5 Z"/></g>
<g><path style="opacity:1" fill="#919191" d="M 224.5,230.5 C 226.144,230.286 227.644,230.62 229,231.5C 229.311,233.556 229.811,235.556 230.5,237.5C 228.305,238.769 226.139,238.769 224,237.5C 224.362,235.107 224.529,232.774 224.5,230.5 Z"/></g>
<g><path style="opacity:1" fill="#969696" d="M 258.5,234.5 C 259.675,234.719 260.675,234.386 261.5,233.5C 260.398,232.824 259.398,232.158 258.5,231.5C 259.601,230.402 260.934,230.235 262.5,231C 263.227,233.124 263.894,235.291 264.5,237.5C 262.579,238.641 260.579,238.808 258.5,238C 257.209,236.708 257.209,235.542 258.5,234.5 Z"/></g>
<g><path style="opacity:1" fill="#979797" d="M 662.5,236.5 C 662.5,237.167 662.5,237.833 662.5,238.5C 661.244,238.096 660.077,237.429 659,236.5C 658.05,237.022 657.216,237.689 656.5,238.5C 656.167,237.833 655.833,237.167 655.5,236.5C 656.762,233.978 657.429,231.311 657.5,228.5C 658.5,228.5 659.5,228.5 660.5,228.5C 661.167,231.167 661.833,233.833 662.5,236.5 Z"/></g>
<g><path style="opacity:1" fill="#a4a4a4" d="M 80.5,230.5 C 82.3384,230.977 84.1717,231.31 86,231.5C 86.6667,233.5 86.6667,235.5 86,237.5C 84.9887,238.337 83.8221,238.67 82.5,238.5C 82.719,239.675 82.3857,240.675 81.5,241.5C 80.5108,237.893 80.1774,234.226 80.5,230.5 Z"/></g>
<g><path style="opacity:1" fill="#101010" d="M 82.5,232.5 C 83.5862,232.62 84.2528,233.287 84.5,234.5C 84.1667,235.167 83.8333,235.833 83.5,236.5C 82.5713,235.311 82.238,233.978 82.5,232.5 Z"/></g>
<g><path style="opacity:1" fill="#949494" d="M 403.5,230.5 C 407.56,229.848 409.56,231.515 409.5,235.5C 403.676,235.347 403.343,236.013 408.5,237.5C 406.926,238.631 405.259,238.798 403.5,238C 402.221,235.502 402.221,233.002 403.5,230.5 Z"/></g>
<g><path style="opacity:1" fill="#a0a0a0" d="M 461.5,230.5 C 462.496,230.414 463.329,230.748 464,231.5C 464.333,232.833 464.667,234.167 465,235.5C 465.739,233.779 466.573,232.113 467.5,230.5C 468.038,232.764 467.704,235.097 466.5,237.5C 465.675,238.386 464.675,238.719 463.5,238.5C 463.037,235.779 462.371,233.112 461.5,230.5 Z"/></g>
<g><path style="opacity:1" fill="#989898" d="M 630.5,237.5 C 630.5,236.5 630.5,235.5 630.5,234.5C 631.978,234.762 633.311,234.429 634.5,233.5C 633.095,233.24 631.762,232.907 630.5,232.5C 631.659,230.623 633.326,230.123 635.5,231C 639.531,237.596 637.864,239.763 630.5,237.5 Z"/></g>
<g><path style="opacity:1" fill="#989898" d="M 198.5,228.5 C 200.924,228.192 203.257,228.526 205.5,229.5C 202.833,232.167 202.833,234.833 205.5,237.5C 203.167,238.833 200.833,238.833 198.5,237.5C 199.544,236.377 200.21,235.044 200.5,233.5C 200.014,231.696 199.347,230.029 198.5,228.5 Z"/></g>
<g><path style="opacity:1" fill="#a1a1a1" d="M 470.5,230.5 C 471.833,230.5 473.167,230.5 474.5,230.5C 474.16,233.144 474.827,235.477 476.5,237.5C 474.5,238.833 472.5,238.833 470.5,237.5C 471.415,236.672 472.081,235.672 472.5,234.5C 471.775,233.133 471.108,231.8 470.5,230.5 Z"/></g>
<g><path style="opacity:1" fill="#999999" d="M 672.5,228.5 C 674.924,228.192 677.257,228.526 679.5,229.5C 676.833,232.167 676.833,234.833 679.5,237.5C 677.167,238.833 674.833,238.833 672.5,237.5C 673.544,236.377 674.21,235.044 674.5,233.5C 674.014,231.696 673.347,230.029 672.5,228.5 Z"/></g>
<g><path style="opacity:1" fill="#9e9e9e" d="M 71.5,230.5 C 73.6106,230.772 75.7772,231.105 78,231.5C 79.4757,235.844 77.9757,238.178 73.5,238.5C 73.719,239.675 73.3857,240.675 72.5,241.5C 71.5108,237.893 71.1774,234.226 71.5,230.5 Z"/></g>
<g><path style="opacity:1" fill="#1a1a1a" d="M 73.5,232.5 C 74.5862,232.62 75.2528,233.287 75.5,234.5C 75.1667,235.167 74.8333,235.833 74.5,236.5C 73.5713,235.311 73.238,233.978 73.5,232.5 Z"/></g>
<g><path style="opacity:1" fill="#9b9b9b" d="M 266.5,230.5 C 267.859,231.007 268.859,232.007 269.5,233.5C 270.167,232.5 270.833,231.5 271.5,230.5C 272.015,233.833 271.515,237.166 270,240.5C 268.817,241.731 267.651,241.731 266.5,240.5C 267.025,239.808 267.692,239.308 268.5,239C 267.009,236.379 266.342,233.545 266.5,230.5 Z"/></g>
<g><path style="opacity:1" fill="#a6a6a6" d="M 278.5,191.5 C 291.044,194.032 300.878,200.699 308,211.5C 314.095,220.684 319.428,230.351 324,240.5C 332.144,261.787 342.144,282.121 354,301.5C 359.716,308.881 366.882,314.381 375.5,318C 378.146,318.497 380.813,318.664 383.5,318.5C 383.281,317.325 383.614,316.325 384.5,315.5C 386.968,316.803 389.301,318.303 391.5,320C 389.089,321.955 386.589,323.789 384,325.5C 383.506,323.866 383.34,322.199 383.5,320.5C 377.328,320.943 371.662,319.443 366.5,316C 357.558,309.392 350.392,301.225 345,291.5C 335.393,271.286 326.06,250.953 317,230.5C 311.574,218.821 304.074,208.654 294.5,200C 289.38,196.35 283.713,194.183 277.5,193.5C 276.737,192.732 275.737,192.232 274.5,192C 275.793,191.51 277.127,191.343 278.5,191.5 Z"/></g>
<g><path style="opacity:1" fill="#909f6d" d="M 422.5,291.5 C 440.774,288.546 453.274,295.546 460,312.5C 462.687,329.476 456.187,341.31 440.5,348C 422.026,352.014 409.526,345.181 403,327.5C 400.344,310.475 406.844,298.475 422.5,291.5 Z"/></g>
<g><path style="opacity:1" fill="#8f9d6c" d="M 656.5,302.5 C 644.73,309.1 632.064,311.267 618.5,309C 613.972,307.955 609.639,306.455 605.5,304.5C 602.544,300.689 603.211,297.522 607.5,295C 621.354,290.674 635.354,290.341 649.5,294C 651.754,295.377 653.92,296.877 656,298.5C 656.49,299.793 656.657,301.127 656.5,302.5 Z"/></g>
<g><path style="opacity:1" fill="#4e563b" d="M 604.5,305.5 C 604.5,305.833 604.5,306.167 604.5,306.5C 603.506,316.987 603.172,327.654 603.5,338.5C 602.834,333.177 602.501,327.677 602.5,322C 602.505,316.124 603.171,310.624 604.5,305.5 Z"/></g>
<g><path style="opacity:1" fill="#91a06e" d="M 604.5,306.5 C 620.683,314.032 637.016,314.365 653.5,307.5C 655.476,317.781 656.143,328.448 655.5,339.5C 647.677,345.155 638.844,347.489 629,346.5C 620.986,347.385 613.486,345.885 606.5,342C 605.29,340.961 604.29,339.794 603.5,338.5C 603.172,327.654 603.506,316.987 604.5,306.5 Z"/></g>
<g><path style="opacity:1" fill="#77845b" d="M 656.5,305.5 C 656.828,317.012 656.495,328.346 655.5,339.5C 656.143,328.448 655.476,317.781 653.5,307.5C 654.29,306.599 655.29,305.932 656.5,305.5 Z"/></g>
<g><path style="opacity:1" fill="#11130d" d="M 425.5,306.5 C 427.288,306.215 428.955,306.548 430.5,307.5C 434.408,315.977 437.742,324.643 440.5,333.5C 438.856,333.714 437.356,333.38 436,332.5C 434.595,328.783 433.095,325.117 431.5,321.5C 429.647,325.048 427.981,328.715 426.5,332.5C 425.311,333.429 423.978,333.762 422.5,333.5C 424.298,327.439 426.298,321.439 428.5,315.5C 428.081,312.244 427.081,309.244 425.5,306.5 Z"/></g>
<g><path style="opacity:1" fill="#181a13" d="M 656.5,302.5 C 655.167,303.5 655.167,304.5 656.5,305.5C 655.29,305.932 654.29,306.599 653.5,307.5C 637.016,314.365 620.683,314.032 604.5,306.5C 604.5,306.167 604.5,305.833 604.5,305.5C 605.167,305.5 605.5,305.167 605.5,304.5C 609.639,306.455 613.972,307.955 618.5,309C 632.064,311.267 644.73,309.1 656.5,302.5 Z"/></g>
<g><path style="opacity:1" fill="#515151" d="M 573.5,318.5 C 542.003,319.332 510.336,319.832 478.5,320C 510.336,320.168 542.003,320.668 573.5,321.5C 541.5,321.5 509.5,321.5 477.5,321.5C 477.5,320.5 477.5,319.5 477.5,318.5C 509.5,318.5 541.5,318.5 573.5,318.5 Z"/></g>
<g><path style="opacity:1" fill="#bebebe" d="M 573.5,321.5 C 542.003,320.668 510.336,320.168 478.5,320C 510.336,319.832 542.003,319.332 573.5,318.5C 573.281,317.325 573.614,316.325 574.5,315.5C 577.329,316.747 579.995,318.247 582.5,320C 579.971,322.029 577.304,323.862 574.5,325.5C 573.571,324.311 573.238,322.978 573.5,321.5 Z"/></g>
<g><path style="opacity:1" fill="#808080" d="M 460.5,367.5 C 461.833,367.5 462.5,368.167 462.5,369.5C 462.5,368.167 461.833,367.5 460.5,367.5 Z"/></g>
<g><path style="opacity:1" fill="#adadad" d="M 597.5,368.5 C 599.467,368.261 601.301,368.594 603,369.5C 603.801,372.367 603.634,375.034 602.5,377.5C 601.833,377.5 601.5,377.167 601.5,376.5C 601.975,373.918 601.308,371.918 599.5,370.5C 598.686,372.631 598.186,374.964 598,377.5C 597.502,374.518 597.335,371.518 597.5,368.5 Z"/></g>
<g><path style="opacity:1" fill="#a5a5a5" d="M 655.5,368.5 C 657.527,368.338 659.527,368.505 661.5,369C 662.022,369.561 662.355,370.228 662.5,371C 662.172,373.025 662.006,375.191 662,377.5C 659.959,378.423 657.792,378.756 655.5,378.5C 655.5,375.167 655.5,371.833 655.5,368.5 Z"/></g>
<g><path style="opacity:1" fill="#a5a5a5" d="M 381.5,368.5 C 383.369,370.635 384.036,373.302 383.5,376.5C 384.5,376.5 385.5,376.5 386.5,376.5C 386.187,373.753 386.52,371.086 387.5,368.5C 388.652,371.106 388.818,373.773 388,376.5C 386,379.167 384,379.167 382,376.5C 381.503,373.854 381.336,371.187 381.5,368.5 Z"/></g>
<g><path style="opacity:1" fill="#a4a4a4" d="M 647.5,368.5 C 654.628,368.706 656.294,371.873 652.5,378C 650.866,378.494 649.199,378.66 647.5,378.5C 647.5,375.167 647.5,371.833 647.5,368.5 Z"/></g>
<g><path style="opacity:1" fill="#0a0a0a" d="M 599.5,370.5 C 601.308,371.918 601.975,373.918 601.5,376.5C 599.692,375.082 599.025,373.082 599.5,370.5 Z"/></g>
<g><path style="opacity:1" fill="#a2a2a2" d="M 457.5,370.5 C 458.833,370.5 460.167,370.5 461.5,370.5C 461.205,372.735 461.539,374.735 462.5,376.5C 463.376,376.369 464.043,376.702 464.5,377.5C 462.167,378.833 459.833,378.833 457.5,377.5C 458.415,376.672 459.081,375.672 459.5,374.5C 458.775,373.133 458.108,371.8 457.5,370.5 Z"/></g>
<g><path style="opacity:1" fill="#373737" d="M 460.5,367.5 C 460.5,368.833 461.167,369.5 462.5,369.5C 462.5,371.833 462.5,374.167 462.5,376.5C 461.539,374.735 461.205,372.735 461.5,370.5C 460.167,370.5 458.833,370.5 457.5,370.5C 458.5,369.5 459.5,368.5 460.5,367.5 Z"/></g>
<g><path style="opacity:1" fill="#1b1b1b" d="M 649.5,370.5 C 650.5,370.5 651.5,370.5 652.5,370.5C 652.5,372.5 652.5,374.5 652.5,376.5C 651.5,376.5 650.5,376.5 649.5,376.5C 649.5,374.5 649.5,372.5 649.5,370.5 Z"/></g>
<g><path style="opacity:1" fill="#3e3e3e" d="M 657.5,370.5 C 658.675,370.281 659.675,370.614 660.5,371.5C 658.948,372.798 657.948,372.465 657.5,370.5 Z"/></g>
<g><path style="opacity:1" fill="#9e9e9e" d="M 391.5,370.5 C 397.176,370.947 397.509,371.781 392.5,373C 396.13,373.271 397.13,374.938 395.5,378C 389.852,378.059 389.519,377.392 394.5,376C 390.75,375.558 389.75,373.724 391.5,370.5 Z"/></g>
<g><path style="opacity:1" fill="#999999" d="M 433.5,370.5 C 437.5,369.833 439.167,371.5 438.5,375.5C 433.206,375.682 433.206,376.182 438.5,377C 437.07,378.44 435.403,378.774 433.5,378C 432.221,375.502 432.221,373.002 433.5,370.5 Z"/></g>
<g><path style="opacity:1" fill="#a5a5a5" d="M 467.5,370.5 C 469.144,370.286 470.644,370.62 472,371.5C 472.239,373.725 471.405,374.058 469.5,372.5C 468.167,373.833 468.167,375.167 469.5,376.5C 471.936,375.109 472.602,375.609 471.5,378C 469.888,378.72 468.388,378.554 467,377.5C 466.297,375.071 466.463,372.738 467.5,370.5 Z"/></g>
<g><path style="opacity:1" fill="#999999" d="M 475.5,370.5 C 479.5,369.833 481.167,371.5 480.5,375.5C 475.206,375.682 475.206,376.182 480.5,377C 479.07,378.44 477.403,378.774 475.5,378C 474.221,375.502 474.221,373.002 475.5,370.5 Z"/></g>
<g><path style="opacity:1" fill="#a2a2a2" d="M 640.5,370.5 C 642.144,370.286 643.644,370.62 645,371.5C 645.758,373.769 645.591,375.936 644.5,378C 642.888,378.72 641.388,378.554 640,377.5C 639.297,375.071 639.463,372.738 640.5,370.5 Z"/></g>
<g><path style="opacity:1" fill="#a7a7a7" d="M 404.5,374.5 C 403.533,373.194 402.199,372.527 400.5,372.5C 400.5,373.5 400.5,374.5 400.5,375.5C 401.718,376.161 403.051,376.828 404.5,377.5C 402.647,378.76 400.814,378.76 399,377.5C 398.242,375.231 398.409,373.064 399.5,371C 402.926,369.762 404.592,370.929 404.5,374.5 Z"/></g>
<g><path style="opacity:1" fill="#949494" d="M 407.5,370.5 C 409.5,370.5 411.5,370.5 413.5,370.5C 413.714,374.257 412.714,374.924 410.5,372.5C 409.833,374.5 409.167,376.5 408.5,378.5C 407.52,375.914 407.187,373.247 407.5,370.5 Z"/></g>
<g><path style="opacity:1" fill="#a1a1a1" d="M 424.5,368.5 C 430.697,368.325 431.363,369.325 426.5,371.5C 430.273,372.449 431.273,374.616 429.5,378C 423.656,378.398 423.323,377.565 428.5,375.5C 425.439,374.19 424.106,371.857 424.5,368.5 Z"/></g>
<g><path style="opacity:1" fill="#8e8e8e" d="M 441.5,370.5 C 443.199,370.34 444.866,370.506 446.5,371C 447.731,372.183 447.731,373.349 446.5,374.5C 445.833,373.833 445.167,373.167 444.5,372.5C 443.833,374.5 443.167,376.5 442.5,378.5C 441.52,375.914 441.187,373.247 441.5,370.5 Z"/></g>
<g><path style="opacity:1" fill="#a1a1a1" d="M 613.5,370.5 C 620.232,369.482 622.232,372.148 619.5,378.5C 618.534,376.604 618.201,374.604 618.5,372.5C 617.5,372.5 616.5,372.5 615.5,372.5C 615.799,374.604 615.466,376.604 614.5,378.5C 613.52,375.914 613.187,373.247 613.5,370.5 Z"/></g>
<g><path style="opacity:1" fill="#5f5f5f" d="M 622.5,372.5 C 623.833,372.5 625.167,372.5 626.5,372.5C 626.5,373.833 626.5,375.167 626.5,376.5C 624.801,376.473 623.467,375.806 622.5,374.5C 622.5,373.833 622.5,373.167 622.5,372.5 Z"/></g>
<g><path style="opacity:1" fill="#a5a5a5" d="M 622.5,374.5 C 623.467,375.806 624.801,376.473 626.5,376.5C 626.5,375.167 626.5,373.833 626.5,372.5C 625.167,372.5 623.833,372.5 622.5,372.5C 623.659,370.623 625.326,370.123 627.5,371C 628.227,373.124 628.894,375.291 629.5,377.5C 627.306,377.358 624.973,377.691 622.5,378.5C 622.5,377.167 622.5,375.833 622.5,374.5 Z"/></g>
<g><path style="opacity:1" fill="#a4a4a4" d="M 633.5,378.5 C 632.833,370.5 632.167,370.5 631.5,378.5C 630.527,376.052 630.194,373.385 630.5,370.5C 632.833,370.5 635.167,370.5 637.5,370.5C 637.813,373.247 637.48,375.914 636.5,378.5C 635.692,376.577 635.192,374.577 635,372.5C 634.809,374.708 634.309,376.708 633.5,378.5 Z"/></g>
<g><path style="opacity:1" fill="#4b4b4b" d="M 633.5,378.5 C 632.833,378.5 632.167,378.5 631.5,378.5C 632.167,370.5 632.833,370.5 633.5,378.5 Z"/></g>
<g><path style="opacity:1" fill="#141414" d="M 641.5,372.5 C 642.586,372.62 643.253,373.287 643.5,374.5C 643.167,375.167 642.833,375.833 642.5,376.5C 641.571,375.311 641.238,373.978 641.5,372.5 Z"/></g>
<g><path style="opacity:1" fill="#6c6c6c" d="M 404.5,374.5 C 403.432,375.434 402.099,375.768 400.5,375.5C 400.5,374.5 400.5,373.5 400.5,372.5C 402.199,372.527 403.533,373.194 404.5,374.5 Z"/></g>
<g><path style="opacity:1" fill="#959595" d="M 449.5,370.5 C 450.859,371.007 451.859,372.007 452.5,373.5C 453.167,372.5 453.833,371.5 454.5,370.5C 454.833,371 455.167,371.5 455.5,372C 455.165,374.577 454.165,376.744 452.5,378.5C 450.599,376.272 449.599,373.605 449.5,370.5 Z"/></g>
<g><path style="opacity:1" fill="#242424" d="M 657.5,373.5 C 658.5,373.5 659.5,373.5 660.5,373.5C 660.5,374.5 660.5,375.5 660.5,376.5C 659.5,376.5 658.5,376.5 657.5,376.5C 657.5,375.5 657.5,374.5 657.5,373.5 Z"/></g>
<g><path style="opacity:1" fill="#757575" d="M 597.5,368.5 C 597.335,371.518 597.502,374.518 598,377.5C 598.186,374.964 598.686,372.631 599.5,370.5C 599.025,373.082 599.692,375.082 601.5,376.5C 601.5,377.167 601.833,377.5 602.5,377.5C 600.735,378.461 598.735,378.795 596.5,378.5C 596.187,374.958 596.521,371.625 597.5,368.5 Z"/></g>
<g><path style="opacity:1" fill="#949494" d="M 605.5,370.5 C 607.335,371.122 608.502,372.456 609,374.5C 609.49,373.207 609.657,371.873 609.5,370.5C 610.675,370.281 611.675,370.614 612.5,371.5C 611.366,374.07 610.532,376.736 610,379.5C 608.759,381.421 607.259,381.754 605.5,380.5C 606.167,379.833 606.833,379.167 607.5,378.5C 606.518,375.904 605.851,373.238 605.5,370.5 Z"/></g>
</svg>
