<?xml version="1.0" encoding="UTF-8"?>
<!DOCTYPE svg PUBLIC "-//W3C//DTD SVG 1.1//EN" "http://www.w3.org/Graphics/SVG/1.1/DTD/svg11.dtd">
<svg xmlns="http://www.w3.org/2000/svg" version="1.1" width="440px" height="440px" style="shape-rendering:geometricPrecision; text-rendering:geometricPrecision; image-rendering:optimizeQuality; fill-rule:evenodd; clip-rule:evenodd" xmlns:xlink="http://www.w3.org/1999/xlink">
<g><path style="opacity:1" fill="#222a35" d="M -0.5,-0.5 C 146.167,-0.5 292.833,-0.5 439.5,-0.5C 439.5,146.167 439.5,292.833 439.5,439.5C 292.833,439.5 146.167,439.5 -0.5,439.5C -0.5,292.833 -0.5,146.167 -0.5,-0.5 Z"/></g>
<g><path style="opacity:1" fill="#5d42e6" d="M 121.5,105.5 C 121.973,106.906 122.973,107.573 124.5,107.5C 125.833,108.167 127.167,108.833 128.5,109.5C 128.973,110.906 129.973,111.573 131.5,111.5C 132.833,112.167 134.167,112.833 135.5,113.5C 135.973,114.906 136.973,115.573 138.5,115.5C 139.833,116.167 141.167,116.833 142.5,117.5C 142.973,118.906 143.973,119.573 145.5,119.5C 146.833,120.167 148.167,120.833 149.5,121.5C 149.973,122.906 150.973,123.573 152.5,123.5C 156.327,125.246 159.993,127.246 163.5,129.5C 163.973,130.906 164.973,131.573 166.5,131.5C 170.327,133.246 173.993,135.246 177.5,137.5C 177.973,138.906 178.973,139.573 180.5,139.5C 180.667,164.169 180.5,188.836 180,213.5C 158.503,201.419 137.17,189.086 116,176.5C 115.333,152.167 115.333,127.833 116,103.5C 116.333,103.167 116.667,102.833 117,102.5C 118.271,103.883 119.771,104.883 121.5,105.5 Z"/></g>
<g><path style="opacity:1" fill="#383787" d="M 121.5,105.5 C 123.027,105.427 124.027,106.094 124.5,107.5C 122.973,107.573 121.973,106.906 121.5,105.5 Z"/></g>
<g><path style="opacity:1" fill="#383787" d="M 128.5,109.5 C 130.027,109.427 131.027,110.094 131.5,111.5C 129.973,111.573 128.973,110.906 128.5,109.5 Z"/></g>
<g><path style="opacity:1" fill="#383787" d="M 135.5,113.5 C 137.027,113.427 138.027,114.094 138.5,115.5C 136.973,115.573 135.973,114.906 135.5,113.5 Z"/></g>
<g><path style="opacity:1" fill="#383787" d="M 142.5,117.5 C 144.027,117.427 145.027,118.094 145.5,119.5C 143.973,119.573 142.973,118.906 142.5,117.5 Z"/></g>
<g><path style="opacity:1" fill="#383787" d="M 149.5,121.5 C 151.027,121.427 152.027,122.094 152.5,123.5C 150.973,123.573 149.973,122.906 149.5,121.5 Z"/></g>
<g><path style="opacity:1" fill="#383787" d="M 163.5,129.5 C 165.027,129.427 166.027,130.094 166.5,131.5C 164.973,131.573 163.973,130.906 163.5,129.5 Z"/></g>
<g><path style="opacity:1" fill="#383787" d="M 177.5,137.5 C 179.027,137.427 180.027,138.094 180.5,139.5C 178.973,139.573 177.973,138.906 177.5,137.5 Z"/></g>
<g><path style="opacity:1" fill="#4439a0" d="M 190.5,145.5 C 188.51,169.477 187.843,193.81 188.5,218.5C 187.502,194.006 187.169,169.339 187.5,144.5C 188.791,144.263 189.791,144.596 190.5,145.5 Z"/></g>
<g><path style="opacity:1" fill="#39378a" d="M 322.5,145.5 C 322.56,144.957 322.893,144.624 323.5,144.5C 324.829,168.997 324.829,193.33 323.5,217.5C 323.831,193.328 323.498,169.328 322.5,145.5 Z"/></g>
<g><path style="opacity:1" fill="#5e42e7" d="M 190.5,145.5 C 191.833,146.167 193.167,146.833 194.5,147.5C 194.973,148.906 195.973,149.573 197.5,149.5C 198.833,150.167 200.167,150.833 201.5,151.5C 201.973,152.906 202.973,153.573 204.5,153.5C 205.833,154.167 207.167,154.833 208.5,155.5C 208.973,156.906 209.973,157.573 211.5,157.5C 212.833,158.167 214.167,158.833 215.5,159.5C 215.973,160.906 216.973,161.573 218.5,161.5C 219.833,162.167 221.167,162.833 222.5,163.5C 222.973,164.906 223.973,165.573 225.5,165.5C 226.833,166.167 228.167,166.833 229.5,167.5C 229.973,168.906 230.973,169.573 232.5,169.5C 233.833,170.167 235.167,170.833 236.5,171.5C 236.973,172.906 237.973,173.573 239.5,173.5C 243.828,175.329 247.828,177.662 251.5,180.5C 251.831,205.006 251.498,229.339 250.5,253.5C 229.536,242.352 208.87,230.685 188.5,218.5C 187.843,193.81 188.51,169.477 190.5,145.5 Z"/></g>
<g><path style="opacity:1" fill="#3f3fb1" d="M 322.5,145.5 C 323.498,169.328 323.831,193.328 323.5,217.5C 302.799,230.169 281.799,242.503 260.5,254.5C 259.702,254.043 259.369,253.376 259.5,252.5C 260.176,228.598 260.843,204.598 261.5,180.5C 281.571,168.442 301.904,156.775 322.5,145.5 Z"/></g>
<g><path style="opacity:1" fill="#383787" d="M 194.5,147.5 C 196.027,147.427 197.027,148.094 197.5,149.5C 195.973,149.573 194.973,148.906 194.5,147.5 Z"/></g>
<g><path style="opacity:1" fill="#383787" d="M 201.5,151.5 C 203.027,151.427 204.027,152.094 204.5,153.5C 202.973,153.573 201.973,152.906 201.5,151.5 Z"/></g>
<g><path style="opacity:1" fill="#383787" d="M 208.5,155.5 C 210.027,155.427 211.027,156.094 211.5,157.5C 209.973,157.573 208.973,156.906 208.5,155.5 Z"/></g>
<g><path style="opacity:1" fill="#383787" d="M 215.5,159.5 C 217.027,159.427 218.027,160.094 218.5,161.5C 216.973,161.573 215.973,160.906 215.5,159.5 Z"/></g>
<g><path style="opacity:1" fill="#383787" d="M 222.5,163.5 C 224.027,163.427 225.027,164.094 225.5,165.5C 223.973,165.573 222.973,164.906 222.5,163.5 Z"/></g>
<g><path style="opacity:1" fill="#383787" d="M 229.5,167.5 C 231.027,167.427 232.027,168.094 232.5,169.5C 230.973,169.573 229.973,168.906 229.5,167.5 Z"/></g>
<g><path style="opacity:1" fill="#383787" d="M 236.5,171.5 C 238.027,171.427 239.027,172.094 239.5,173.5C 237.973,173.573 236.973,172.906 236.5,171.5 Z"/></g>
<g><path style="opacity:1" fill="#573fd3" d="M 251.5,180.5 C 252.829,205.003 252.829,229.67 251.5,254.5C 250.893,254.376 250.56,254.043 250.5,253.5C 251.498,229.339 251.831,205.006 251.5,180.5 Z"/></g>
<g><path style="opacity:1" fill="#403897" d="M 261.5,180.5 C 260.843,204.598 260.176,228.598 259.5,252.5C 258.843,228.143 259.51,204.143 261.5,180.5 Z"/></g>
<g><path style="opacity:1" fill="#4439a0" d="M 189.5,227.5 C 188.502,251.661 188.169,275.994 188.5,300.5C 187.171,275.997 187.171,251.33 188.5,226.5C 189.107,226.624 189.44,226.957 189.5,227.5 Z"/></g>
<g><path style="opacity:1" fill="#5e42e7" d="M 189.5,227.5 C 190.609,227.557 191.609,227.89 192.5,228.5C 192.973,229.906 193.973,230.573 195.5,230.5C 196.833,231.167 198.167,231.833 199.5,232.5C 199.973,233.906 200.973,234.573 202.5,234.5C 203.833,235.167 205.167,235.833 206.5,236.5C 206.973,237.906 207.973,238.573 209.5,238.5C 210.833,239.167 212.167,239.833 213.5,240.5C 213.973,241.906 214.973,242.573 216.5,242.5C 217.833,243.167 219.167,243.833 220.5,244.5C 220.973,245.906 221.973,246.573 223.5,246.5C 224.833,247.167 226.167,247.833 227.5,248.5C 227.973,249.906 228.973,250.573 230.5,250.5C 231.833,251.167 233.167,251.833 234.5,252.5C 234.973,253.906 235.973,254.573 237.5,254.5C 238.833,255.167 240.167,255.833 241.5,256.5C 241.973,257.906 242.973,258.573 244.5,258.5C 245.833,259.167 247.167,259.833 248.5,260.5C 248.973,261.906 249.973,262.573 251.5,262.5C 251.831,287.006 251.498,311.339 250.5,335.5C 229.501,324.336 208.835,312.67 188.5,300.5C 188.169,275.994 188.502,251.661 189.5,227.5 Z"/></g>
<g><path style="opacity:1" fill="#383787" d="M 192.5,228.5 C 194.027,228.427 195.027,229.094 195.5,230.5C 193.973,230.573 192.973,229.906 192.5,228.5 Z"/></g>
<g><path style="opacity:1" fill="#383787" d="M 199.5,232.5 C 201.027,232.427 202.027,233.094 202.5,234.5C 200.973,234.573 199.973,233.906 199.5,232.5 Z"/></g>
<g><path style="opacity:1" fill="#383787" d="M 206.5,236.5 C 208.027,236.427 209.027,237.094 209.5,238.5C 207.973,238.573 206.973,237.906 206.5,236.5 Z"/></g>
<g><path style="opacity:1" fill="#383787" d="M 213.5,240.5 C 215.027,240.427 216.027,241.094 216.5,242.5C 214.973,242.573 213.973,241.906 213.5,240.5 Z"/></g>
<g><path style="opacity:1" fill="#383787" d="M 220.5,244.5 C 222.027,244.427 223.027,245.094 223.5,246.5C 221.973,246.573 220.973,245.906 220.5,244.5 Z"/></g>
<g><path style="opacity:1" fill="#383787" d="M 227.5,248.5 C 229.027,248.427 230.027,249.094 230.5,250.5C 228.973,250.573 227.973,249.906 227.5,248.5 Z"/></g>
<g><path style="opacity:1" fill="#383787" d="M 234.5,252.5 C 236.027,252.427 237.027,253.094 237.5,254.5C 235.973,254.573 234.973,253.906 234.5,252.5 Z"/></g>
<g><path style="opacity:1" fill="#383787" d="M 241.5,256.5 C 243.027,256.427 244.027,257.094 244.5,258.5C 242.973,258.573 241.973,257.906 241.5,256.5 Z"/></g>
<g><path style="opacity:1" fill="#383787" d="M 248.5,260.5 C 250.027,260.427 251.027,261.094 251.5,262.5C 249.973,262.573 248.973,261.906 248.5,260.5 Z"/></g>
<g><path style="opacity:1" fill="#573fd3" d="M 251.5,262.5 C 252.829,287.003 252.829,311.67 251.5,336.5C 250.893,336.376 250.56,336.043 250.5,335.5C 251.498,311.339 251.831,287.006 251.5,262.5 Z"/></g>
</svg>
